<?xml version="1.0" encoding="utf-8"?>
<!-- Generator: Adobe Illustrator 21.0.0, SVG Export Plug-In . SVG Version: 6.00 Build 0)  -->
<svg version="1.1" id="Слой_5" xmlns="http://www.w3.org/2000/svg" xmlns:xlink="http://www.w3.org/1999/xlink" x="0px" y="0px"
	 viewBox="0 0 500 500" enable-background="new 0 0 500 500" xml:space="preserve">
<path fill="#FFFFFF" d="M129.5,342.1l-24.1-7.8c-0.5-0.2-0.8-0.7-0.6-1.3c0.2-0.5,0.7-0.8,1.3-0.6l23.4,7.6
	c27.5-9.5,42.1-14.1,43.3-13.6c1.6,0.5,43.7,9.1,60.7,12.6l15.9-24.9l47.2-2l13.9-12l35,7.3l28.7-18.1l39.2-36.9
	c0.4-0.4,1-0.4,1.4,0c0.4,0.4,0.4,1,0,1.4l-39.3,37.1l-29.5,18.6l-34.8-7.2L297.4,314l-46.8,2l-16.1,25.1l-0.7-0.1
	c-6-1.2-57.9-11.8-61.5-12.7c-2.4,0.2-27.3,8.5-42.5,13.7L129.5,342.1z M172.2,328.2C172.2,328.2,172.2,328.2,172.2,328.2
	C172.2,328.2,172.2,328.2,172.2,328.2z"/>
<path opacity="0.1" fill="#FFFFFF" d="M374.8,290l-29.1,18.3l-34.9-7.3L297,313l-47,2l-16,25c0,0-60-12.2-61.5-12.8
	c-1.5-0.5-43,13.8-43,13.8l-22.5-7.3v53.8c0,1.6,1.3,2.9,2.9,2.9h297.2c1.6,0,2.9-1.3,2.9-2.9V256.8L374.8,290z"/>
<path fill="none" d="M374.8,290l-29.1,18.3l-34.9-7.3L297,313l-47,2l-16,25c0,0-60-12.2-61.5-12.8c-1.5-0.5-43,13.8-43,13.8
	l-22.5-7.3v53.8c0,1.6,1.3,2.9,2.9,2.9h297.2c1.6,0,2.9-1.3,2.9-2.9V256.8L374.8,290z"/>
<rect x="348.8" y="306.8" opacity="0.54" fill="#FFFFFF" width="0.5" height="82.9"/>
<rect x="288.2" y="313.3" opacity="0.54" fill="#FFFFFF" width="0.5" height="76.4"/>
<rect x="227.5" y="338.5" opacity="0.54" fill="#FFFFFF" width="0.5" height="51.2"/>
<rect x="166.9" y="327.7" opacity="0.54" fill="#FFFFFF" width="0.5" height="62"/>
</svg>
