<?xml version="1.0" encoding="utf-8"?>
<!-- Generator: Adobe Illustrator 21.0.0, SVG Export Plug-In . SVG Version: 6.00 Build 0)  -->
<svg version="1.1" id="Layer_1" xmlns="http://www.w3.org/2000/svg" xmlns:xlink="http://www.w3.org/1999/xlink" x="0px" y="0px"
	 viewBox="0 0 44 44" enable-background="new 0 0 44 44" xml:space="preserve">
<g>
	<g>
		<path fill="#FFFFFF" d="M37.5,37c-0.3,0-0.5,0.2-0.5,0.5v3c0,0.3,0.2,0.5,0.5,0.5s0.5-0.2,0.5-0.5v-3C38,37.2,37.8,37,37.5,37z"/>
		<path fill="#FFFFFF" d="M42.5,23c-0.3,0-0.5,0.2-0.5,0.5v3c0,0.3,0.2,0.5,0.5,0.5s0.5-0.2,0.5-0.5v-3C43,23.2,42.8,23,42.5,23z"/>
		<path fill="#FFFFFF" d="M24.5,40c-0.3,0-0.5,0.2-0.5,0.5s0.2,0.5,0.5,0.5h3c0.3,0,0.5-0.2,0.5-0.5S27.8,40,27.5,40H24.5z"/>
		<path fill="#FFFFFF" d="M31,38.5c0-0.3-0.2-0.5-0.5-0.5h-3c-0.3,0-0.5,0.2-0.5,0.5s0.2,0.5,0.5,0.5h3C30.8,39,31,38.8,31,38.5z"/>
		<path fill="#FFFFFF" d="M19,3.5C19,3.2,18.8,3,18.5,3h-3C15.2,3,15,3.2,15,3.5S15.2,4,15.5,4h3C18.8,4,19,3.8,19,3.5z"/>
		<path fill="#FFFFFF" d="M2.5,6C2.8,6,3,5.8,3,5.5v-3C3,2.2,2.8,2,2.5,2S2,2.2,2,2.5v3C2,5.8,2.2,6,2.5,6z"/>
		<path fill="#FFFFFF" d="M40.5,36c-0.3,0-0.5,0.2-0.5,0.5v6c0,0.3,0.2,0.5,0.5,0.5s0.5-0.2,0.5-0.5v-6C41,36.2,40.8,36,40.5,36z"/>
		<path fill="#FFFFFF" d="M4.5,16C4.8,16,5,15.8,5,15.5v-6C5,9.2,4.8,9,4.5,9S4,9.2,4,9.5v6C4,15.8,4.2,16,4.5,16z"/>
		<path fill="#FFFFFF" d="M13.5,6C13.2,6,13,6.2,13,6.5S13.2,7,13.5,7h2C15.8,7,16,6.8,16,6.5S15.8,6,15.5,6H13.5z"/>
		<path fill="#FFFFFF" d="M1.5,20C1.8,20,2,19.8,2,19.5v-5C2,14.2,1.8,14,1.5,14S1,14.2,1,14.5v5C1,19.8,1.2,20,1.5,20z"/>
		<path fill="#FFFFFF" d="M40.5,27c-0.3,0-0.5,0.2-0.5,0.5v5c0,0.3,0.2,0.5,0.5,0.5s0.5-0.2,0.5-0.5v-5C41,27.2,40.8,27,40.5,27z"/>
		<path fill="#FFFFFF" d="M6.5,6C6.8,6,7,5.8,7,5.5v-5C7,0.2,6.8,0,6.5,0S6,0.2,6,0.5v5C6,5.8,6.2,6,6.5,6z"/>
		<path fill="#FFFFFF" d="M12,20C5.4,20,0,25.4,0,32s5.4,12,12,12s12-5.4,12-12S18.6,20,12,20z M12,42C6.5,42,2,37.5,2,32
			s4.5-10,10-10s10,4.5,10,10S17.5,42,12,42z"/>
		<path fill="#FFFFFF" d="M12,23c-5,0-9,4-9,9s4,9,9,9s9-4,9-9S17,23,12,23z M12,40c-4.4,0-8-3.6-8-8s3.6-8,8-8s8,3.6,8,8
			S16.4,40,12,40z"/>
		<path fill="#FFFFFF" d="M15.6,31.5c0.2-0.5,0.4-1,0.4-1.5c0-1.7-1.3-3-3-3c0-0.6-0.4-1-1-1s-1,0.4-1,1H9c-0.6,0-1,0.4-1,1
			s0.4,1,1,1v6c-0.6,0-1,0.4-1,1s0.4,1,1,1h2c0,0.6,0.4,1,1,1s1-0.4,1-1h1c1.7,0,3-1.3,3-3C17,32.9,16.4,32,15.6,31.5z M11,29h2
			c0.6,0,1,0.4,1,1s-0.4,1-1,1h-2V29z M14,35h-3v-2h3c0.6,0,1,0.4,1,1S14.6,35,14,35z"/>
		<path fill="#FFFFFF" d="M32,24c6.6,0,12-5.4,12-12S38.6,0,32,0S20,5.4,20,12S25.4,24,32,24z M32,2c5.5,0,10,4.5,10,10
			s-4.5,10-10,10s-10-4.5-10-10S26.5,2,32,2z"/>
		<path fill="#FFFFFF" d="M32,21c5,0,9-4,9-9s-4-9-9-9s-9,4-9,9S27,21,32,21z M32,4c4.4,0,8,3.6,8,8s-3.6,8-8,8s-8-3.6-8-8
			S27.6,4,32,4z"/>
		<path fill="#FFFFFF" d="M31,13h2c0.6,0,1,0.4,1,1s-0.4,1-1,1h-3c-0.6,0-1,0.4-1,1s0.4,1,1,1h1c0,0.6,0.4,1,1,1c0.6,0,1-0.4,1-1
			c1.7,0,3-1.3,3-3s-1.3-3-3-3h-2c-0.6,0-1-0.4-1-1s0.4-1,1-1h3c0.6,0,1-0.4,1-1s-0.4-1-1-1h-1c0-0.6-0.4-1-1-1s-1,0.4-1,1
			c-1.7,0-3,1.3-3,3S29.3,13,31,13z"/>
		<path fill="#FFFFFF" d="M34.9,26.6c-0.3-0.7-1.5-0.7-1.8,0l-2,4c-0.2,0.3-0.1,0.7,0,1S31.7,32,32,32h1v9c0,0.6-0.4,1-1,1h-8
			c-0.6,0-1,0.4-1,1s0.4,1,1,1h8c1.7,0,3-1.3,3-3v-9h1c0.3,0,0.7-0.2,0.9-0.5s0.2-0.7,0-1L34.9,26.6z"/>
		<path fill="#FFFFFF" d="M9.1,17.4C9.3,17.8,9.6,18,10,18s0.7-0.2,0.9-0.6l2-4c0.2-0.3,0.1-0.7,0-1S12.3,12,12,12h-1V3
			c0-0.6,0.4-1,1-1h8c0.6,0,1-0.4,1-1s-0.4-1-1-1h-8c-1.7,0-3,1.3-3,3v9H8c-0.3,0-0.7,0.2-0.9,0.5s-0.2,0.7,0,1L9.1,17.4z"/>
	</g>
</g>
</svg>
