<?xml version="1.0" encoding="utf-8"?>
<!-- Generator: Adobe Illustrator 21.0.0, SVG Export Plug-In . SVG Version: 6.00 Build 0)  -->
<svg version="1.1" id="Layer_1" xmlns="http://www.w3.org/2000/svg" xmlns:xlink="http://www.w3.org/1999/xlink" x="0px" y="0px"
	 viewBox="0 0 44 43" enable-background="new 0 0 44 43" xml:space="preserve">
<g>
	<g>
		<path fill="#FFFFFF" d="M33.5,6C33.8,6,34,5.8,34,5.5v-3C34,2.2,33.8,2,33.5,2S33,2.2,33,2.5v3C33,5.8,33.2,6,33.5,6z"/>
		<path fill="#FFFFFF" d="M38.5,40c-0.3,0-0.5,0.2-0.5,0.5v2c0,0.3,0.2,0.5,0.5,0.5s0.5-0.2,0.5-0.5v-2C39,40.2,38.8,40,38.5,40z"/>
		<path fill="#FFFFFF" d="M38.5,6C38.8,6,39,5.8,39,5.5v-2C39,3.2,38.8,3,38.5,3S38,3.2,38,3.5v2C38,5.8,38.2,6,38.5,6z"/>
		<path fill="#FFFFFF" d="M42.5,30c-0.3,0-0.5,0.2-0.5,0.5v5c0,0.3,0.2,0.5,0.5,0.5s0.5-0.2,0.5-0.5v-5C43,30.2,42.8,30,42.5,30z"/>
		<path fill="#FFFFFF" d="M42,11.5v3c0,0.3,0.2,0.5,0.5,0.5s0.5-0.2,0.5-0.5v-3c0-0.3-0.2-0.5-0.5-0.5S42,11.2,42,11.5z"/>
		<path fill="#FFFFFF" d="M11.5,21h6c0.3,0,0.5-0.2,0.5-0.5S17.8,20,17.5,20h-6c-0.3,0-0.5,0.2-0.5,0.5S11.2,21,11.5,21z"/>
		<path fill="#FFFFFF" d="M17,26.5c0,0.3,0.2,0.5,0.5,0.5h6c0.3,0,0.5-0.2,0.5-0.5S23.8,26,23.5,26h-6C17.2,26,17,26.2,17,26.5z"/>
		<path fill="#FFFFFF" d="M17.5,32h-6c-0.3,0-0.5,0.2-0.5,0.5s0.2,0.5,0.5,0.5h6c0.3,0,0.5-0.2,0.5-0.5S17.8,32,17.5,32z"/>
		<path fill="#FFFFFF" d="M11.5,27h4c0.3,0,0.5-0.2,0.5-0.5S15.8,26,15.5,26h-4c-0.3,0-0.5,0.2-0.5,0.5S11.2,27,11.5,27z"/>
		<path fill="#FFFFFF" d="M11.5,31h4c0.3,0,0.5-0.2,0.5-0.5S15.8,30,15.5,30h-4c-0.3,0-0.5,0.2-0.5,0.5S11.2,31,11.5,31z"/>
		<path fill="#FFFFFF" d="M11.5,23h7c0.3,0,0.5-0.2,0.5-0.5S18.8,22,18.5,22h-7c-0.3,0-0.5,0.2-0.5,0.5S11.2,23,11.5,23z"/>
		<path fill="#FFFFFF" d="M15,24.5c0,0.3,0.2,0.5,0.5,0.5h7c0.3,0,0.5-0.2,0.5-0.5S22.8,24,22.5,24h-7C15.2,24,15,24.2,15,24.5z"/>
		<path fill="#FFFFFF" d="M11.5,29h7c0.3,0,0.5-0.2,0.5-0.5S18.8,28,18.5,28h-7c-0.3,0-0.5,0.2-0.5,0.5S11.2,29,11.5,29z"/>
		<path fill="#FFFFFF" d="M19,20.5c0,0.3,0.2,0.5,0.5,0.5h3c0.3,0,0.5-0.2,0.5-0.5S22.8,20,22.5,20h-3C19.2,20,19,20.2,19,20.5z"/>
		<path fill="#FFFFFF" d="M16.5,18h5c0.3,0,0.5-0.2,0.5-0.5S21.8,17,21.5,17h-5c-0.3,0-0.5,0.2-0.5,0.5S16.2,18,16.5,18z"/>
		<path fill="#FFFFFF" d="M11.5,25h2c0.3,0,0.5-0.2,0.5-0.5S13.8,24,13.5,24h-2c-0.3,0-0.5,0.2-0.5,0.5S11.2,25,11.5,25z"/>
		<path fill="#FFFFFF" d="M22.5,30h-2c-0.3,0-0.5,0.2-0.5,0.5s0.2,0.5,0.5,0.5h2c0.3,0,0.5-0.2,0.5-0.5S22.8,30,22.5,30z"/>
		<path fill="#FFFFFF" d="M24.5,29h1c0.3,0,0.5-0.2,0.5-0.5S25.8,28,25.5,28h-1c-0.3,0-0.5,0.2-0.5,0.5S24.2,29,24.5,29z"/>
		<path fill="#FFFFFF" d="M16.5,37h-1c-0.3,0-0.5,0.2-0.5,0.5s0.2,0.5,0.5,0.5h1c0.3,0,0.5-0.2,0.5-0.5S16.8,37,16.5,37z"/>
		<path fill="#FFFFFF" d="M18.5,30h-1c-0.3,0-0.5,0.2-0.5,0.5s0.2,0.5,0.5,0.5h1c0.3,0,0.5-0.2,0.5-0.5S18.8,30,18.5,30z"/>
		<path fill="#FFFFFF" d="M13.5,37h-2c-0.3,0-0.5,0.2-0.5,0.5s0.2,0.5,0.5,0.5h2c0.3,0,0.5-0.2,0.5-0.5S13.8,37,13.5,37z"/>
		<path fill="#FFFFFF" d="M22.5,28h-2c-0.3,0-0.5,0.2-0.5,0.5s0.2,0.5,0.5,0.5h2c0.3,0,0.5-0.2,0.5-0.5S22.8,28,22.5,28z"/>
		<path fill="#FFFFFF" d="M24,31c-1,0-1.9,0.4-2.6,1h-1.9c-0.3,0-0.5,0.2-0.5,0.5s0.2,0.5,0.5,0.5h1.1c-0.3,0.6-0.6,1.3-0.6,2
			c0,2.2,1.8,4,4,4s4-1.8,4-4S26.2,31,24,31z M24,37c-1.1,0-2-0.9-2-2s0.9-2,2-2s2,0.9,2,2S25.1,37,24,37z"/>
		<circle fill="#FFFFFF" cx="24" cy="35" r="1"/>
		<path fill="#FFFFFF" d="M40,15.5v-4.2c0-0.4,0.2-0.8,0.4-1.1l1.8-1.8C42.7,8,43,7.3,43,6.7V4.9c0.6-0.2,1-0.8,1-1.4
			C44,2.7,43.3,2,42.5,2S41,2.7,41,3.5c0,0.7,0.4,1.2,1,1.4v1.8c0,0.4-0.2,0.8-0.4,1.1l-1.8,1.8C39.3,10,39,10.7,39,11.3v3.6
			c-0.6-0.3-1.3-0.6-2-0.7V9.9c0.6-0.2,1-0.8,1-1.4C38,7.7,37.3,7,36.5,7S35,7.7,35,8.5c0,0.7,0.4,1.2,1,1.4v4.2
			c-0.3,0-0.7-0.1-1-0.1c-1.1,0-2.1,0.2-3,0.5V8c0-1.7-1.3-3-3-3h-2V4c0-1.7-1.3-3-3-3s-3,1.3-3,3v1H3C1.3,5,0,6.3,0,8v32
			c0,1.7,1.3,3,3,3h26c1.7,0,3-1.3,3-3v-8.5c0.9,0.3,1.9,0.5,3,0.5v6.1c-0.6,0.2-1,0.8-1,1.4c0,0.8,0.7,1.5,1.5,1.5s1.5-0.7,1.5-1.5
			c0-0.7-0.4-1.2-1-1.4v-6.2c0.7-0.1,1.4-0.2,2-0.5v2.2c0,0.7,0.3,1.3,0.7,1.8l1.8,1.8c0.3,0.3,0.4,0.7,0.4,1.1v1.8
			c-0.6,0.2-1,0.8-1,1.4c0,0.8,0.7,1.5,1.5,1.5s1.5-0.7,1.5-1.5c0-0.7-0.4-1.2-1-1.4v-1.8c0-0.7-0.3-1.3-0.7-1.8l-1.8-1.8
			C39.1,34.4,39,34,39,33.6V31c3-1.5,5-4.5,5-8.1C44,19.9,42.4,17.1,40,15.5z M42.5,3C42.8,3,43,3.2,43,3.5S42.8,4,42.5,4
			S42,3.8,42,3.5S42.2,3,42.5,3z M41.5,41c0.3,0,0.5,0.2,0.5,0.5S41.8,42,41.5,42S41,41.8,41,41.5S41.2,41,41.5,41z M36.5,8
			C36.8,8,37,8.2,37,8.5S36.8,9,36.5,9S36,8.8,36,8.5S36.2,8,36.5,8z M23,4c0-0.6,0.4-1,1-1s1,0.4,1,1v1h-2V4z M3,41
			c-0.6,0-1-0.4-1-1V8c0-0.6,0.4-1,1-1h0.2C3.1,7.3,3,7.6,3,8v32c0,0.4,0.1,0.7,0.2,1H3z M6.2,41H6c-0.6,0-1-0.4-1-1V8
			c0-0.6,0.4-1,1-1h6.6l-5.7,5.7C6.3,13.3,6,14,6,14.8V40C6,40.4,6.1,40.7,6.2,41z M14,8.4V12c0,0.6-0.4,1-1,1H9.4L14,8.4z M30,40
			c0,0.6-0.4,1-1,1H9c-0.6,0-1-0.4-1-1V16c0-0.6,0.4-1,1-1h4c1.7,0,3-1.3,3-3V8c0-0.6,0.4-1,1-1h8v6c0,0.6-0.4,1-1,1s-1-0.4-1-1v-3
			c0-0.6-0.4-1-1-1s-1,0.4-1,1v3c0,1.7,1.3,3,3,3s3-1.3,3-3V7h2c0.6,0,1,0.4,1,1v7.5c-2.1,1.4-3.6,3.8-3.9,6.5h-5.6
			c-0.3,0-0.5,0.2-0.5,0.5s0.2,0.5,0.5,0.5H26c0,0.3,0,0.7,0.1,1h-1.6c-0.3,0-0.5,0.2-0.5,0.5s0.2,0.5,0.5,0.5h1.7
			c0.5,2.3,1.9,4.2,3.8,5.5V40z M35.5,40c-0.3,0-0.5-0.2-0.5-0.5s0.2-0.5,0.5-0.5s0.5,0.2,0.5,0.5S35.8,40,35.5,40z M35,30
			c-3.9,0-7-3.1-7-7s3.1-7,7-7s7,3.1,7,7S38.9,30,35,30z"/>
		<path fill="#FFFFFF" d="M38,22v-2c0-1.7-1.3-3-3-3s-3,1.3-3,3v2c-0.6,0-1,0.4-1,1v4c0,0.6,0.4,1,1,1h6c0.6,0,1-0.4,1-1v-4
			C39,22.4,38.6,22,38,22z M35,26c-0.6,0-1-0.4-1-1s0.4-1,1-1s1,0.4,1,1S35.6,26,35,26z M36,22h-2v-2c0-0.6,0.4-1,1-1s1,0.4,1,1V22z
			"/>
	</g>
</g>
</svg>
