<svg xmlns="http://www.w3.org/2000/svg" viewBox="0 0 152.14 208.5"><defs><style>.cls-1{fill:#fff;}.cls-2,.cls-3{fill:#2a45c2;}.cls-3{stroke:#2a45c2;stroke-miterlimit:10;}</style></defs><title>MultiBox</title><g id="Для_приложения" data-name="Для приложения"><path class="cls-1" d="M1375.64,660.41a13,13,0,1,1,13-13A13,13,0,0,1,1375.64,660.41Z" transform="translate(-1355.11 -607)"/><path class="cls-2" d="M1375.64,638a9.47,9.47,0,1,1-9.47,9.47,9.48,9.48,0,0,1,9.47-9.47m0-7a16.47,16.47,0,1,0,16.47,16.47A16.47,16.47,0,0,0,1375.64,631Z" transform="translate(-1355.11 -607)"/><path class="cls-1" d="M1485,645.93a17.72,17.72,0,1,1,17.71-17.72A17.74,17.74,0,0,1,1485,645.93Z" transform="translate(-1355.11 -607)"/><path class="cls-2" d="M1485,614a14.22,14.22,0,1,1-14.22,14.22A14.23,14.23,0,0,1,1485,614m0-7a21.22,21.22,0,1,0,21.22,21.22A21.22,21.22,0,0,0,1485,607Z" transform="translate(-1355.11 -607)"/><path class="cls-1" d="M1431.68,693.46a30.73,30.73,0,1,1,30.73-30.73A30.77,30.77,0,0,1,1431.68,693.46Z" transform="translate(-1355.11 -607)"/><path class="cls-2" d="M1431.68,635.5a27.23,27.23,0,1,1-27.23,27.23,27.26,27.26,0,0,1,27.23-27.23m0-7a34.23,34.23,0,1,0,34.23,34.23,34.23,34.23,0,0,0-34.23-34.23Z" transform="translate(-1355.11 -607)"/></g><g id="Слой_13" data-name="Слой 13"><path class="cls-3" d="M1476.33,683.56c-1.82-.71-3.65-1.4-5.46-2.13s-2.62-2.07-2.07-3.65,2.1-2.24,4-1.57c2.72.94,5.42,1.92,8.13,2.88a16.82,16.82,0,0,0,3.74,1.41l17.84,6.6c1.2.59,2.59.82,3.58,1.82a6.35,6.35,0,0,1,.51,3q0,9.45.09,18.9a40.64,40.64,0,0,0,0,6.58c0,5.2-.11,10.4-.11,15.61,0,3-.17,6,.11,8.93a13,13,0,0,0,0,4c0,1.35-.12,2.7-.12,4.05q0,10.08.09,20.16a36.4,36.4,0,0,0,0,6.25c0,1.85-.09,3.7-.12,5.54,0,2.41-.44,3-2.66,3.93l-11.61,4.74-10.08,4.12c-6.05,2.41-12.12,4.79-18.16,7.23-6.95,2.81-13.88,5.67-20.81,8.51a59.08,59.08,0,0,0-7.21,2.92l-4.25,1.65h-1.64c-3.46-1.81-7.19-3-10.75-4.52-1.29-.56-2.63-1-3.95-1.52l-4-1.59c-5.61-2.41-11.25-4.72-17-6.84a28,28,0,0,0-4.61-1.88l-16.66-6.76-4.3-1.73c-3.19-1.31-6.32-2.78-9.58-3.89-2.54-.87-3.95-2.26-3.74-5a40.36,40.36,0,0,0,0-6.56c0-3.9.11-7.8.11-11.7,0-3.74-.06-7.48-.09-11.21a40.18,40.18,0,0,0,0-6.55c0-3.79.11-7.59.11-11.38s-.06-7.7-.09-11.55a40.18,40.18,0,0,0,0-6.55c0-3.79.11-7.59.11-11.38s-.06-7.7-.09-11.55c0-.37.09-.74.1-1.11,0-2.63.42-3.19,2.94-4.13l3.61-1.37c8.95-3.28,17.9-6.54,26.84-9.85,1.63-.6,3.05-.7,4.22.82.77,2.29.25,3.42-2,4.31l-3.74,1.49c-3.78,1.35-7.56,2.69-11.32,4.06-3.22,1.17-6.42,2.38-10,3.72l10.54,4.1,4.29,1.79c5.54,2.27,11.05,4.63,16.69,6.67a19.08,19.08,0,0,0,4.12,1.68c5.56,2.41,11.17,4.69,16.85,6.8a21.27,21.27,0,0,0,4.23,1.72l7.62,3.19a1.57,1.57,0,0,0,1.26,0l19.68-8.07,10.45-4.16,34.22-13.76L1480,684.94A16.22,16.22,0,0,0,1476.33,683.56ZM1428.28,797a39.58,39.58,0,0,0,0-6.22c.19-7.75.16-15.51,0-23.26a39.58,39.58,0,0,0,0-6.22c.19-7.75.16-15.51,0-23.26a39.58,39.58,0,0,0,0-6.22c0-3.05.07-6.1.11-9.15a1,1,0,0,0-.73-1.09c-3-1.16-6.07-2.38-9.1-3.57l-5-2.06-16-6.42a23.33,23.33,0,0,0-4.22-1.72l-17.1-6.94-4-1.6-10.75-4.46v14.42a48.48,48.48,0,0,0,0,6.22c-.15,7.75-.13,15.5,0,23.25a48.48,48.48,0,0,0,0,6.22c-.15,7.75-.13,15.5,0,23.25a48.48,48.48,0,0,0,0,6.22c0,1.95,0,3.9-.09,5.84a1,1,0,0,0,.76,1.07c3.92,1.52,7.83,3.08,11.75,4.63a27.49,27.49,0,0,0,4.61,1.87l16.66,6.76,4.3,1.72,16.67,6.72a19.31,19.31,0,0,0,3.9,1.54l7.49,3.16c.82.35.92-.07.91-.74C1428.33,803.63,1428.31,800.31,1428.28,797ZM1439,719.92c-.85.32-1.71.62-2.55,1-2.65,1.06-2.65,1.07-2.37,4.06a39.63,39.63,0,0,0,0,6.22c-.19,7.75-.16,15.51,0,23.26a39.62,39.62,0,0,0,0,6.22c-.19,7.75-.16,15.51,0,23.26a39.62,39.62,0,0,0,0,6.22q-.05,8.47-.11,16.95c0,1.08.53.79,1.14.54l10.22-4.18,10.07-4.11c6.31-2.51,12.62-5,18.92-7.55,6.7-2.71,13.37-5.46,20.06-8.2,1.11-.41,2.22-.8,3.31-1.24,3.57-1.43,3.56-1.43,3.23-5.3.15-7.75.13-15.5,0-23.25a48.4,48.4,0,0,0,0-6.22c.15-7.75.13-15.5,0-23.25a48.4,48.4,0,0,0,0-6.22q0-11.13.1-22.25c0-.77-.22-1-.93-.65l-1.15.58c-3.55,1.21-7,2.7-10.44,4.16-7.09,2.85-14.19,5.68-21.28,8.55-5.92,2.4-11.83,4.84-17.74,7.26C1445.93,716.94,1442.46,718.4,1439,719.92Z" transform="translate(-1355.11 -607)"/></g></svg>