<?xml version="1.0" encoding="UTF-8" standalone="no"?>
<!-- Generator: Adobe Illustrator 21.0.0, SVG Export Plug-In . SVG Version: 6.00 Build 0)  -->

<svg
   xmlns:dc="http://purl.org/dc/elements/1.1/"
   xmlns:cc="http://creativecommons.org/ns#"
   xmlns:rdf="http://www.w3.org/1999/02/22-rdf-syntax-ns#"
   xmlns:svg="http://www.w3.org/2000/svg"
   xmlns="http://www.w3.org/2000/svg"
   xmlns:sodipodi="http://sodipodi.sourceforge.net/DTD/sodipodi-0.dtd"
   xmlns:inkscape="http://www.inkscape.org/namespaces/inkscape"
   version="1.1"
   id="Слой_1"
   x="0px"
   y="0px"
   viewBox="0 0 215.03763 147.925"
   enable-background="new 0 0 500 500"
   xml:space="preserve"
   inkscape:version="0.91 r13725"
   sodipodi:docname="arrow-left-white.svg"
   width="215.03763"
   height="147.925"><metadata
     id="metadata3347"><rdf:RDF><cc:Work
         rdf:about=""><dc:format>image/svg+xml</dc:format><dc:type
           rdf:resource="http://purl.org/dc/dcmitype/StillImage" /><dc:title></dc:title></cc:Work></rdf:RDF></metadata><defs
     id="defs3345" /><sodipodi:namedview
     pagecolor="#ffffff"
     bordercolor="#666666"
     borderopacity="1"
     objecttolerance="10"
     gridtolerance="10"
     guidetolerance="10"
     inkscape:pageopacity="0"
     inkscape:pageshadow="2"
     inkscape:window-width="690"
     inkscape:window-height="480"
     id="namedview3343"
     showgrid="false"
     fit-margin-top="0"
     fit-margin-left="0"
     fit-margin-right="0"
     fit-margin-bottom="0"
     inkscape:zoom="1.7"
     inkscape:cx="108.03762"
     inkscape:cy="73.825"
     inkscape:window-x="0"
     inkscape:window-y="0"
     inkscape:window-maximized="1"
     inkscape:current-layer="Слой_1" /><g
     id="g3337"
     transform="translate(-141.96238,-175.9)"><g
       id="g3339"><path
         d="m 144.9,256.9 64,64 c 3.9,3.9 10.2,3.9 14.1,0 3.9,-3.9 3.9,-10.2 0,-14.1 l -46.9,-46.9 170.9,0 c 5.5,0 10,-4.5 10,-10 0,-5.5 -4.5,-10 -10,-10 l -170.9,0 46.9,-47 c 3.9,-3.9 3.9,-10.2 0,-14.1 -2,-2 -4.5,-2.9 -7.1,-2.9 -2.6,0 -5.1,1 -7.1,2.9 l -64,64 c -3.8,3.9 -3.8,10.2 0.1,14.1 l 0,0 z"
         id="path3341"
         inkscape:connector-curvature="0"
         style="fill:#ffffff" /></g></g></svg>