<?xml version="1.0" encoding="UTF-8" standalone="no"?>
<!-- Generator: Adobe Illustrator 21.0.0, SVG Export Plug-In . SVG Version: 6.00 Build 0)  -->

<svg
   xmlns:dc="http://purl.org/dc/elements/1.1/"
   xmlns:cc="http://creativecommons.org/ns#"
   xmlns:rdf="http://www.w3.org/1999/02/22-rdf-syntax-ns#"
   xmlns:svg="http://www.w3.org/2000/svg"
   xmlns="http://www.w3.org/2000/svg"
   xmlns:sodipodi="http://sodipodi.sourceforge.net/DTD/sodipodi-0.dtd"
   xmlns:inkscape="http://www.inkscape.org/namespaces/inkscape"
   version="1.1"
   id="Слой_5"
   x="0px"
   y="0px"
   viewBox="0 0 23.414474 35.700001"
   enable-background="new 0 0 30 41"
   xml:space="preserve"
   inkscape:version="0.91 r13725"
   sodipodi:docname="bts-onboarding.svg"
   width="23.414474"
   height="35.700001"><metadata
     id="metadata3368"><rdf:RDF><cc:Work
         rdf:about=""><dc:format>image/svg+xml</dc:format><dc:type
           rdf:resource="http://purl.org/dc/dcmitype/StillImage" /><dc:title></dc:title></cc:Work></rdf:RDF></metadata><defs
     id="defs3366" /><sodipodi:namedview
     pagecolor="#ffffff"
     bordercolor="#666666"
     borderopacity="1"
     objecttolerance="10"
     gridtolerance="10"
     guidetolerance="10"
     inkscape:pageopacity="0"
     inkscape:pageshadow="2"
     inkscape:window-width="640"
     inkscape:window-height="480"
     id="namedview3364"
     showgrid="false"
     fit-margin-top="0"
     fit-margin-left="0"
     fit-margin-right="0"
     fit-margin-bottom="0"
     inkscape:zoom="5.7560976"
     inkscape:cx="10.1"
     inkscape:cy="18.7"
     inkscape:window-x="0"
     inkscape:window-y="0"
     inkscape:window-maximized="0"
     inkscape:current-layer="Слой_5" /><path
     d="m 19.5,5.9 c 0.1,0 0.1,0 0,0 0.1,0 0.1,0 0,0 l 0,0 z"
     id="path3360"
     inkscape:connector-curvature="0"
     style="fill:#ffffff" /><path
     d="m 19.4,16.8 c 2,-1.3 3.1,-3.3 3.1,-5.5 0,-2.3 -1,-4.2 -3,-5.5 -1.4,-1 -3.1,-1.6 -5.4,-1.9 l 0,-3.9 -3.3,0 0,3.8 c -0.6,0 -1.2,0 -1.8,0 L 9,0 5.7,0 l 0,3.8 c -0.5,0 -0.9,0 -1.4,0 l -4.1,0 0,4.3 1.4,0 C 2.4,8.1 3,8.8 3,9.7 l 0,16 c 0,1 -0.7,1.7 -1.5,1.7 l -1.5,0 0,4.3 5.4,0 0,4 3.3,0 0,-3.9 c 0.4,0 0.7,0 1.1,0 0.2,0 0.4,0 0.7,0 l 0,3.9 3.3,0 0,-4.1 c 2.9,-0.4 5.1,-1.1 6.7,-2.4 1.9,-1.6 2.9,-3.6 2.9,-6 0.2,-3.1 -1.7,-5.2 -4,-6.4 z M 9.2,8.9 c 0.6,0 1.3,-0.1 2.1,-0.1 5.1,0 5.1,2.2 5.1,2.9 0,1 -0.6,1.7 -1.1,2.1 -0.9,0.7 -2.2,1 -3.8,1 L 9.3,14.8 9.2,8.9 Z M 11.1,27 c -0.8,0 -1.4,0 -1.9,0 l 0,-7.4 1.9,0 c 1.5,0 6.2,0.3 6.2,3.7 -0.1,3.3 -3.9,3.7 -6.2,3.7 z"
     id="path3362"
     inkscape:connector-curvature="0"
     style="fill:#ffffff" /></svg>