<?xml version="1.0" encoding="UTF-8" standalone="no"?>
<!-- Generator: Adobe Illustrator 21.0.0, SVG Export Plug-In . SVG Version: 6.00 Build 0)  -->

<svg
   xmlns:dc="http://purl.org/dc/elements/1.1/"
   xmlns:cc="http://creativecommons.org/ns#"
   xmlns:rdf="http://www.w3.org/1999/02/22-rdf-syntax-ns#"
   xmlns:svg="http://www.w3.org/2000/svg"
   xmlns="http://www.w3.org/2000/svg"
   xmlns:sodipodi="http://sodipodi.sourceforge.net/DTD/sodipodi-0.dtd"
   xmlns:inkscape="http://www.inkscape.org/namespaces/inkscape"
   version="1.1"
   id="Слой_5"
   x="0px"
   y="0px"
   viewBox="0 0 310.36264 138.30001"
   xml:space="preserve"
   inkscape:version="0.91 r13725"
   sodipodi:docname="bts-is-a-currency.svg"
   width="310.36264"
   height="138.3"><metadata
     id="metadata3357"><rdf:RDF><cc:Work
         rdf:about=""><dc:format>image/svg+xml</dc:format><dc:type
           rdf:resource="http://purl.org/dc/dcmitype/StillImage" /><dc:title></dc:title></cc:Work></rdf:RDF></metadata><defs
     id="defs3355" /><sodipodi:namedview
     pagecolor="#ffffff"
     bordercolor="#666666"
     borderopacity="1"
     objecttolerance="10"
     gridtolerance="10"
     guidetolerance="10"
     inkscape:pageopacity="0"
     inkscape:pageshadow="2"
     inkscape:window-width="640"
     inkscape:window-height="480"
     id="namedview3353"
     showgrid="false"
     fit-margin-top="0"
     fit-margin-left="0"
     fit-margin-right="0"
     fit-margin-bottom="0"
     inkscape:zoom="5.515625"
     inkscape:cx="154.26265"
     inkscape:cy="68.850002"
     inkscape:window-x="0"
     inkscape:window-y="0"
     inkscape:window-maximized="1"
     inkscape:current-layer="Слой_5" /><style
     type="text/css"
     id="style3337">
	.st0{fill:#FFFFFF;}
	.st1{opacity:0.1;fill:#FFFFFF;enable-background:new    ;}
	.st2{fill:none;}
	.st3{opacity:0.54;fill:#FFFFFF;enable-background:new    ;}
</style><path
     class="st0"
     d="M 24.762646,90 0.66264622,82.2 c -0.5,-0.2 -0.8,-0.7 -0.6,-1.3 0.2,-0.5 0.7,-0.8 1.29999998,-0.6 l 23.3999998,7.6 c 27.5,-9.5 42.1,-14.1 43.3,-13.6 1.6,0.5 43.700004,9.1 60.700004,12.6 l 15.9,-24.9 47.2,-2 13.9,-12 35,7.3 28.7,-18.1 39.2,-36.9 c 0.4,-0.4 1,-0.4 1.4,0 0.4,0.4 0.4,1 0,1.4 l -39.3,37.1 -29.5,18.6 -34.8,-7.2 -13.8,11.7 -46.8,2 -16.1,25.1 -0.7,-0.1 c -6,-1.2 -57.900004,-11.8 -61.500004,-12.7 -2.4,0.2 -27.3,8.5 -42.5,13.7 l -0.3,0.1 z m 42.7,-13.9 0,0 0,0 z"
     id="path3339"
     inkscape:connector-curvature="0"
     style="fill:#ffffff" /><path
     class="st1"
     d="m 270.06265,37.9 -29.1,18.3 -34.9,-7.3 -13.8,12 -47,2 -16,25 c 0,0 -60.000004,-12.2 -61.500004,-12.8 -1.5,-0.5 -43,13.8 -43,13.8 l -22.4999998,-7.3 0,53.8 c 0,1.6 1.3,2.9 2.9,2.9 l 297.2000038,0 c 1.6,0 2.9,-1.3 2.9,-2.9 l 0,-130.7 -35.2,33.2 z"
     id="path3341"
     inkscape:connector-curvature="0"
     style="opacity:0.1;fill:#ffffff;enable-background:new" /><path
     class="st2"
     d="m 270.06265,37.9 -29.1,18.3 -34.9,-7.3 -13.8,12 -47,2 -16,25 c 0,0 -60.000004,-12.2 -61.500004,-12.8 -1.5,-0.5 -43,13.8 -43,13.8 l -22.4999998,-7.3 0,53.8 c 0,1.6 1.3,2.9 2.9,2.9 l 297.2000038,0 c 1.6,0 2.9,-1.3 2.9,-2.9 l 0,-130.7 -35.2,33.2 z"
     id="path3343"
     inkscape:connector-curvature="0"
     style="fill:none" /><rect
     x="244.06265"
     y="54.699997"
     class="st3"
     width="0.5"
     height="82.900002"
     id="rect3345"
     style="opacity:0.54000005;fill:#ffffff;enable-background:new" /><rect
     x="183.46265"
     y="61.199997"
     class="st3"
     width="0.5"
     height="76.400002"
     id="rect3347"
     style="opacity:0.54000005;fill:#ffffff;enable-background:new" /><rect
     x="122.76265"
     y="86.400002"
     class="st3"
     width="0.5"
     height="51.200001"
     id="rect3349"
     style="opacity:0.54000005;fill:#ffffff;enable-background:new" /><rect
     x="62.162647"
     y="75.599998"
     class="st3"
     width="0.5"
     height="62"
     id="rect3351"
     style="opacity:0.54000005;fill:#ffffff;enable-background:new" /></svg>