<?xml version="1.0" encoding="utf-8"?>
<!-- Generator: Adobe Illustrator 21.0.0, SVG Export Plug-In . SVG Version: 6.00 Build 0)  -->
<svg version="1.1" id="Слой_5" xmlns="http://www.w3.org/2000/svg" xmlns:xlink="http://www.w3.org/1999/xlink" x="0px" y="0px"
	 viewBox="0 0 320 145.7" style="enable-background:new 0 0 320 145.7;" xml:space="preserve">
<style type="text/css">
	.st0{fill:#FFFFFF;}
	.st1{opacity:0.1;fill:#FFFFFF;enable-background:new    ;}
	.st2{fill:none;}
	.st3{opacity:0.54;fill:#FFFFFF;enable-background:new    ;}
</style>
<path class="st0" d="M30.5,93.4L6.4,85.6c-0.5-0.2-0.8-0.7-0.6-1.3c0.2-0.5,0.7-0.8,1.3-0.6l23.4,7.6C58,81.8,72.6,77.2,73.8,77.7
	c1.6,0.5,43.7,9.1,60.7,12.6l15.9-24.9l47.2-2l13.9-12l35,7.3l28.7-18.1l39.2-36.9c0.4-0.4,1-0.4,1.4,0s0.4,1,0,1.4l-39.3,37.1
	L247,60.8l-34.8-7.2l-13.8,11.7l-46.8,2l-16.1,25.1l-0.7-0.1c-6-1.2-57.9-11.8-61.5-12.7c-2.4,0.2-27.3,8.5-42.5,13.7L30.5,93.4z
	 M73.2,79.5L73.2,79.5L73.2,79.5z"/>
<path class="st1" d="M275.8,41.3l-29.1,18.3l-34.9-7.3l-13.8,12l-47,2l-16,25c0,0-60-12.2-61.5-12.8c-1.5-0.5-43,13.8-43,13.8L8,85
	v53.8c0,1.6,1.3,2.9,2.9,2.9h297.2c1.6,0,2.9-1.3,2.9-2.9V8.1L275.8,41.3z"/>
<path class="st2" d="M275.8,41.3l-29.1,18.3l-34.9-7.3l-13.8,12l-47,2l-16,25c0,0-60-12.2-61.5-12.8c-1.5-0.5-43,13.8-43,13.8L8,85
	v53.8c0,1.6,1.3,2.9,2.9,2.9h297.2c1.6,0,2.9-1.3,2.9-2.9V8.1L275.8,41.3z"/>
<rect x="249.8" y="58.1" class="st3" width="0.5" height="82.9"/>
<rect x="189.2" y="64.6" class="st3" width="0.5" height="76.4"/>
<rect x="128.5" y="89.8" class="st3" width="0.5" height="51.2"/>
<rect x="67.9" y="79" class="st3" width="0.5" height="62"/>
</svg>
