<?xml version="1.0" encoding="utf-8"?>
<!-- Generator: Adobe Illustrator 21.0.0, SVG Export Plug-In . SVG Version: 6.00 Build 0)  -->
<svg version="1.1" id="Слой_5" xmlns="http://www.w3.org/2000/svg" xmlns:xlink="http://www.w3.org/1999/xlink" x="0px" y="0px"
	 viewBox="0 0 30 41" enable-background="new 0 0 30 41" xml:space="preserve">
<path fill="#FFFFFF" d="M24.4,9.4C24.5,9.4,24.5,9.4,24.4,9.4C24.5,9.4,24.5,9.4,24.4,9.4L24.4,9.4z"/>
<path fill="#FFFFFF" d="M24.3,20.3c2-1.3,3.1-3.3,3.1-5.5c0-2.3-1-4.2-3-5.5c-1.4-1-3.1-1.6-5.4-1.9l0-3.9l-3.3,0l0,3.8
	c-0.6,0-1.2,0-1.8,0l0-3.8l-3.3,0l0,3.8c-0.5,0-0.9,0-1.4,0l-4.1,0l0,4.3l1.4,0c0.8,0,1.4,0.7,1.4,1.6l0,16c0,1-0.7,1.7-1.5,1.7
	l-1.5,0l0,4.3l5.4,0l0,4l3.3,0l0-3.9c0.4,0,0.7,0,1.1,0c0.2,0,0.4,0,0.7,0l0,3.9l3.3,0l0-4.1c2.9-0.4,5.1-1.1,6.7-2.4
	c1.9-1.6,2.9-3.6,2.9-6C28.5,23.6,26.6,21.5,24.3,20.3z M14.1,12.4c0.6,0,1.3-0.1,2.1-0.1c5.1,0,5.1,2.2,5.1,2.9
	c0,1-0.6,1.7-1.1,2.1c-0.9,0.7-2.2,1-3.8,1l-2.2,0L14.1,12.4z M16,30.5c-0.8,0-1.4,0-1.9,0l0-7.4l1.9,0c1.5,0,6.2,0.3,6.2,3.7
	C22.1,30.1,18.3,30.5,16,30.5z"/>
</svg>
