<?xml version="1.0" encoding="UTF-8" standalone="no"?>
<!-- Generator: Adobe Illustrator 21.0.0, SVG Export Plug-In . SVG Version: 6.00 Build 0)  -->

<svg
   xmlns:dc="http://purl.org/dc/elements/1.1/"
   xmlns:cc="http://creativecommons.org/ns#"
   xmlns:rdf="http://www.w3.org/1999/02/22-rdf-syntax-ns#"
   xmlns:svg="http://www.w3.org/2000/svg"
   xmlns="http://www.w3.org/2000/svg"
   xmlns:sodipodi="http://sodipodi.sourceforge.net/DTD/sodipodi-0.dtd"
   xmlns:inkscape="http://www.inkscape.org/namespaces/inkscape"
   version="1.1"
   id="Для_приложения"
   x="0px"
   y="0px"
   viewBox="0 0 152.32466 213.5"
   enable-background="new 0 0 187 223"
   xml:space="preserve"
   inkscape:version="0.91 r13725"
   sodipodi:docname="multi-box-white.svg"
   width="152.32466"
   height="213.5"><metadata
     id="metadata3386"><rdf:RDF><cc:Work
         rdf:about=""><dc:format>image/svg+xml</dc:format><dc:type
           rdf:resource="http://purl.org/dc/dcmitype/StillImage" /><dc:title></dc:title></cc:Work></rdf:RDF></metadata><defs
     id="defs3384" /><sodipodi:namedview
     pagecolor="#ffffff"
     bordercolor="#666666"
     borderopacity="1"
     objecttolerance="10"
     gridtolerance="10"
     guidetolerance="10"
     inkscape:pageopacity="0"
     inkscape:pageshadow="2"
     inkscape:window-width="640"
     inkscape:window-height="480"
     id="namedview3382"
     showgrid="false"
     fit-margin-top="0"
     fit-margin-left="0"
     fit-margin-right="0"
     fit-margin-bottom="0"
     inkscape:zoom="1.058296"
     inkscape:cx="77.424657"
     inkscape:cy="106"
     inkscape:window-x="0"
     inkscape:window-y="0"
     inkscape:window-maximized="0"
     inkscape:current-layer="Для_приложения" /><g
     id="Слой_13"
     transform="translate(-16.075343,-4)"><path
       d="m 168.2,147.8 c -0.2,-1.3 -0.2,-2.5 0,-3.8 l 0,-0.1 0,-0.1 c -0.2,-2.1 -0.2,-4.3 -0.1,-6.4 0,-0.8 0,-1.7 0,-2.5 0,-3.7 0,-7.4 0.1,-11.1 l 0,-4.6 c -0.2,-2 -0.2,-4.1 0,-6.5 l 0,-4.7 c 0,-4.7 -0.1,-9.5 -0.1,-14.2 0,-1 0,-2.2 -0.6,-3.2 l -0.1,-0.1 c -0.7,-0.8 -1.7,-1.1 -2.6,-1.4 -0.4,-0.1 -0.8,-0.3 -1.2,-0.5 L 145.8,82 c -1.2,-0.4 -2.5,-0.7 -3.7,-1.4 l -2.5,-0.9 c -1.9,-0.7 -3.8,-1.4 -5.7,-2 -2.2,-0.8 -4,0 -4.7,1.9 -0.6,1.9 0.2,3.4 2.4,4.3 1.3,0.5 2.6,1 3.9,1.5 l 1.6,0.6 0,0 c 1.4,0.4 2.5,0.7 3.6,1.4 l 14.9,5.3 -33,13.3 -10.5,4.2 -19.7,8.1 c -0.3,0.1 -0.6,0.1 -0.9,0 -2,-0.8 -4,-1.7 -6,-2.5 l -1.7,-0.7 c -1.5,-0.5 -2.9,-1 -4.2,-1.7 -5.4,-2 -10.9,-4.2 -16.9,-6.8 -1.6,-0.5 -2.9,-1 -4.1,-1.7 -4.4,-1.6 -8.9,-3.4 -13.2,-5.2 -1.2,-0.5 -2.3,-1 -3.5,-1.4 l -3.9,-1.9 -9.3,-3.6 2,-0.7 c 2.4,-0.9 4.6,-1.7 6.8,-2.5 2.6,-1 5.3,-1.9 7.9,-2.9 l 3.4,-1.2 3.7,-1.5 c 2.5,-1 3.1,-2.4 2.3,-4.9 L 54.7,79 c -1.5,-1.9 -3.3,-1.5 -4.8,-1 -6.6,2.4 -13.1,4.8 -19.7,7.2 l -7.2,2.6 -1,0.4 c -0.8,0.3 -1.6,0.6 -2.5,0.9 -2.7,1 -3.2,1.7 -3.3,4.6 0,0.2 0,0.5 -0.1,0.7 l 0,0.4 0,3.5 c 0,2.7 0.1,5.3 0.1,8 0,2.7 0,5.3 -0.1,8 l 0,3.5 c 0.2,2 0.2,4.1 0,6.5 l 0,3.5 c 0,2.7 0.1,5.3 0.1,8 0,2.6 0,5.2 -0.1,7.9 l 0,3.6 c 0.2,2 0.2,4.1 0,6.5 l 0,3.4 c 0,2.6 0.1,5.2 0.1,7.8 0,2.7 0,5.4 -0.1,8.1 l 0,3.6 c 0.2,2 0.2,4.1 0,6.5 -0.3,3.6 2.2,4.9 4.1,5.5 2.3,0.8 4.5,1.7 6.7,2.7 1,0.4 1.9,0.8 2.9,1.2 l 21,8.5 c 1.6,0.5 3.1,1.1 4.6,1.9 5.2,1.9 10.7,4.2 17,6.8 l 4,1.6 c 0.4,0.2 0.8,0.3 1.2,0.5 0.9,0.3 1.8,0.7 2.7,1 1.4,0.6 2.8,1.1 4.1,1.7 2.2,0.8 4.5,1.7 6.6,2.8 l 0.1,0.1 1.9,0 4.4,-1.7 c 2.2,-1.1 4.5,-2 7.2,-2.9 l 6.2,-2.6 c 4.9,-2 9.7,-4 14.6,-6 4.2,-1.7 8.4,-3.3 12.6,-5 l 5.6,-2.2 21.7,-8.9 c 2.4,-1 2.9,-1.8 3,-4.4 0,-1.3 0,-2.6 0.1,-3.9 l 0,-1.7 c -0.2,-1.9 -0.2,-3.9 0,-6.2 l 0,-5.7 c 0,-4.8 -0.1,-9.7 -0.1,-14.5 0,-0.9 0,-1.8 0.1,-2.8 -0.2,-0.2 -0.2,-0.7 -0.2,-1.2 z m -79.4,21.7 c 0.2,8.9 0.2,16.2 0,23.3 0.2,1.9 0.2,3.9 0,6.1 l 0,0 0,2.6 c 0,2.5 0,4.9 0.1,7.4 0,0.2 0,0.3 0,0.3 0,0 -0.1,0 -0.2,-0.1 -1.8,-0.8 -3.6,-1.5 -5.4,-2.3 l -2.2,-0.9 c -1.4,-0.3 -2.7,-1 -3.8,-1.5 L 39.6,189.2 C 38,188.7 36.5,188.1 35,187.3 l -2.9,-1.1 c -3,-1.2 -5.9,-2.3 -8.9,-3.5 -0.4,-0.2 -0.4,-0.3 -0.4,-0.6 0,-1.4 0.1,-2.9 0.1,-4.3 l 0,-1.6 c -0.1,-1.9 -0.1,-4 0,-6.2 -0.1,-8.5 -0.1,-16.1 0,-23.3 -0.1,-1.9 -0.1,-4 0,-6.2 -0.1,-8.5 -0.1,-16.1 0,-23.3 -0.1,-1.9 -0.1,-4 0,-6.2 l 0,-13.5 10.1,4.2 21.2,8.5 c 1.7,0.5 3,1.1 4.2,1.7 l 16,6.4 5,2.1 2.3,0.9 c 2.3,0.9 4.5,1.8 6.8,2.7 0.3,0.1 0.4,0.2 0.4,0.6 0,2.2 -0.1,4.5 -0.1,6.7 l 0,2.5 c 0.2,1.9 0.2,3.9 0,6.2 0.2,8.9 0.2,16.2 0,23.3 0.1,1.9 0.1,3.9 0,6.2 z m 6.8,16.4 c -0.2,-8.6 -0.2,-16.2 0,-23.3 -0.2,-1.9 -0.2,-3.9 0,-6.2 -0.2,-8.6 -0.2,-16.2 0,-23.3 -0.2,-1.9 -0.2,-3.9 0,-6.2 -0.2,-2.6 -0.2,-2.6 2.1,-3.5 0.6,-0.2 1.1,-0.4 1.7,-0.6 l 0.9,-0.3 c 3,-1.3 6.7,-2.9 10.5,-4.2 l 5.6,-2.3 c 4.1,-1.7 8.1,-3.3 12.2,-5 5,-2 9.9,-4 14.9,-6 l 6.4,-2.6 0.9,-0.4 c 3.1,-1.3 6.3,-2.7 9.6,-3.8 l 1.1,-0.6 c 0.1,0 0.1,-0.1 0.2,-0.1 0,0.1 0,0.1 0,0.3 0,6 -0.1,12 -0.1,17.9 l 0,4.3 c 0.1,1.9 0.1,3.9 0,6.2 0.1,8.7 0.1,16.3 0,23.3 0.1,1.9 0.1,3.9 0,6.2 0.1,8.7 0.1,16.3 0,23.3 0.3,3.5 0.3,3.5 -2.9,4.8 -0.8,0.3 -1.5,0.6 -2.3,0.9 l -7.1,2.9 c -4.7,1.9 -9.3,3.8 -14,5.7 -4.4,1.8 -8.7,3.5 -13.1,5.2 l -5.8,2.3 -12.4,5.1 c -2.6,1.1 -5.3,2.2 -7.9,3.2 l -0.1,0 c -0.1,0 -0.2,0.1 -0.3,0.1 0,-0.1 0,-0.1 0,-0.2 0,-4.2 0.1,-8.5 0.1,-12.7 l 0,-4.3 c -0.4,-1.9 -0.4,-3.9 -0.2,-6.1 z"
       id="path3372"
       inkscape:connector-curvature="0"
       style="fill:#ffffff" /><g
       id="g3374"><path
         d="M 35.9,28 C 26.8,28 19.4,35.4 19.4,44.5 19.4,53.6 26.8,61 35.9,61 45,61 52.4,53.6 52.4,44.5 52.4,35.4 45,28 35.9,28 Z m 0,26 c -5.3,0 -9.5,-4.2 -9.5,-9.5 0,-5.3 4.3,-9.5 9.5,-9.5 5.2,0 9.5,4.2 9.5,9.5 0,5.2 -4.2,9.5 -9.5,9.5 z"
         id="path3376"
         inkscape:connector-curvature="0"
         style="fill:#ffffff" /></g><path
       d="m 145.2,11 c 7.8,0 14.2,6.4 14.2,14.2 0,7.8 -6.4,14.2 -14.2,14.2 -7.8,0 -14.2,-6.3 -14.2,-14.2 0,-7.9 6.4,-14.2 14.2,-14.2 m 0,-7 C 133.5,4 124,13.5 124,25.2 c 0,11.7 9.5,21.2 21.2,21.2 11.7,0 21.2,-9.5 21.2,-21.2 C 166.4,13.5 156.9,4 145.2,4 l 0,0 z"
       id="path3378"
       inkscape:connector-curvature="0"
       style="fill:#ffffff" /><path
       d="m 92.2,37.5 c 15,0 27.2,12.2 27.2,27.2 0,15 -12.2,27.3 -27.2,27.3 C 77.2,92 65,79.7 65,64.7 65,49.7 77.2,37.5 92.2,37.5 m 0,-7 C 73.3,30.5 58,45.8 58,64.7 58,83.6 73.3,99 92.2,99 c 18.9,0 34.2,-15.3 34.2,-34.2 0,-18.9 -15.3,-34.3 -34.2,-34.3 l 0,0 z"
       id="path3380"
       inkscape:connector-curvature="0"
       style="fill:#ffffff" /></g></svg>