<?xml version="1.0" encoding="UTF-8" standalone="no"?>
<!-- Generator: Adobe Illustrator 21.0.0, SVG Export Plug-In . SVG Version: 6.00 Build 0)  -->

<svg
   xmlns:dc="http://purl.org/dc/elements/1.1/"
   xmlns:cc="http://creativecommons.org/ns#"
   xmlns:rdf="http://www.w3.org/1999/02/22-rdf-syntax-ns#"
   xmlns:svg="http://www.w3.org/2000/svg"
   xmlns="http://www.w3.org/2000/svg"
   xmlns:sodipodi="http://sodipodi.sourceforge.net/DTD/sodipodi-0.dtd"
   xmlns:inkscape="http://www.inkscape.org/namespaces/inkscape"
   version="1.1"
   id="Слой_8"
   x="0px"
   y="0px"
   viewBox="0 0 111.2 110.5"
   enable-background="new 0 0 134 137"
   xml:space="preserve"
   inkscape:version="0.91 r13725"
   sodipodi:docname="no-backup-no-btc.svg"
   width="111.2"
   height="110.5"><metadata
     id="metadata3409"><rdf:RDF><cc:Work
         rdf:about=""><dc:format>image/svg+xml</dc:format><dc:type
           rdf:resource="http://purl.org/dc/dcmitype/StillImage" /><dc:title></dc:title></cc:Work></rdf:RDF></metadata><defs
     id="defs3407" /><sodipodi:namedview
     pagecolor="#ffffff"
     bordercolor="#666666"
     borderopacity="1"
     objecttolerance="10"
     gridtolerance="10"
     guidetolerance="10"
     inkscape:pageopacity="0"
     inkscape:pageshadow="2"
     inkscape:window-width="640"
     inkscape:window-height="480"
     id="namedview3405"
     showgrid="false"
     fit-margin-top="0"
     fit-margin-left="0"
     fit-margin-right="0"
     fit-margin-bottom="0"
     inkscape:zoom="1.7226277"
     inkscape:cx="54.8"
     inkscape:cy="56.8"
     inkscape:window-x="0"
     inkscape:window-y="0"
     inkscape:window-maximized="0"
     inkscape:current-layer="Слой_8" /><path
     d="m 92.4,1.2 c 1.6,0 3.2,0.6 4.3,1.8 l 11.7,11.7 c 1.2,1.2 1.8,2.7 1.8,4.3 l 0,90.6 -109.2,0 0,-108.4 91.4,0 m 0,-1 -92.4,0 0,110.3 111.2,0 0,-91.5 c 0,-1.9 -0.7,-3.7 -2.1,-5 L 97.4,2.3 C 96,0.9 94.2,0.2 92.4,0.2 l 0,0 z"
     id="path3389"
     inkscape:connector-curvature="0"
     style="fill:#ffffff" /><path
     d="m 77.8,46 -44.5,0 c -3.6,0 -6.5,-2.9 -6.5,-6.5 l 0,-39 C 26.8,0.2 27,0 27.3,0 L 84,0 c 0.3,0 0.5,0.2 0.5,0.5 l 0,39 C 84.4,43.1 81.4,46 77.8,46 Z M 27.7,1 l 0,38.5 c 0,3.1 2.5,5.5 5.5,5.5 l 44.6,0 c 3.1,0 5.5,-2.5 5.5,-5.5 L 83.3,1 27.7,1 Z"
     id="path3391"
     inkscape:connector-curvature="0"
     style="fill:#ffffff" /><rect
     x="14.599999"
     y="61.500004"
     width="82"
     height="40.700001"
     id="rect3393"
     style="opacity:0.15;fill:#ffffff" /><path
     d="m 87.8,82 -64.7,0 c -0.3,0 -0.5,-0.2 -0.5,-0.5 0,-0.3 0.2,-0.5 0.5,-0.5 l 64.7,0 c 0.3,0 0.5,0.2 0.5,0.5 0,0.3 -0.2,0.5 -0.5,0.5 z"
     id="path3395"
     inkscape:connector-curvature="0"
     style="fill:#ffffff" /><path
     d="m 87.8,71.4 -64.7,0 c -0.3,0 -0.5,-0.2 -0.5,-0.5 0,-0.3 0.2,-0.5 0.5,-0.5 l 64.7,0 c 0.3,0 0.5,0.2 0.5,0.5 0,0.3 -0.2,0.5 -0.5,0.5 z"
     id="path3397"
     inkscape:connector-curvature="0"
     style="fill:#ffffff" /><path
     d="m 86.8,93 -62.7,0 c -0.3,0 -0.5,-0.2 -0.5,-0.5 0,-0.3 0.2,-0.5 0.5,-0.5 l 62.7,0 c 0.3,0 0.5,0.2 0.5,0.5 0,0.3 -0.2,0.5 -0.5,0.5 z"
     id="path3399"
     inkscape:connector-curvature="0"
     style="fill:#ffffff" /><path
     d="m 77.5,0.5 0,34 -16.4,0 0,-34 -33.9,0 0,39 c 0,3.3 2.7,6 6,6 l 44.6,0 c 3.3,0 6,-2.7 6,-6 l 0,-39 -6.3,0 z"
     id="path3401"
     inkscape:connector-curvature="0"
     style="opacity:0.15;fill:#ffffff" /><path
     d="m 77.5,35 -16.4,0 c -0.3,0 -0.5,-0.2 -0.5,-0.5 l 0,-34 C 60.6,0.2 60.8,0 61.1,0 l 16.3,0 c 0.3,0 0.5,0.2 0.5,0.5 l 0,34 C 78,34.8 77.7,35 77.5,35 Z m -15.9,-1 15.3,0 0,-33 -15.3,0 0,33 z"
     id="path3403"
     inkscape:connector-curvature="0"
     style="fill:#ffffff" /></svg>