<?xml version="1.0" encoding="utf-8"?>
<!-- Generator: Adobe Illustrator 21.0.0, SVG Export Plug-In . SVG Version: 6.00 Build 0)  -->
<svg version="1.1" id="Objects" xmlns="http://www.w3.org/2000/svg" xmlns:xlink="http://www.w3.org/1999/xlink" x="0px" y="0px"
	 viewBox="0 0 500 500" enable-background="new 0 0 500 500" xml:space="preserve">
<path fill="#FFFFFF" d="M325.4,430.2H168.5c-9.1,0-16.6-8.2-16.6-18.3V109.2c0-10.1,7.4-18.3,16.6-18.3h156.9
	c9.1,0,16.6,8.2,16.6,18.3v302.7C342,422,334.5,430.2,325.4,430.2z M168.5,92c-8.6,0-15.6,7.7-15.6,17.3v302.7
	c0,9.5,7,17.3,15.6,17.3h156.9c8.6,0,15.6-7.7,15.6-17.3V109.2c0-9.5-7-17.3-15.6-17.3H168.5z"/>
<path opacity="0.15" fill="#FFFFFF" d="M328.2,387H165.7c-1.6,0-3-1.4-3-3V134c0-1.6,1.4-3,3-3h162.5c1.6,0,3,1.4,3,3v250
	C331.2,385.6,329.9,387,328.2,387z"/>
<path fill="#FFFFFF" d="M262.7,116.5h-31.5c-1.8,0-3.3-1.5-3.3-3.3s1.5-3.3,3.3-3.3h31.5c1.8,0,3.3,1.5,3.3,3.3
	S264.5,116.5,262.7,116.5z M231.2,111c-1.2,0-2.3,1-2.3,2.3s1,2.3,2.3,2.3h31.5c1.2,0,2.3-1,2.3-2.3s-1-2.3-2.3-2.3H231.2z"/>
<path fill="#FFFFFF" d="M247,421c-6.9,0-12.5-5.6-12.5-12.5S240.1,396,247,396s12.5,5.6,12.5,12.5S253.8,421,247,421z M247,397
	c-6.3,0-11.5,5.2-11.5,11.5S240.6,420,247,420c6.3,0,11.5-5.2,11.5-11.5S253.3,397,247,397z"/>
<g>
	<path fill="#FFFFFF" d="M244.8,213.6c0-2.7,0-5.4,0-8.2c1.4,0,2.7,0,4.1,0c0,1.2,0,2.5,0,4.1c1.6,0,2.9,0,4.3,0l-0.1-0.1
		c0,4.2,0,8.4,0,12.6l0.1-0.1c-1.3,0-2.6,0-4.1,0c0,4.2,0,8.2,0,12.6c1.3,0,2.7,0,4.1,0l-0.1-0.1c0,1.4,0,2.8,0,4.2l0.1-0.1
		c-1.4,0-2.7,0-4.3,0c0,1.6,0,2.8,0,4.2c-2.9,0-5.6,0-8.3,0c0-1.4,0-2.7,0-4.1c-1.5,0-2.8,0-4.1,0c0,1.5,0,2.8,0,4.1
		c-1.4,0-2.7,0-4.3,0c0,4.3,0,8.4,0,12.4c-1.5,0-2.7,0-4.1,0c0-1.4,0-2.7,0-4.2c-2.9,0-5.6,0-8.2,0c0-1.5,0-2.7,0-4.1
		c1.4,0,2.7,0,3.9,0c0-1.5,0-2.8,0-4c-4.2,0-8.2,0-12.2,0c0,1.4,0,2.7,0,4.2c1.4,0,2.7,0,4.1,0c0,2.8,0,5.5,0,8.3c2.8,0,5.5,0,8.1,0
		c0,1.5,0,2.8,0,4.2c-1.4,0-2.6,0-3.9,0c0,1.4,0,2.7,0,3.9c2.8,0,5.5,0,8.3,0c0-1.4,0-2.6,0-3.9c1.4,0,2.7,0,4.1,0
		c0,2.8,0,5.5,0,8.2l0.1-0.1c-5.5,0-11,0-16.7,0c0,2.8,0,5.5,0,8.3c-1.4,0-2.7,0-4.1,0c0-4,0-8.1,0-12.4c1.2,0,2.5,0,3.9,0
		c0-1.4,0-2.7,0-4.1c-1.2,0-2.5,0-4,0c0-2.9,0-5.6,0-8.4c-1.4,0-2.7,0-4.1,0c0-1.4,0-2.7,0-4.3c-1.6,0-2.9,0-4.3,0l0.1,0.1
		c0-1.3,0-2.6,0-4.2c1.4,0,2.7,0,4.1,0c0-1.4,0-2.7,0-4.1c8.4,0,16.6,0,25.2,0c0-1.6,0-2.9,0-4.3l-0.1,0.1c1.4,0,2.7,0,4.2,0
		c0-1.6,0-2.9,0-4.2l-0.1,0.1c1.4,0,2.7,0,4.3,0c0,1.5,0,2.8,0,4.1c1.4,0,2.7,0,4,0c0-4.1,0-8.2,0-12.3c-1.4,0-2.6,0-4.1,0
		c0,1.4,0,2.7,0,4c-1.5,0-2.8,0-4.1,0l0.1,0.1c0-2.7,0-5.4,0-8.3c1.3,0,2.6,0,4.2,0c0-1.6,0-2.9,0-4.3l-0.1,0.1
		C242.1,213.6,243.5,213.5,244.8,213.6c0.1,1.3,0.1,2.7,0.1,4c1.5,0,2.8,0,4,0c0-1.4,0-2.7,0-4C247.4,213.6,246.1,213.6,244.8,213.6
		z"/>
	<path fill="#FFFFFF" d="M257.4,234.5c1.4,0,2.8,0,4.2,0l-0.1-0.1c0,4.1,0,8.2,0,12.5c1.4,0,2.7,0,4.1,0c0,1.4,0,2.7,0,4.1
		c1.4,0,2.7,0,4.2,0c0,1.6,0,2.9,0,4.3l0.1-0.1c-1.4,0-2.7,0-4.2,0c0,3,0,5.7,0,8.4l0.1-0.1c-1.4,0-2.7,0-4.3,0c0,1.6,0,2.9,0,4.3
		c-1.5,0-2.7,0-4.1,0c0,1.4,0,2.7,0,4.2c-2.9,0-5.6,0-8.4,0c0,1.5,0,2.7,0,4.1c-1.4,0-2.7,0-4.1,0c0,1.5,0,2.8,0,4.2l0.1-0.1
		c-2.7,0-5.5,0-8.4,0c0,2.9,0,5.6,0,8.5c-1.5,0-2.8,0-4.2,0c0,2.9,0,5.6,0,8.3l0.1-0.1c-1.3,0-2.6,0-4.2,0c0-6.9,0-13.8,0-20.8
		c-2.8,0-5.5,0-8.2,0c0-1.4,0-2.7,0-4.2c4.1,0,8.2,0,12.4,0l-0.1-0.1c0,1.4,0,2.7,0,4.1c1.6,0,2.8,0,4.2,0c0-1.4,0-2.8,0-4.1
		l-0.1,0.1c2.8,0,5.5,0,8.5,0c0-1.6,0-2.9,0-4.3c2.8,0,5.5,0,8.1,0c0-2.8,0-5.5,0-8.3c-1.4,0-2.8,0-4.1,0l0.1,0.1c0-1.4,0-2.7,0-4
		c2.9,0,5.6,0,8.4,0c0,1.4,0,2.6,0,3.9c1.4,0,2.7,0,4,0c0-2.8,0-5.5,0-8.3c-4.2,0-8.3,0-12.3,0c0-1.4,0-2.7,0-4.1c1.4,0,2.7,0,4.1,0
		c0-2.9,0-5.6,0-8.3l-0.1,0.1c1.4,0,2.7,0,4.2,0C257.4,237,257.4,235.7,257.4,234.5L257.4,234.5z"/>
	<path fill="#FFFFFF" d="M270,301.3c-2.7,0-5.4,0-8.4,0c0-1.4,0-2.8,0-4.2c1.4,0,2.7,0,4.1,0c0-1.5,0-2.8,0-4c-1.4,0-2.7,0-4,0
		c0,1.5,0,2.8,0,4.1c-1.3,0-2.6,0-4.2,0c0-4.3,0-8.5,0-12.6l-0.1,0.1c1.4,0,2.7,0,4.3,0c0-4.3,0-8.4,0-12.6c1.5,0,2.7,0,4.1,0
		c0-2.9,0-5.6,0-8.3l-0.1,0.1c1.4,0,2.7,0,4.3,0c0,1.5,0,2.8,0,4.2c2.9,0,5.6,0,8.3,0l-0.1-0.1c0,1.4,0,2.7,0,4.2c1.6,0,2.9,0,4.2,0
		l-0.1-0.1c0,6.9,0,13.9,0,21c-2.9,0-5.6,0-8.4,0c0,1.5,0,2.7,0,4.1c-1.4,0-2.7,0-4.1,0C269.9,298.7,269.9,300,270,301.3L270,301.3z
		 M265.8,288.7c4.2,0,8.2,0,12.3,0c0-4.2,0-8.2,0-12.3c-4.2,0-8.2,0-12.3,0C265.8,280.5,265.8,284.5,265.8,288.7z"/>
	<path fill="#FFFFFF" d="M223.8,234.4c-9.7,0-19.3,0-29,0c0-9.7,0-19.2,0-29c9.6,0,19.2,0,29,0C223.8,214.9,223.8,224.6,223.8,234.4
		z M219.6,230.2c0-7,0-13.8,0-20.6c-7,0-13.8,0-20.6,0c0,7,0,13.7,0,20.6C205.9,230.2,212.7,230.2,219.6,230.2z"/>
	<path fill="#FFFFFF" d="M299.1,205.4c0,9.7,0,19.3,0,29c-9.7,0-19.2,0-29,0c0-9.6,0-19.2,0-29C279.7,205.4,289.3,205.4,299.1,205.4
		z M274.3,209.5c0,7,0,13.8,0,20.6c7,0,13.8,0,20.6,0c0-7,0-13.7,0-20.6C288,209.5,281.2,209.5,274.3,209.5z"/>
	<path fill="#FFFFFF" d="M223.9,280.5c0,9.7,0,19.3,0,29c-9.7,0-19.2,0-29,0c0-9.6,0-19.2,0-29C204.5,280.5,214.1,280.5,223.9,280.5
		z M199,305.3c7,0,13.8,0,20.6,0c0-7,0-13.8,0-20.6c-7,0-13.7,0-20.6,0C199,291.6,199,298.4,199,305.3z"/>
	<path fill="#FFFFFF" d="M257.4,284.5c-1.3,0-2.6,0-4.2,0c0,8.4,0,16.6,0,25c-8.4,0-16.7,0-25,0c0-1.3,0-2.5,0-4c1.2,0,2.5,0,4.1,0
		c0-3,0-5.7,0-8.5l-0.1,0.1c1.4,0,2.8,0,4.2-0.1c0,1.4,0,2.7,0,4.1c1.5,0,2.8,0,4.1,0c0-1.4,0-2.8,0-4.1c1.4,0,2.8,0,4.2,0
		c0,1.4,0,2.7,0,4.1c1.5,0,2.8,0,4,0c0-1.4,0-2.7,0-4c-1.4,0-2.8,0-4.1,0c0-1.4,0-2.8,0-4.2c1.4,0,2.7,0,4.1,0c0-2.9,0-5.6,0-8.3
		c-1.5,0-2.8,0-4.1,0c0-1.4,0-2.8,0.1-4.2l-0.1,0.1c4.1,0,8.3,0,12.5,0C257.4,282,257.4,283.3,257.4,284.5L257.4,284.5z"/>
	<path fill="#FFFFFF" d="M295,280.4c1.3,0,2.6,0,4.1,0c0,9.7,0,19.4,0,29.1c-1.3,0-2.5,0-3.9,0c0-1.2,0-2.5,0-4.1c-3,0-5.7,0-8.5,0
		l0.1,0.1c0-1.4,0-2.7,0-4.1c-1.6,0-2.8,0-4.2,0c0,1.4,0,2.8,0,4.1l0.1-0.1c-2.7,0-5.4,0-8.3,0c0,1.4,0,2.7,0,4.1
		c-1.5,0-2.8,0-4.2,0c0-2.8,0-5.5,0-8.3l-0.1,0.1c2.8,0,5.5,0,8.5,0c0-1.6,0-2.8,0-4.3c4.2,0,8.2,0,12.5,0c0-2.8,0-5.5,0-8.4
		c1.5,0,2.8,0,4.2,0C295,285.8,295,283.1,295,280.4L295,280.4z"/>
	<path fill="#FFFFFF" d="M295,246.9c1.3,0,2.6,0,4.1,0c0,4.2,0,8.2,0,12.5c-1.4,0-2.7,0-4.1,0l0.1,0.1c0-1.4,0-2.7,0-4.3
		c-4.3,0-8.4,0-12.6,0c0-1.5,0-2.7,0-4.2c-1.5,0-2.8,0-4.1,0l0.1,0.1c0-4.1,0-8.2,0-12.4c1.4,0,2.6,0,4.1,0c0,1.3,0,2.6,0,3.9
		c1.4,0,2.7,0,4.1,0c0-1.3,0-2.6,0-4c4.3,0,8.3,0,12.5,0c0,1.3,0,2.5,0,4c-1.2,0-2.5,0-4,0C295,244.3,295,245.6,295,246.9
		c-2.7,0.1-5.4,0.1-8.2,0.1c0,1.5,0,2.8,0,4c2.8,0,5.5,0,8.2,0C295,249.6,295,248.3,295,246.9z"/>
	<path fill="#FFFFFF" d="M295,272c0,2.8,0,5.6-0.1,8.4l0.1-0.1c-2.7,0-5.5,0-8.4,0c0-2.9,0-5.6,0-8.4c-1.5,0-2.8,0-4.1,0l0.1,0.1
		c0-1.4,0-2.7,0-4.2c-1.6,0-2.9,0-4.2,0l0.1,0.1c0-2.8,0-5.5,0-8.2c1.5,0,2.8,0,4.2,0c0,1.4,0,2.6,0,3.9c2.8,0,5.5,0,8.4,0
		c0-1.4,0-2.7,0-4c1.5,0,2.8,0,4.1,0l-0.1-0.1c0,1.3,0,2.6,0,4.1c1.4,0,2.7,0,4.1,0c0,2.9,0,5.5,0,8.5
		C297.7,272.1,296.3,272.1,295,272c-0.1-1.3-0.1-2.7-0.1-4c-1.5,0-2.8,0-4,0c0,1.4,0,2.7,0,4C292.4,272,293.7,272,295,272z"/>
	<path fill="#FFFFFF" d="M240.7,213.5c-2.7,0-5.4,0-8.3,0c0,1.4,0,2.7,0,4.1c-1.5,0-2.8,0-4.1,0c0-4.1,0-8.1,0-12.3
		c4.1,0,8.1,0,12.4,0C240.7,208.1,240.7,210.8,240.7,213.5L240.7,213.5z"/>
	<path fill="#FFFFFF" d="M261.6,234.5c0-5.5,0-11,0-16.7c-1.4,0-2.7,0-4.1,0c0-1.4,0-2.7,0-4.1c1.2,0,2.5,0,4,0c0-1.5,0-2.8,0-4.2
		c1.4,0,2.7,0,4.1,0c0,8.2,0,16.4,0,24.9C264.3,234.4,262.9,234.4,261.6,234.5C261.5,234.4,261.6,234.5,261.6,234.5z"/>
	<path fill="#FFFFFF" d="M203.1,246.9c0,2.7,0,5.4,0,8.3c1.4,0,2.7,0,4.1,0c0,1.5,0,2.8,0,4.2c-1.3,0-2.5,0-4,0c0,1.4,0,2.7,0,4.1
		c-1.5,0-2.8,0-4.2,0c0-5.5,0-11.1,0-16.6l-0.1,0.1C200.3,247,201.7,247,203.1,246.9L203.1,246.9z"/>
	<path fill="#FFFFFF" d="M199,268c1.3,0,2.5,0,3.9,0c0,2.6,0,5.3,0,8.1c-1.2,0-2.5,0-3.9,0C199,273.4,199,270.7,199,268z"/>
	<path fill="#FFFFFF" d="M198.9,247c-1.3,0-2.6,0-4.1,0c0-2.7,0-5.4,0-8.2c1.3,0,2.5,0,4,0C198.9,241.5,198.9,244.3,198.9,247
		L198.9,247z"/>
	<path fill="#FFFFFF" d="M257.6,305.5c2.7,0,5.3,0,8.1,0c0,1.3,0,2.6,0,4c-2.7,0-5.3,0-8.1,0C257.6,308.3,257.6,307,257.6,305.5z"/>
	<path fill="#FFFFFF" d="M269.9,255.4c1.4,0,2.8,0,4.2,0l-0.1-0.1c0,1.4,0,2.7,0,4.1c-1.5,0-2.8,0-4.1,0
		C270,257.9,270,256.6,269.9,255.4L269.9,255.4z"/>
	<path fill="#FFFFFF" d="M274.1,255.4c0-1.3,0-2.6,0-4.2c1.5,0,2.8,0,4.2,0l-0.1-0.1c0,1.4,0,2.7,0,4.2
		C276.7,255.3,275.4,255.3,274.1,255.4L274.1,255.4z"/>
	<path fill="#FFFFFF" d="M232.4,272.1c0-1.4,0-2.8,0-4.2l-0.1,0.1c1.4,0,2.7,0,4.2,0c0,1.6,0,2.9,0,4.2l0.1-0.1
		C235.1,272,233.7,272,232.4,272.1L232.4,272.1z"/>
	<path fill="#FFFFFF" d="M269.8,238.7c0,1.3,0,2.5,0,3.9c-1.3,0-2.5,0-4,0c0-1.3,0-2.5,0-3.9C267.1,238.7,268.4,238.7,269.8,238.7z"
		/>
	<path fill="#FFFFFF" d="M253.2,209.4c0-1.3,0-2.6,0-4.1c1.3,0,2.6,0,4,0c0,1.2,0,2.5,0,4C255.9,209.4,254.5,209.4,253.2,209.4
		L253.2,209.4z"/>
	<path fill="#FFFFFF" d="M253.2,234.5c0-1.3,0-2.6,0-4.1c1.3,0,2.6,0,4.1,0c0,1.3,0,2.7,0,4.1l0.1-0.1
		C256,234.4,254.6,234.4,253.2,234.5L253.2,234.5z"/>
	<path fill="#FFFFFF" d="M232.4,234.4c-1.3,0-2.6,0-4.1,0c0-1.3,0-2.6,0-4.1c1.3,0,2.7,0,4.1,0l-0.1-0.1
		C232.3,231.7,232.3,233.1,232.4,234.4L232.4,234.4z"/>
	<path fill="#FFFFFF" d="M232.3,226.1c-1.3,0-2.6,0-4.1,0c0-1.3,0-2.6,0-4c1.2,0,2.5,0,4,0C232.3,223.4,232.3,224.8,232.3,226.1
		L232.3,226.1z"/>
	<path fill="#FFFFFF" d="M232.3,226.1c1.4,0,2.8,0,4.2,0l-0.1-0.1c0,1.4,0,2.8,0,4.2l0.1-0.1c-1.4,0-2.8,0-4.2,0l0.1,0.1
		C232.4,228.9,232.4,227.5,232.3,226.1L232.3,226.1z"/>
	<path fill="#FFFFFF" d="M253.2,221.9c1.3,0,2.6,0,4.1,0c0,1.3,0,2.6,0,4c-1.2,0-2.5,0-4,0C253.2,224.6,253.2,223.2,253.2,221.9
		L253.2,221.9z"/>
	<path fill="#FFFFFF" d="M286.6,305.4c0,1.3,0,2.6,0,4.1c-1.3,0-2.6,0-4.1,0c0-1.3,0-2.7,0-4.1l-0.1,0.1
		C283.8,305.5,285.3,305.5,286.6,305.4L286.6,305.4z"/>
	<path fill="#FFFFFF" d="M215.5,301.2c0-4.2,0-8.2,0-12.3c-4.2,0-8.2,0-12.3,0c0,4.2,0,8.2,0,12.3
		C207.4,301.2,211.4,301.2,215.5,301.2z"/>
	<path fill="#FFFFFF" d="M236.5,242.8c1.4,0,2.8,0,4.2,0c0,1.3,0,2.6,0,4.1c1.3,0,2.6,0,4,0c0,2.9,0,5.5,0,8.4c-1.4,0-2.7,0-4.1,0
		l0.1,0.1c0-1.3,0-2.6,0-4.1c-1.4,0-2.7,0-4.2,0C236.5,248.3,236.5,245.5,236.5,242.8z"/>
	<path fill="#FFFFFF" d="M249,259.5c0,1.3,0,2.6,0,4.1c-1.3,0-2.6,0-4,0c0-1.2,0-2.5,0-4C246.4,259.5,247.7,259.5,249,259.5
		L249,259.5z"/>
	<path fill="#FFFFFF" d="M240.7,255.3c0,1.3,0,2.6,0,4.1c-1.3,0-2.6,0-4,0c0-1.2,0-2.5,0-4C238,255.4,239.4,255.4,240.7,255.3
		L240.7,255.3z"/>
	<path fill="#FFFFFF" d="M244.9,293c-1.4,0-2.8,0-4.2,0c0-2.7,0-5.4,0-8.4c1.5,0,2.9,0,4.2,0C244.9,287.4,244.9,290.2,244.9,293z"/>
	<path fill="#FFFFFF" d="M240.7,292.9c0,1.4,0,2.8,0,4.2c-1.4,0-2.8,0-4.2,0c0-1.3,0-2.6,0-4.2C238,292.9,239.3,292.9,240.7,292.9z"
		/>
	<path fill="#FFFFFF" d="M270,280.5c1.3,0,2.5,0,3.9,0c0,1.3,0,2.5,0,4c-1.3,0-2.5,0-3.9,0C270,283.2,270,282,270,280.5z"/>
	<path fill="#FFFFFF" d="M203.2,213.6c4.2,0,8.1,0,12.2,0c0,4.1,0,8.1,0,12.3c-4,0-8.1,0-12.2,0
		C203.2,221.9,203.2,217.8,203.2,213.6z"/>
	<path fill="#FFFFFF" d="M278.4,213.6c4.1,0,8.1,0,12.3,0c0,4.1,0,8.1,0,12.3c-4,0-8.1,0-12.3,0
		C278.4,221.9,278.4,217.9,278.4,213.6z"/>
	<path fill="#FFFFFF" d="M215.5,301.2c-4.1,0-8.1,0-12.3,0c0-4,0-8.1,0-12.3c4,0,8.1,0,12.3,0C215.5,293,215.5,297,215.5,301.2z"/>
</g>
</svg>
