<?xml version="1.0" encoding="UTF-8" standalone="no"?>
<!-- Generator: Adobe Illustrator 21.0.0, SVG Export Plug-In . SVG Version: 6.00 Build 0)  -->

<svg
   xmlns:dc="http://purl.org/dc/elements/1.1/"
   xmlns:cc="http://creativecommons.org/ns#"
   xmlns:rdf="http://www.w3.org/1999/02/22-rdf-syntax-ns#"
   xmlns:svg="http://www.w3.org/2000/svg"
   xmlns="http://www.w3.org/2000/svg"
   xmlns:sodipodi="http://sodipodi.sourceforge.net/DTD/sodipodi-0.dtd"
   xmlns:inkscape="http://www.inkscape.org/namespaces/inkscape"
   version="1.1"
   id="Objects"
   x="0px"
   y="0px"
   viewBox="0 0 190.10001 339.29999"
   enable-background="new 0 0 500 500"
   xml:space="preserve"
   inkscape:version="0.91 r13725"
   sodipodi:docname="phone-2pay-just-scan-qr.svg"
   width="190.10001"
   height="339.29999"><metadata
     id="metadata3513"><rdf:RDF><cc:Work
         rdf:about=""><dc:format>image/svg+xml</dc:format><dc:type
           rdf:resource="http://purl.org/dc/dcmitype/StillImage" /><dc:title></dc:title></cc:Work></rdf:RDF></metadata><defs
     id="defs3511" /><sodipodi:namedview
     pagecolor="#ffffff"
     bordercolor="#666666"
     borderopacity="1"
     objecttolerance="10"
     gridtolerance="10"
     guidetolerance="10"
     inkscape:pageopacity="0"
     inkscape:pageshadow="2"
     inkscape:window-width="1920"
     inkscape:window-height="1017"
     id="namedview3509"
     showgrid="false"
     fit-margin-top="0"
     fit-margin-left="0"
     fit-margin-right="0"
     fit-margin-bottom="0"
     inkscape:zoom="0.47"
     inkscape:cx="98.1"
     inkscape:cy="180.2"
     inkscape:window-x="-8"
     inkscape:window-y="-8"
     inkscape:window-maximized="1"
     inkscape:current-layer="Objects" /><path
     d="m 173.5,339.3 -156.9,0 C 7.5,339.3 0,331.1 0,321 L 0,18.3 C 0,8.2 7.4,0 16.6,0 l 156.9,0 c 9.1,0 16.6,8.2 16.6,18.3 l 0,302.7 c 0,10.1 -7.5,18.3 -16.6,18.3 z M 16.6,1.1 C 8,1.1 1,8.8 1,18.4 l 0,302.7 c 0,9.5 7,17.3 15.6,17.3 l 156.9,0 c 8.6,0 15.6,-7.7 15.6,-17.3 l 0,-302.8 C 189.1,8.8 182.1,1 173.5,1 L 16.6,1 Z"
     id="path3425"
     inkscape:connector-curvature="0"
     style="fill:#ffffff" /><path
     d="m 176.3,296.1 -162.5,0 c -1.6,0 -3,-1.4 -3,-3 l 0,-250 c 0,-1.6 1.4,-3 3,-3 l 162.5,0 c 1.6,0 3,1.4 3,3 l 0,250 c 0,1.6 -1.3,3 -3,3 z"
     id="path3427"
     inkscape:connector-curvature="0"
     style="opacity:0.15;fill:#ffffff" /><path
     d="m 110.8,25.6 -31.5,0 C 77.5,25.6 76,24.1 76,22.3 76,20.5 77.5,19 79.3,19 l 31.5,0 c 1.8,0 3.3,1.5 3.3,3.3 0,1.8 -1.5,3.3 -3.3,3.3 z M 79.3,20.1 c -1.2,0 -2.3,1 -2.3,2.3 0,1.3 1,2.3 2.3,2.3 l 31.5,0 c 1.2,0 2.3,-1 2.3,-2.3 0,-1.3 -1,-2.3 -2.3,-2.3 l -31.5,0 z"
     id="path3429"
     inkscape:connector-curvature="0"
     style="fill:#ffffff" /><path
     d="m 95.1,330.1 c -6.9,0 -12.5,-5.6 -12.5,-12.5 0,-6.9 5.6,-12.5 12.5,-12.5 6.9,0 12.5,5.6 12.5,12.5 0,6.9 -5.7,12.5 -12.5,12.5 z m 0,-24 c -6.3,0 -11.5,5.2 -11.5,11.5 0,6.3 5.1,11.5 11.5,11.5 6.3,0 11.5,-5.2 11.5,-11.5 0,-6.3 -5.2,-11.5 -11.5,-11.5 z"
     id="path3431"
     inkscape:connector-curvature="0"
     style="fill:#ffffff" /><g
     id="g3433"
     transform="translate(-151.9,-90.9)"><path
       d="m 244.8,213.6 c 0,-2.7 0,-5.4 0,-8.2 1.4,0 2.7,0 4.1,0 0,1.2 0,2.5 0,4.1 1.6,0 2.9,0 4.3,0 l -0.1,-0.1 c 0,4.2 0,8.4 0,12.6 l 0.1,-0.1 c -1.3,0 -2.6,0 -4.1,0 0,4.2 0,8.2 0,12.6 1.3,0 2.7,0 4.1,0 l -0.1,-0.1 c 0,1.4 0,2.8 0,4.2 l 0.1,-0.1 c -1.4,0 -2.7,0 -4.3,0 0,1.6 0,2.8 0,4.2 -2.9,0 -5.6,0 -8.3,0 0,-1.4 0,-2.7 0,-4.1 -1.5,0 -2.8,0 -4.1,0 0,1.5 0,2.8 0,4.1 -1.4,0 -2.7,0 -4.3,0 0,4.3 0,8.4 0,12.4 -1.5,0 -2.7,0 -4.1,0 0,-1.4 0,-2.7 0,-4.2 -2.9,0 -5.6,0 -8.2,0 0,-1.5 0,-2.7 0,-4.1 1.4,0 2.7,0 3.9,0 0,-1.5 0,-2.8 0,-4 -4.2,0 -8.2,0 -12.2,0 0,1.4 0,2.7 0,4.2 1.4,0 2.7,0 4.1,0 0,2.8 0,5.5 0,8.3 2.8,0 5.5,0 8.1,0 0,1.5 0,2.8 0,4.2 -1.4,0 -2.6,0 -3.9,0 0,1.4 0,2.7 0,3.9 2.8,0 5.5,0 8.3,0 0,-1.4 0,-2.6 0,-3.9 1.4,0 2.7,0 4.1,0 0,2.8 0,5.5 0,8.2 l 0.1,-0.1 c -5.5,0 -11,0 -16.7,0 0,2.8 0,5.5 0,8.3 -1.4,0 -2.7,0 -4.1,0 0,-4 0,-8.1 0,-12.4 1.2,0 2.5,0 3.9,0 0,-1.4 0,-2.7 0,-4.1 -1.2,0 -2.5,0 -4,0 0,-2.9 0,-5.6 0,-8.4 -1.4,0 -2.7,0 -4.1,0 0,-1.4 0,-2.7 0,-4.3 -1.6,0 -2.9,0 -4.3,0 l 0.1,0.1 c 0,-1.3 0,-2.6 0,-4.2 1.4,0 2.7,0 4.1,0 0,-1.4 0,-2.7 0,-4.1 8.4,0 16.6,0 25.2,0 0,-1.6 0,-2.9 0,-4.3 l -0.1,0.1 c 1.4,0 2.7,0 4.2,0 0,-1.6 0,-2.9 0,-4.2 l -0.1,0.1 c 1.4,0 2.7,0 4.3,0 0,1.5 0,2.8 0,4.1 1.4,0 2.7,0 4,0 0,-4.1 0,-8.2 0,-12.3 -1.4,0 -2.6,0 -4.1,0 0,1.4 0,2.7 0,4 -1.5,0 -2.8,0 -4.1,0 l 0.1,0.1 c 0,-2.7 0,-5.4 0,-8.3 1.3,0 2.6,0 4.2,0 0,-1.6 0,-2.9 0,-4.3 l -0.1,0.1 c 1.3,0 2.7,-0.1 4,0 0.1,1.3 0.1,2.7 0.1,4 1.5,0 2.8,0 4,0 0,-1.4 0,-2.7 0,-4 -1.5,0 -2.8,0 -4.1,0 z"
       id="path3435"
       inkscape:connector-curvature="0"
       style="fill:#ffffff" /><path
       d="m 257.4,234.5 c 1.4,0 2.8,0 4.2,0 l -0.1,-0.1 c 0,4.1 0,8.2 0,12.5 1.4,0 2.7,0 4.1,0 0,1.4 0,2.7 0,4.1 1.4,0 2.7,0 4.2,0 0,1.6 0,2.9 0,4.3 l 0.1,-0.1 c -1.4,0 -2.7,0 -4.2,0 0,3 0,5.7 0,8.4 l 0.1,-0.1 c -1.4,0 -2.7,0 -4.3,0 0,1.6 0,2.9 0,4.3 -1.5,0 -2.7,0 -4.1,0 0,1.4 0,2.7 0,4.2 -2.9,0 -5.6,0 -8.4,0 0,1.5 0,2.7 0,4.1 -1.4,0 -2.7,0 -4.1,0 0,1.5 0,2.8 0,4.2 l 0.1,-0.1 c -2.7,0 -5.5,0 -8.4,0 0,2.9 0,5.6 0,8.5 -1.5,0 -2.8,0 -4.2,0 0,2.9 0,5.6 0,8.3 l 0.1,-0.1 c -1.3,0 -2.6,0 -4.2,0 0,-6.9 0,-13.8 0,-20.8 -2.8,0 -5.5,0 -8.2,0 0,-1.4 0,-2.7 0,-4.2 4.1,0 8.2,0 12.4,0 l -0.1,-0.1 c 0,1.4 0,2.7 0,4.1 1.6,0 2.8,0 4.2,0 0,-1.4 0,-2.8 0,-4.1 l -0.1,0.1 c 2.8,0 5.5,0 8.5,0 0,-1.6 0,-2.9 0,-4.3 2.8,0 5.5,0 8.1,0 0,-2.8 0,-5.5 0,-8.3 -1.4,0 -2.8,0 -4.1,0 l 0.1,0.1 c 0,-1.4 0,-2.7 0,-4 2.9,0 5.6,0 8.4,0 0,1.4 0,2.6 0,3.9 1.4,0 2.7,0 4,0 0,-2.8 0,-5.5 0,-8.3 -4.2,0 -8.3,0 -12.3,0 0,-1.4 0,-2.7 0,-4.1 1.4,0 2.7,0 4.1,0 0,-2.9 0,-5.6 0,-8.3 l -0.1,0.1 c 1.4,0 2.7,0 4.2,0 0,-1.7 0,-3 0,-4.2 l 0,0 z"
       id="path3437"
       inkscape:connector-curvature="0"
       style="fill:#ffffff" /><path
       d="m 270,301.3 c -2.7,0 -5.4,0 -8.4,0 0,-1.4 0,-2.8 0,-4.2 1.4,0 2.7,0 4.1,0 0,-1.5 0,-2.8 0,-4 -1.4,0 -2.7,0 -4,0 0,1.5 0,2.8 0,4.1 -1.3,0 -2.6,0 -4.2,0 0,-4.3 0,-8.5 0,-12.6 l -0.1,0.1 c 1.4,0 2.7,0 4.3,0 0,-4.3 0,-8.4 0,-12.6 1.5,0 2.7,0 4.1,0 0,-2.9 0,-5.6 0,-8.3 l -0.1,0.1 c 1.4,0 2.7,0 4.3,0 0,1.5 0,2.8 0,4.2 2.9,0 5.6,0 8.3,0 l -0.1,-0.1 c 0,1.4 0,2.7 0,4.2 1.6,0 2.9,0 4.2,0 l -0.1,-0.1 c 0,6.9 0,13.9 0,21 -2.9,0 -5.6,0 -8.4,0 0,1.5 0,2.7 0,4.1 -1.4,0 -2.7,0 -4.1,0 0.1,1.5 0.1,2.8 0.2,4.1 l 0,0 z m -4.2,-12.6 c 4.2,0 8.2,0 12.3,0 0,-4.2 0,-8.2 0,-12.3 -4.2,0 -8.2,0 -12.3,0 0,4.1 0,8.1 0,12.3 z"
       id="path3439"
       inkscape:connector-curvature="0"
       style="fill:#ffffff" /><path
       d="m 223.8,234.4 c -9.7,0 -19.3,0 -29,0 0,-9.7 0,-19.2 0,-29 9.6,0 19.2,0 29,0 0,9.5 0,19.2 0,29 z m -4.2,-4.2 c 0,-7 0,-13.8 0,-20.6 -7,0 -13.8,0 -20.6,0 0,7 0,13.7 0,20.6 6.9,0 13.7,0 20.6,0 z"
       id="path3441"
       inkscape:connector-curvature="0"
       style="fill:#ffffff" /><path
       d="m 299.1,205.4 c 0,9.7 0,19.3 0,29 -9.7,0 -19.2,0 -29,0 0,-9.6 0,-19.2 0,-29 9.6,0 19.2,0 29,0 z m -24.8,4.1 c 0,7 0,13.8 0,20.6 7,0 13.8,0 20.6,0 0,-7 0,-13.7 0,-20.6 -6.9,0 -13.7,0 -20.6,0 z"
       id="path3443"
       inkscape:connector-curvature="0"
       style="fill:#ffffff" /><path
       d="m 223.9,280.5 c 0,9.7 0,19.3 0,29 -9.7,0 -19.2,0 -29,0 0,-9.6 0,-19.2 0,-29 9.6,0 19.2,0 29,0 z M 199,305.3 c 7,0 13.8,0 20.6,0 0,-7 0,-13.8 0,-20.6 -7,0 -13.7,0 -20.6,0 0,6.9 0,13.7 0,20.6 z"
       id="path3445"
       inkscape:connector-curvature="0"
       style="fill:#ffffff" /><path
       d="m 257.4,284.5 c -1.3,0 -2.6,0 -4.2,0 0,8.4 0,16.6 0,25 -8.4,0 -16.7,0 -25,0 0,-1.3 0,-2.5 0,-4 1.2,0 2.5,0 4.1,0 0,-3 0,-5.7 0,-8.5 l -0.1,0.1 c 1.4,0 2.8,0 4.2,-0.1 0,1.4 0,2.7 0,4.1 1.5,0 2.8,0 4.1,0 0,-1.4 0,-2.8 0,-4.1 1.4,0 2.8,0 4.2,0 0,1.4 0,2.7 0,4.1 1.5,0 2.8,0 4,0 0,-1.4 0,-2.7 0,-4 -1.4,0 -2.8,0 -4.1,0 0,-1.4 0,-2.8 0,-4.2 1.4,0 2.7,0 4.1,0 0,-2.9 0,-5.6 0,-8.3 -1.5,0 -2.8,0 -4.1,0 0,-1.4 0,-2.8 0.1,-4.2 l -0.1,0.1 c 4.1,0 8.3,0 12.5,0 0.3,1.5 0.3,2.8 0.3,4 l 0,0 z"
       id="path3447"
       inkscape:connector-curvature="0"
       style="fill:#ffffff" /><path
       d="m 295,280.4 c 1.3,0 2.6,0 4.1,0 0,9.7 0,19.4 0,29.1 -1.3,0 -2.5,0 -3.9,0 0,-1.2 0,-2.5 0,-4.1 -3,0 -5.7,0 -8.5,0 l 0.1,0.1 c 0,-1.4 0,-2.7 0,-4.1 -1.6,0 -2.8,0 -4.2,0 0,1.4 0,2.8 0,4.1 l 0.1,-0.1 c -2.7,0 -5.4,0 -8.3,0 0,1.4 0,2.7 0,4.1 -1.5,0 -2.8,0 -4.2,0 0,-2.8 0,-5.5 0,-8.3 l -0.1,0.1 c 2.8,0 5.5,0 8.5,0 0,-1.6 0,-2.8 0,-4.3 4.2,0 8.2,0 12.5,0 0,-2.8 0,-5.5 0,-8.4 1.5,0 2.8,0 4.2,0 -0.3,-2.8 -0.3,-5.5 -0.3,-8.2 l 0,0 z"
       id="path3449"
       inkscape:connector-curvature="0"
       style="fill:#ffffff" /><path
       d="m 295,246.9 c 1.3,0 2.6,0 4.1,0 0,4.2 0,8.2 0,12.5 -1.4,0 -2.7,0 -4.1,0 l 0.1,0.1 c 0,-1.4 0,-2.7 0,-4.3 -4.3,0 -8.4,0 -12.6,0 0,-1.5 0,-2.7 0,-4.2 -1.5,0 -2.8,0 -4.1,0 l 0.1,0.1 c 0,-4.1 0,-8.2 0,-12.4 1.4,0 2.6,0 4.1,0 0,1.3 0,2.6 0,3.9 1.4,0 2.7,0 4.1,0 0,-1.3 0,-2.6 0,-4 4.3,0 8.3,0 12.5,0 0,1.3 0,2.5 0,4 -1.2,0 -2.5,0 -4,0 -0.2,1.7 -0.2,3 -0.2,4.3 -2.7,0.1 -5.4,0.1 -8.2,0.1 0,1.5 0,2.8 0,4 2.8,0 5.5,0 8.2,0 0,-1.4 0,-2.7 0,-4.1 z"
       id="path3451"
       inkscape:connector-curvature="0"
       style="fill:#ffffff" /><path
       d="m 295,272 c 0,2.8 0,5.6 -0.1,8.4 l 0.1,-0.1 c -2.7,0 -5.5,0 -8.4,0 0,-2.9 0,-5.6 0,-8.4 -1.5,0 -2.8,0 -4.1,0 l 0.1,0.1 c 0,-1.4 0,-2.7 0,-4.2 -1.6,0 -2.9,0 -4.2,0 l 0.1,0.1 c 0,-2.8 0,-5.5 0,-8.2 1.5,0 2.8,0 4.2,0 0,1.4 0,2.6 0,3.9 2.8,0 5.5,0 8.4,0 0,-1.4 0,-2.7 0,-4 1.5,0 2.8,0 4.1,0 l -0.1,-0.1 c 0,1.3 0,2.6 0,4.1 1.4,0 2.7,0 4.1,0 0,2.9 0,5.5 0,8.5 -1.5,0 -2.9,0 -4.2,-0.1 -0.1,-1.3 -0.1,-2.7 -0.1,-4 -1.5,0 -2.8,0 -4,0 0,1.4 0,2.7 0,4 1.5,0 2.8,0 4.1,0 z"
       id="path3453"
       inkscape:connector-curvature="0"
       style="fill:#ffffff" /><path
       d="m 240.7,213.5 c -2.7,0 -5.4,0 -8.3,0 0,1.4 0,2.7 0,4.1 -1.5,0 -2.8,0 -4.1,0 0,-4.1 0,-8.1 0,-12.3 4.1,0 8.1,0 12.4,0 0,2.8 0,5.5 0,8.2 l 0,0 z"
       id="path3455"
       inkscape:connector-curvature="0"
       style="fill:#ffffff" /><path
       d="m 261.6,234.5 c 0,-5.5 0,-11 0,-16.7 -1.4,0 -2.7,0 -4.1,0 0,-1.4 0,-2.7 0,-4.1 1.2,0 2.5,0 4,0 0,-1.5 0,-2.8 0,-4.2 1.4,0 2.7,0 4.1,0 0,8.2 0,16.4 0,24.9 -1.3,0 -2.7,0 -4,0.1 -0.1,-0.1 0,0 0,0 z"
       id="path3457"
       inkscape:connector-curvature="0"
       style="fill:#ffffff" /><path
       d="m 203.1,246.9 c 0,2.7 0,5.4 0,8.3 1.4,0 2.7,0 4.1,0 0,1.5 0,2.8 0,4.2 -1.3,0 -2.5,0 -4,0 0,1.4 0,2.7 0,4.1 -1.5,0 -2.8,0 -4.2,0 0,-5.5 0,-11.1 0,-16.6 l -0.1,0.1 c 1.4,0 2.8,0 4.2,-0.1 l 0,0 z"
       id="path3459"
       inkscape:connector-curvature="0"
       style="fill:#ffffff" /><path
       d="m 199,268 c 1.3,0 2.5,0 3.9,0 0,2.6 0,5.3 0,8.1 -1.2,0 -2.5,0 -3.9,0 0,-2.7 0,-5.4 0,-8.1 z"
       id="path3461"
       inkscape:connector-curvature="0"
       style="fill:#ffffff" /><path
       d="m 198.9,247 c -1.3,0 -2.6,0 -4.1,0 0,-2.7 0,-5.4 0,-8.2 1.3,0 2.5,0 4,0 0.1,2.7 0.1,5.5 0.1,8.2 l 0,0 z"
       id="path3463"
       inkscape:connector-curvature="0"
       style="fill:#ffffff" /><path
       d="m 257.6,305.5 c 2.7,0 5.3,0 8.1,0 0,1.3 0,2.6 0,4 -2.7,0 -5.3,0 -8.1,0 0,-1.2 0,-2.5 0,-4 z"
       id="path3465"
       inkscape:connector-curvature="0"
       style="fill:#ffffff" /><path
       d="m 269.9,255.4 c 1.4,0 2.8,0 4.2,0 l -0.1,-0.1 c 0,1.4 0,2.7 0,4.1 -1.5,0 -2.8,0 -4.1,0 0.1,-1.5 0.1,-2.8 0,-4 l 0,0 z"
       id="path3467"
       inkscape:connector-curvature="0"
       style="fill:#ffffff" /><path
       d="m 274.1,255.4 c 0,-1.3 0,-2.6 0,-4.2 1.5,0 2.8,0 4.2,0 l -0.1,-0.1 c 0,1.4 0,2.7 0,4.2 -1.5,0 -2.8,0 -4.1,0.1 l 0,0 z"
       id="path3469"
       inkscape:connector-curvature="0"
       style="fill:#ffffff" /><path
       d="m 232.4,272.1 c 0,-1.4 0,-2.8 0,-4.2 l -0.1,0.1 c 1.4,0 2.7,0 4.2,0 0,1.6 0,2.9 0,4.2 l 0.1,-0.1 c -1.5,-0.1 -2.9,-0.1 -4.2,0 l 0,0 z"
       id="path3471"
       inkscape:connector-curvature="0"
       style="fill:#ffffff" /><path
       d="m 269.8,238.7 c 0,1.3 0,2.5 0,3.9 -1.3,0 -2.5,0 -4,0 0,-1.3 0,-2.5 0,-3.9 1.3,0 2.6,0 4,0 z"
       id="path3473"
       inkscape:connector-curvature="0"
       style="fill:#ffffff" /><path
       d="m 253.2,209.4 c 0,-1.3 0,-2.6 0,-4.1 1.3,0 2.6,0 4,0 0,1.2 0,2.5 0,4 -1.3,0.1 -2.7,0.1 -4,0.1 l 0,0 z"
       id="path3475"
       inkscape:connector-curvature="0"
       style="fill:#ffffff" /><path
       d="m 253.2,234.5 c 0,-1.3 0,-2.6 0,-4.1 1.3,0 2.6,0 4.1,0 0,1.3 0,2.7 0,4.1 l 0.1,-0.1 c -1.4,0 -2.8,0 -4.2,0.1 l 0,0 z"
       id="path3477"
       inkscape:connector-curvature="0"
       style="fill:#ffffff" /><path
       d="m 232.4,234.4 c -1.3,0 -2.6,0 -4.1,0 0,-1.3 0,-2.6 0,-4.1 1.3,0 2.7,0 4.1,0 l -0.1,-0.1 c 0,1.5 0,2.9 0.1,4.2 l 0,0 z"
       id="path3479"
       inkscape:connector-curvature="0"
       style="fill:#ffffff" /><path
       d="m 232.3,226.1 c -1.3,0 -2.6,0 -4.1,0 0,-1.3 0,-2.6 0,-4 1.2,0 2.5,0 4,0 0.1,1.3 0.1,2.7 0.1,4 l 0,0 z"
       id="path3481"
       inkscape:connector-curvature="0"
       style="fill:#ffffff" /><path
       d="m 232.3,226.1 c 1.4,0 2.8,0 4.2,0 l -0.1,-0.1 c 0,1.4 0,2.8 0,4.2 l 0.1,-0.1 c -1.4,0 -2.8,0 -4.2,0 l 0.1,0.1 c 0,-1.3 0,-2.7 -0.1,-4.1 l 0,0 z"
       id="path3483"
       inkscape:connector-curvature="0"
       style="fill:#ffffff" /><path
       d="m 253.2,221.9 c 1.3,0 2.6,0 4.1,0 0,1.3 0,2.6 0,4 -1.2,0 -2.5,0 -4,0 -0.1,-1.3 -0.1,-2.7 -0.1,-4 l 0,0 z"
       id="path3485"
       inkscape:connector-curvature="0"
       style="fill:#ffffff" /><path
       d="m 286.6,305.4 c 0,1.3 0,2.6 0,4.1 -1.3,0 -2.6,0 -4.1,0 0,-1.3 0,-2.7 0,-4.1 l -0.1,0.1 c 1.4,0 2.9,0 4.2,-0.1 l 0,0 z"
       id="path3487"
       inkscape:connector-curvature="0"
       style="fill:#ffffff" /><path
       d="m 215.5,301.2 c 0,-4.2 0,-8.2 0,-12.3 -4.2,0 -8.2,0 -12.3,0 0,4.2 0,8.2 0,12.3 4.2,0 8.2,0 12.3,0 z"
       id="path3489"
       inkscape:connector-curvature="0"
       style="fill:#ffffff" /><path
       d="m 236.5,242.8 c 1.4,0 2.8,0 4.2,0 0,1.3 0,2.6 0,4.1 1.3,0 2.6,0 4,0 0,2.9 0,5.5 0,8.4 -1.4,0 -2.7,0 -4.1,0 l 0.1,0.1 c 0,-1.3 0,-2.6 0,-4.1 -1.4,0 -2.7,0 -4.2,0 0,-3 0,-5.8 0,-8.5 z"
       id="path3491"
       inkscape:connector-curvature="0"
       style="fill:#ffffff" /><path
       d="m 249,259.5 c 0,1.3 0,2.6 0,4.1 -1.3,0 -2.6,0 -4,0 0,-1.2 0,-2.5 0,-4 1.4,-0.1 2.7,-0.1 4,-0.1 l 0,0 z"
       id="path3493"
       inkscape:connector-curvature="0"
       style="fill:#ffffff" /><path
       d="m 240.7,255.3 c 0,1.3 0,2.6 0,4.1 -1.3,0 -2.6,0 -4,0 0,-1.2 0,-2.5 0,-4 1.3,0 2.7,0 4,-0.1 l 0,0 z"
       id="path3495"
       inkscape:connector-curvature="0"
       style="fill:#ffffff" /><path
       d="m 244.9,293 c -1.4,0 -2.8,0 -4.2,0 0,-2.7 0,-5.4 0,-8.4 1.5,0 2.9,0 4.2,0 0,2.8 0,5.6 0,8.4 z"
       id="path3497"
       inkscape:connector-curvature="0"
       style="fill:#ffffff" /><path
       d="m 240.7,292.9 c 0,1.4 0,2.8 0,4.2 -1.4,0 -2.8,0 -4.2,0 0,-1.3 0,-2.6 0,-4.2 1.5,0 2.8,0 4.2,0 z"
       id="path3499"
       inkscape:connector-curvature="0"
       style="fill:#ffffff" /><path
       d="m 270,280.5 c 1.3,0 2.5,0 3.9,0 0,1.3 0,2.5 0,4 -1.3,0 -2.5,0 -3.9,0 0,-1.3 0,-2.5 0,-4 z"
       id="path3501"
       inkscape:connector-curvature="0"
       style="fill:#ffffff" /><path
       d="m 203.2,213.6 c 4.2,0 8.1,0 12.2,0 0,4.1 0,8.1 0,12.3 -4,0 -8.1,0 -12.2,0 0,-4 0,-8.1 0,-12.3 z"
       id="path3503"
       inkscape:connector-curvature="0"
       style="fill:#ffffff" /><path
       d="m 278.4,213.6 c 4.1,0 8.1,0 12.3,0 0,4.1 0,8.1 0,12.3 -4,0 -8.1,0 -12.3,0 0,-4 0,-8 0,-12.3 z"
       id="path3505"
       inkscape:connector-curvature="0"
       style="fill:#ffffff" /><path
       d="m 215.5,301.2 c -4.1,0 -8.1,0 -12.3,0 0,-4 0,-8.1 0,-12.3 4,0 8.1,0 12.3,0 0,4.1 0,8.1 0,12.3 z"
       id="path3507"
       inkscape:connector-curvature="0"
       style="fill:#ffffff" /></g></svg>