<?xml version="1.0" encoding="utf-8"?>
<!-- Generator: Adobe Illustrator 21.0.0, SVG Export Plug-In . SVG Version: 6.00 Build 0)  -->
<svg version="1.1" id="Для_приложения"
	 xmlns="http://www.w3.org/2000/svg" xmlns:xlink="http://www.w3.org/1999/xlink" x="0px" y="0px" viewBox="0 0 187 221.8"
	 enable-background="new 0 0 187 221.8" xml:space="preserve">
<g id="Слой_13">
	<path fill="#FFFFFF" d="M168.2,149.3c-0.2-1.3-0.2-2.5,0-3.8v-0.1v-0.1c-0.2-2.1-0.2-4.3-0.1-6.4c0-0.8,0-1.7,0-2.5
		c0-3.7,0-7.4,0.1-11.1v-4.6c-0.2-2-0.2-4.1,0-6.5v-4.7c0-4.7-0.1-9.5-0.1-14.2c0-1,0-2.2-0.6-3.2l-0.1-0.1
		c-0.7-0.8-1.7-1.1-2.6-1.4c-0.4-0.1-0.8-0.3-1.2-0.5l-17.9-6.6c-1.2-0.4-2.5-0.7-3.7-1.4l-2.5-0.9c-1.9-0.7-3.8-1.4-5.7-2
		c-2.2-0.8-4,0-4.7,1.9c-0.6,1.9,0.2,3.4,2.4,4.3c1.3,0.5,2.6,1,3.9,1.5l1.6,0.6l0,0c1.4,0.4,2.5,0.7,3.6,1.4l14.9,5.3l-33,13.3
		l-10.5,4.2l-19.7,8.1c-0.3,0.1-0.6,0.1-0.9,0c-2-0.8-4-1.7-6-2.5l-1.7-0.7c-1.5-0.5-2.9-1-4.2-1.7c-5.4-2-10.9-4.2-16.9-6.8
		c-1.6-0.5-2.9-1-4.1-1.7c-4.4-1.6-8.9-3.4-13.2-5.2c-1.2-0.5-2.3-1-3.5-1.4L38,97.9l-9.3-3.6l2-0.7c2.4-0.9,4.6-1.7,6.8-2.5
		c2.6-1,5.3-1.9,7.9-2.9l3.4-1.2l3.7-1.5c2.5-1,3.1-2.4,2.3-4.9l-0.1-0.1c-1.5-1.9-3.3-1.5-4.8-1c-6.6,2.4-13.1,4.8-19.7,7.2
		L23,89.3l-1,0.4c-0.8,0.3-1.6,0.6-2.5,0.9c-2.7,1-3.2,1.7-3.3,4.6c0,0.2,0,0.5-0.1,0.7v0.4v3.5c0,2.7,0.1,5.3,0.1,8s0,5.3-0.1,8
		v3.5c0.2,2,0.2,4.1,0,6.5v3.5c0,2.7,0.1,5.3,0.1,8c0,2.6,0,5.2-0.1,7.9v3.6c0.2,2,0.2,4.1,0,6.5v3.4c0,2.6,0.1,5.2,0.1,7.8
		c0,2.7,0,5.4-0.1,8.1v3.6c0.2,2,0.2,4.1,0,6.5c-0.3,3.6,2.2,4.9,4.1,5.5c2.3,0.8,4.5,1.7,6.7,2.7c1,0.4,1.9,0.8,2.9,1.2l21,8.5
		c1.6,0.5,3.1,1.1,4.6,1.9c5.2,1.9,10.7,4.2,17,6.8l4,1.6c0.4,0.2,0.8,0.3,1.2,0.5c0.9,0.3,1.8,0.7,2.7,1c1.4,0.6,2.8,1.1,4.1,1.7
		c2.2,0.8,4.5,1.7,6.6,2.8l0.1,0.1H93l4.4-1.7c2.2-1.1,4.5-2,7.2-2.9l6.2-2.6c4.9-2,9.7-4,14.6-6c4.2-1.7,8.4-3.3,12.6-5l5.6-2.2
		l21.7-8.9c2.4-1,2.9-1.8,3-4.4c0-1.3,0-2.6,0.1-3.9v-1.7c-0.2-1.9-0.2-3.9,0-6.2v-5.7c0-4.8-0.1-9.7-0.1-14.5c0-0.9,0-1.8,0.1-2.8
		C168.2,150.3,168.2,149.8,168.2,149.3z M88.8,171c0.2,8.9,0.2,16.2,0,23.3c0.2,1.9,0.2,3.9,0,6.1l0,0v2.6c0,2.5,0,4.9,0.1,7.4
		c0,0.2,0,0.3,0,0.3s-0.1,0-0.2-0.1c-1.8-0.8-3.6-1.5-5.4-2.3l-2.2-0.9c-1.4-0.3-2.7-1-3.8-1.5l-37.7-15.2c-1.6-0.5-3.1-1.1-4.6-1.9
		l-2.9-1.1c-3-1.2-5.9-2.3-8.9-3.5c-0.4-0.2-0.4-0.3-0.4-0.6c0-1.4,0.1-2.9,0.1-4.3v-1.6c-0.1-1.9-0.1-4,0-6.2
		c-0.1-8.5-0.1-16.1,0-23.3c-0.1-1.9-0.1-4,0-6.2c-0.1-8.5-0.1-16.1,0-23.3c-0.1-1.9-0.1-4,0-6.2V99l10.1,4.2l21.2,8.5
		c1.7,0.5,3,1.1,4.2,1.7l16,6.4l5,2.1l2.3,0.9c2.3,0.9,4.5,1.8,6.8,2.7c0.3,0.1,0.4,0.2,0.4,0.6c0,2.2-0.1,4.5-0.1,6.7v2.5
		c0.2,1.9,0.2,3.9,0,6.2c0.2,8.9,0.2,16.2,0,23.3C88.9,166.7,88.9,168.7,88.8,171z M95.6,187.4c-0.2-8.6-0.2-16.2,0-23.3
		c-0.2-1.9-0.2-3.9,0-6.2c-0.2-8.6-0.2-16.2,0-23.3c-0.2-1.9-0.2-3.9,0-6.2c-0.2-2.6-0.2-2.6,2.1-3.5c0.6-0.2,1.1-0.4,1.7-0.6
		l0.9-0.3c3-1.3,6.7-2.9,10.5-4.2l5.6-2.3c4.1-1.7,8.1-3.3,12.2-5c5-2,9.9-4,14.9-6l6.4-2.6l0.9-0.4c3.1-1.3,6.3-2.7,9.6-3.8
		l1.1-0.6c0.1,0,0.1-0.1,0.2-0.1c0,0.1,0,0.1,0,0.3c0,6-0.1,12-0.1,17.9v4.3c0.1,1.9,0.1,3.9,0,6.2c0.1,8.7,0.1,16.3,0,23.3
		c0.1,1.9,0.1,3.9,0,6.2c0.1,8.7,0.1,16.3,0,23.3c0.3,3.5,0.3,3.5-2.9,4.8c-0.8,0.3-1.5,0.6-2.3,0.9l-7.1,2.9
		c-4.7,1.9-9.3,3.8-14,5.7c-4.4,1.8-8.7,3.5-13.1,5.2l-5.8,2.3l-12.4,5.1c-2.6,1.1-5.3,2.2-7.9,3.2H96c-0.1,0-0.2,0.1-0.3,0.1
		c0-0.1,0-0.1,0-0.2c0-4.2,0.1-8.5,0.1-12.7v-4.3C95.4,191.6,95.4,189.6,95.6,187.4z"/>
	<path fill="#FFFFFF" d="M35.9,36.5c5.2,0,9.5,4.2,9.5,9.5c0,5.2-4.2,9.5-9.5,9.5s-9.5-4.2-9.5-9.5C26.4,40.7,30.7,36.5,35.9,36.5
		 M35.9,29.5c-9.1,0-16.5,7.4-16.5,16.5s7.4,16.5,16.5,16.5S52.4,55.1,52.4,46S45,29.5,35.9,29.5L35.9,29.5z"/>
	<path fill="#FFFFFF" d="M145.2,12.5c7.8,0,14.2,6.4,14.2,14.2s-6.4,14.2-14.2,14.2S131,34.6,131,26.7S137.4,12.5,145.2,12.5
		 M145.2,5.5C133.5,5.5,124,15,124,26.7s9.5,21.2,21.2,21.2s21.2-9.5,21.2-21.2S156.9,5.5,145.2,5.5L145.2,5.5z"/>
	<path fill="#FFFFFF" d="M92.2,39c15,0,27.2,12.2,27.2,27.2s-12.2,27.2-27.2,27.2S65,81.2,65,66.2S77.2,39,92.2,39 M92.2,32
		C73.3,32,58,47.3,58,66.2s15.3,34.2,34.2,34.2s34.2-15.3,34.2-34.2S111.1,32,92.2,32L92.2,32z"/>
	<g>
		<path fill="#FFFFFF" d="M52.5,199.8c-1.1,0-2-0.9-2-2v-32l-6.2-8.8c-0.2-0.3-0.4-0.7-0.4-1.2V129c0-1.1,0.9-2,2-2s2,0.9,2,2v26.2
			l6.2,8.8c0.2,0.3,0.4,0.7,0.4,1.2v32.6C54.5,198.9,53.6,199.8,52.5,199.8z"/>
		<path fill="#FFFFFF" d="M37.8,195c-1.1,0-2-0.9-2-2v-7.7c0-0.7,0.4-1.4,1-1.8l5-2.7v-12.9l-9.9-14c-0.2-0.3-0.4-0.7-0.4-1.2V140
			c0-1.1,0.9-2,2-2s2,0.9,2,2v12l9.9,14c0.2,0.3,0.4,0.7,0.4,1.2v14.7c0,0.7-0.4,1.4-1,1.8l-5,2.7v6.6C39.8,194.1,38.9,195,37.8,195
			z"/>
		<path fill="#FFFFFF" d="M76,208.6c-1.1,0-2-0.9-2-2v-17.7l-5.7-8.1c-0.2-0.3-0.4-0.7-0.4-1.2v-19.4c0-0.7,0.4-1.4,1-1.8l5.5-3
			v-9.6c0-1.1,0.9-2,2-2s2,0.9,2,2v10.8c0,0.7-0.4,1.4-1,1.8l-5.5,3V179l5.7,8.1c0.2,0.3,0.4,0.7,0.4,1.2v18.3
			C78,207.7,77.1,208.6,76,208.6z"/>
		<path fill="#FFFFFF" d="M75.1,136.3c0.4,0,0.9,0.1,1.3,0.3c1.8,0.8,3.3,2.9,3.3,4.7c0,1.3-0.8,2.1-2,2.1c-0.4,0-0.9-0.1-1.3-0.3
			c-1.8-0.8-3.3-2.9-3.3-4.7C73.2,137.1,74,136.3,75.1,136.3 M75.1,132.3c-3.4,0-6,2.6-6,6.1c0,3.4,2.4,6.9,5.7,8.3
			c1,0.4,2,0.6,2.9,0.6c3.4,0,6-2.6,6-6.1c0-3.4-2.4-6.9-5.7-8.3C77.1,132.5,76.1,132.3,75.1,132.3L75.1,132.3z"/>
		<path fill="#FFFFFF" d="M59.6,143c0.4,0,0.9,0.1,1.3,0.3c1.8,0.8,3.3,2.9,3.3,4.7c0,1.3-0.8,2.1-2,2.1c-0.4,0-0.9-0.1-1.3-0.3
			c-1.8-0.8-3.3-2.9-3.3-4.7C57.6,143.8,58.4,143,59.6,143 M59.6,139c-3.4,0-6,2.6-6,6.1c0,3.4,2.4,6.9,5.7,8.3c1,0.4,2,0.6,2.9,0.6
			c3.4,0,6-2.6,6-6.1c0-3.4-2.4-6.9-5.7-8.3C61.5,139.2,60.5,139,59.6,139L59.6,139z"/>
		<path fill="#FFFFFF" d="M44.6,119.8c0.4,0,0.9,0.1,1.3,0.3c1.8,0.8,3.3,2.9,3.3,4.7c0,1.3-0.8,2.1-2,2.1c-0.4,0-0.9-0.1-1.3-0.3
			c-1.8-0.8-3.3-2.9-3.3-4.7C42.7,120.6,43.5,119.8,44.6,119.8 M44.6,115.8c-3.4,0-6,2.6-6,6.1c0,3.4,2.4,6.9,5.7,8.3
			c1,0.4,2,0.6,2.9,0.6c3.4,0,6-2.6,6-6.1c0-3.4-2.4-6.9-5.7-8.3C46.6,116,45.6,115.8,44.6,115.8L44.6,115.8z"/>
		<path fill="#FFFFFF" d="M32.4,131.3c0.4,0,0.9,0.1,1.3,0.3c1.8,0.8,3.3,2.9,3.3,4.7c0,1.3-0.8,2.1-2,2.1c-0.4,0-0.9-0.1-1.3-0.3
			c-1.8-0.8-3.3-2.9-3.3-4.7C30.5,132.1,31.3,131.3,32.4,131.3 M32.4,127.3c-3.4,0-6,2.6-6,6.1c0,3.4,2.4,6.9,5.7,8.3
			c1,0.4,2,0.6,2.9,0.6c3.4,0,6-2.6,6-6.1c0-3.4-2.4-6.9-5.7-8.3C34.4,127.5,33.4,127.3,32.4,127.3L32.4,127.3z"/>
		<path fill="#FFFFFF" d="M60.9,204.3c-1.1,0-2-0.9-2-2v-50.2c0-1.1,0.9-2,2-2s2,0.9,2,2v50.2C62.9,203.4,62,204.3,60.9,204.3z"/>
	</g>
</g>
</svg>
