<?xml version="1.0" encoding="utf-8"?>
<!-- Generator: Adobe Illustrator 21.0.0, SVG Export Plug-In . SVG Version: 6.00 Build 0)  -->
<svg version="1.1" id="Слой_1" xmlns="http://www.w3.org/2000/svg" xmlns:xlink="http://www.w3.org/1999/xlink" x="0px" y="0px"
	 viewBox="0 0 173 172" enable-background="new 0 0 173 172" xml:space="preserve">
<path fill="#2A45C2" d="M85.5,8.7c43,0,78,35,78,78s-35,78-78,78s-78-35-78-78S42.5,8.7,85.5,8.7 M85.5,4.7c-45.3,0-82,36.7-82,82
	s36.7,82,82,82s82-36.7,82-82S130.8,4.7,85.5,4.7L85.5,4.7z"/>
<path fill="#2A45C2" d="M69.7,112.1L50.6,93c-1.4-1.4-1.4-3.7,0-5.1c1.4-1.4,3.7-1.4,5.1,0l16.6,16.6l43.1-43.1
	c1.4-1.4,3.7-1.4,5.1,0c1.4,1.4,1.4,3.7,0,5.1l-45.6,45.6C73.4,113.5,71.1,113.5,69.7,112.1z"/>
</svg>
