<?xml version="1.0" encoding="utf-8"?>
<!-- Generator: Adobe Illustrator 21.0.0, SVG Export Plug-In . SVG Version: 6.00 Build 0)  -->
<svg version="1.1" id="Слой_4" xmlns="http://www.w3.org/2000/svg" xmlns:xlink="http://www.w3.org/1999/xlink" x="0px" y="0px"
	 viewBox="0 0 500 500" enable-background="new 0 0 500 500" xml:space="preserve">
<path fill="#FFFFFF" d="M328.3,423.2H171.4c-9.1,0-16.6-8.2-16.6-18.3V102.2c0-10.1,7.4-18.3,16.6-18.3h156.9
	c9.1,0,16.6,8.2,16.6,18.3v302.7C344.8,415,337.4,423.2,328.3,423.2z M171.4,85c-8.6,0-15.6,7.7-15.6,17.3v302.7
	c0,9.5,7,17.3,15.6,17.3h156.9c8.6,0,15.6-7.7,15.6-17.3V102.2c0-9.5-7-17.3-15.6-17.3H171.4z"/>
<path opacity="0.15" fill="#FFFFFF" d="M331.1,380H168.6c-1.7,0-3-1.4-3-3V127c0-1.7,1.3-3,3-3h162.5c1.6,0,3,1.3,3,3v250
	C334.1,378.6,332.7,380,331.1,380z"/>
<path fill="#FFFFFF" d="M265.6,109.5h-31.5c-1.8,0-3.3-1.5-3.3-3.3s1.5-3.3,3.3-3.3h31.5c1.8,0,3.3,1.5,3.3,3.3
	S267.3,109.5,265.6,109.5z M234.1,104c-1.2,0-2.3,1-2.3,2.3s1,2.3,2.3,2.3h31.5c1.2,0,2.3-1,2.3-2.3s-1-2.3-2.3-2.3H234.1z"/>
<path fill="#FFFFFF" d="M249.8,414c-6.9,0-12.5-5.6-12.5-12.5s5.6-12.5,12.5-12.5s12.5,5.6,12.5,12.5S256.7,414,249.8,414z
	 M249.8,390c-6.3,0-11.5,5.2-11.5,11.5s5.2,11.5,11.5,11.5c6.3,0,11.5-5.2,11.5-11.5S256.1,390,249.8,390z"/>
<g>
	<g>
		<path fill="#FFFFFF" d="M280.9,288c-0.1-0.6-0.1-1,0-1.3v-40.2c0.1-0.8,0-1.2-0.2-1.4c-0.2-0.2-0.7-0.2-1.3-0.2h-5v-6.1
			c0,0,0-1-0.1-2.9c-0.1-2-0.2-3-0.4-3.2c-0.2-0.2-0.4-1.1-0.7-2.8c-0.3-1.7-0.7-2.7-1.2-2.9c-1.9-4-4.8-7.3-8.8-9.7
			c-4-2.5-8.2-3.7-12.7-3.7c-0.4,0-0.9,0-1.3,0.1c-5.6-0.1-10.6,1.7-15.2,5.5c-4.5,3.8-7.2,8.4-8.1,13.9c-0.2,1.1-0.3,2.4-0.3,3.7
			c0,1.3,0,2.8,0,4.5c0,1.6,0,2.9,0,3.7h-6.1c-0.4,0-0.6,0.1-0.7,0.3c-0.1,0.2-0.1,0.5-0.1,0.9v43.5c0.1,0.4,0.4,0.7,0.8,0.8
			c0.4,0.1,0.9,0.1,1.6,0c0.6-0.1,1.1-0.1,1.4,0h57.8c0.4-0.2,0.7-0.5,0.8-0.9C281,289.2,281,288.6,280.9,288L280.9,288z
			 M255.3,269.1c-0.7,1.1-1.6,1.8-2.7,2.3c0,0.2,0,0.4,0.1,0.7l1.6,8h-9.4l1.6-7.6c0.1-0.4,0.2-0.8,0.2-1.2c-1-0.5-1.9-1.3-2.5-2.3
			c-0.6-1-0.9-2.1-0.9-3.3c0-1.2,0.3-2.3,1-3.4c0.4-0.8,0.9-1.4,1.6-1.9c1.1-0.9,2.5-1.4,3.9-1.4h0.4v0c1.6,0,3,0.7,4,2
			c1.4,1.3,2.1,2.8,2.1,4.7C256.4,266.9,256,268,255.3,269.1L255.3,269.1z M233.4,244.6c0-0.8,0-2,0-3.7c0-1.7,0-3.1,0-4.1
			c0-1,0.2-2.2,0.5-3.5c0.3-1.4,0.8-2.6,1.4-3.7c1.3-2.5,3.2-4.5,5.8-6c2.5-1.5,5.2-2.2,8.1-2.2c0.4-0.1,0.8-0.1,1.2-0.1
			c3,0,5.8,0.8,8.5,2.3c2.6,1.5,4.6,3.6,5.9,6.3c0.5,1.1,1,2.3,1.2,3.6c0.3,1.3,0.4,2.5,0.5,3.5c0,1,0,2.3,0,3.9c0,1.6,0,2.8,0,3.6
			H233.4z M233.4,244.6"/>
	</g>
</g>
</svg>
