<?xml version="1.0" encoding="UTF-8" standalone="no"?>
<!-- Generator: Adobe Illustrator 21.0.0, SVG Export Plug-In . SVG Version: 6.00 Build 0)  -->

<svg
   xmlns:dc="http://purl.org/dc/elements/1.1/"
   xmlns:cc="http://creativecommons.org/ns#"
   xmlns:rdf="http://www.w3.org/1999/02/22-rdf-syntax-ns#"
   xmlns:svg="http://www.w3.org/2000/svg"
   xmlns="http://www.w3.org/2000/svg"
   xmlns:sodipodi="http://sodipodi.sourceforge.net/DTD/sodipodi-0.dtd"
   xmlns:inkscape="http://www.inkscape.org/namespaces/inkscape"
   version="1.1"
   id="Слой_4"
   x="0px"
   y="0px"
   viewBox="0 0 190.10001 339.29999"
   enable-background="new 0 0 500 500"
   xml:space="preserve"
   inkscape:version="0.91 r13725"
   sodipodi:docname="you-control-your-btc.svg"
   width="190.10001"
   height="339.29999"><metadata
     id="metadata3534"><rdf:RDF><cc:Work
         rdf:about=""><dc:format>image/svg+xml</dc:format><dc:type
           rdf:resource="http://purl.org/dc/dcmitype/StillImage" /><dc:title></dc:title></cc:Work></rdf:RDF></metadata><defs
     id="defs3532" /><sodipodi:namedview
     pagecolor="#ffffff"
     bordercolor="#666666"
     borderopacity="1"
     objecttolerance="10"
     gridtolerance="10"
     guidetolerance="10"
     inkscape:pageopacity="0"
     inkscape:pageshadow="2"
     inkscape:window-width="640"
     inkscape:window-height="480"
     id="namedview3530"
     showgrid="false"
     fit-margin-top="0"
     fit-margin-left="0"
     fit-margin-right="0"
     fit-margin-bottom="0"
     inkscape:zoom="0.472"
     inkscape:cx="95.2"
     inkscape:cy="173.2"
     inkscape:window-x="0"
     inkscape:window-y="0"
     inkscape:window-maximized="0"
     inkscape:current-layer="Слой_4" /><path
     d="m 173.5,339.3 -156.9,0 C 7.5,339.3 0,331.1 0,321 L 0,18.3 C 0,8.2 7.4,0 16.6,0 l 156.9,0 c 9.1,0 16.6,8.2 16.6,18.3 l 0,302.7 c -0.1,10.1 -7.5,18.3 -16.6,18.3 z M 16.6,1.1 C 8,1.1 1,8.8 1,18.4 l 0,302.7 c 0,9.5 7,17.3 15.6,17.3 l 156.9,0 c 8.6,0 15.6,-7.7 15.6,-17.3 l 0,-302.8 C 189.1,8.8 182.1,1 173.5,1 L 16.6,1 Z"
     id="path3516"
     inkscape:connector-curvature="0"
     style="fill:#ffffff" /><path
     d="m 176.3,296.1 -162.5,0 c -1.7,0 -3,-1.4 -3,-3 l 0,-250 c 0,-1.7 1.3,-3 3,-3 l 162.5,0 c 1.6,0 3,1.3 3,3 l 0,250 c 0,1.6 -1.4,3 -3,3 z"
     id="path3518"
     inkscape:connector-curvature="0"
     style="opacity:0.15;fill:#ffffff" /><path
     d="m 110.8,25.6 -31.5,0 C 77.5,25.6 76,24.1 76,22.3 76,20.5 77.5,19 79.3,19 l 31.5,0 c 1.8,0 3.3,1.5 3.3,3.3 0,1.8 -1.6,3.3 -3.3,3.3 z M 79.3,20.1 c -1.2,0 -2.3,1 -2.3,2.3 0,1.3 1,2.3 2.3,2.3 l 31.5,0 c 1.2,0 2.3,-1 2.3,-2.3 0,-1.3 -1,-2.3 -2.3,-2.3 l -31.5,0 z"
     id="path3520"
     inkscape:connector-curvature="0"
     style="fill:#ffffff" /><path
     d="m 95,330.1 c -6.9,0 -12.5,-5.6 -12.5,-12.5 0,-6.9 5.6,-12.5 12.5,-12.5 6.9,0 12.5,5.6 12.5,12.5 0,6.9 -5.6,12.5 -12.5,12.5 z m 0,-24 c -6.3,0 -11.5,5.2 -11.5,11.5 0,6.3 5.2,11.5 11.5,11.5 6.3,0 11.5,-5.2 11.5,-11.5 0,-6.3 -5.2,-11.5 -11.5,-11.5 z"
     id="path3522"
     inkscape:connector-curvature="0"
     style="fill:#ffffff" /><g
     id="g3524"
     transform="translate(-154.8,-83.9)"><g
       id="g3526"><path
         d="m 280.9,288 c -0.1,-0.6 -0.1,-1 0,-1.3 l 0,-40.2 c 0.1,-0.8 0,-1.2 -0.2,-1.4 -0.2,-0.2 -0.7,-0.2 -1.3,-0.2 l -5,0 0,-6.1 c 0,0 0,-1 -0.1,-2.9 -0.1,-2 -0.2,-3 -0.4,-3.2 -0.2,-0.2 -0.4,-1.1 -0.7,-2.8 -0.3,-1.7 -0.7,-2.7 -1.2,-2.9 -1.9,-4 -4.8,-7.3 -8.8,-9.7 -4,-2.5 -8.2,-3.7 -12.7,-3.7 -0.4,0 -0.9,0 -1.3,0.1 -5.6,-0.1 -10.6,1.7 -15.2,5.5 -4.5,3.8 -7.2,8.4 -8.1,13.9 -0.2,1.1 -0.3,2.4 -0.3,3.7 0,1.3 0,2.8 0,4.5 0,1.6 0,2.9 0,3.7 l -6.1,0 c -0.4,0 -0.6,0.1 -0.7,0.3 -0.1,0.2 -0.1,0.5 -0.1,0.9 l 0,43.5 c 0.1,0.4 0.4,0.7 0.8,0.8 0.4,0.1 0.9,0.1 1.6,0 0.6,-0.1 1.1,-0.1 1.4,0 l 57.8,0 c 0.4,-0.2 0.7,-0.5 0.8,-0.9 -0.1,-0.4 -0.1,-1 -0.2,-1.6 l 0,0 z m -25.6,-18.9 c -0.7,1.1 -1.6,1.8 -2.7,2.3 0,0.2 0,0.4 0.1,0.7 l 1.6,8 -9.4,0 1.6,-7.6 c 0.1,-0.4 0.2,-0.8 0.2,-1.2 -1,-0.5 -1.9,-1.3 -2.5,-2.3 -0.6,-1 -0.9,-2.1 -0.9,-3.3 0,-1.2 0.3,-2.3 1,-3.4 0.4,-0.8 0.9,-1.4 1.6,-1.9 1.1,-0.9 2.5,-1.4 3.9,-1.4 l 0.4,0 0,0 c 1.6,0 3,0.7 4,2 1.4,1.3 2.1,2.8 2.1,4.7 0.1,1.2 -0.3,2.3 -1,3.4 l 0,0 z m -21.9,-24.5 c 0,-0.8 0,-2 0,-3.7 0,-1.7 0,-3.1 0,-4.1 0,-1 0.2,-2.2 0.5,-3.5 0.3,-1.4 0.8,-2.6 1.4,-3.7 1.3,-2.5 3.2,-4.5 5.8,-6 2.5,-1.5 5.2,-2.2 8.1,-2.2 0.4,-0.1 0.8,-0.1 1.2,-0.1 3,0 5.8,0.8 8.5,2.3 2.6,1.5 4.6,3.6 5.9,6.3 0.5,1.1 1,2.3 1.2,3.6 0.3,1.3 0.4,2.5 0.5,3.5 0,1 0,2.3 0,3.9 0,1.6 0,2.8 0,3.6 l -33.1,0 z m 0,0"
         id="path3528"
         inkscape:connector-curvature="0"
         style="fill:#ffffff" /></g></g></svg>