<?xml version="1.0" encoding="utf-8"?>
<!-- Generator: Adobe Illustrator 21.0.0, SVG Export Plug-In . SVG Version: 6.00 Build 0)  -->
<svg version="1.1" id="Слой_1" xmlns="http://www.w3.org/2000/svg" xmlns:xlink="http://www.w3.org/1999/xlink" x="0px" y="0px"
	 viewBox="0 0 548 132" enable-background="new 0 0 548 132" xml:space="preserve">
<g>
	<defs>
		<path id="SVGID_1_" d="M24.4,25.2c-23.2,22.9-23.2,60.5,0,83.4c23.2,22.9,61.1,22.9,84.2,0l28.1-27.8c7.9-7.8,12.6-8.8,18.2-8.8
			c6.2,0,9.9,2.4,13.6,5.9l22.4,22.2c18.5,18.3,48.8,18.3,67.2,0h0c18.5-18.3,18.5-48.3,0-66.6h0c-18.5-18.3-48.8-18.3-67.2,0
			l-22.4,22.2c-3.6,3.6-8.2,5.9-13.6,5.9c-8.2,0-13.4-4-18.2-8.8l-28.1-27.8C97,13.7,81.8,8,66.5,8C51.2,8,36,13.7,24.4,25.2"/>
	</defs>
	<use xlink:href="#SVGID_1_"  overflow="visible" fill="#FFFFFF"/>
	<clipPath id="SVGID_2_">
		<use xlink:href="#SVGID_1_"  overflow="visible"/>
	</clipPath>
</g>
<path fill="#FFFFFF" d="M512.5,55.6c-10.9,0-17.4,9.5-17.4,19.8c0,10.4,6.2,20,17.4,20c11.5,0,17.9-9.2,17.9-20
	C530.4,64.7,523.9,55.6,512.5,55.6 M529.8,103v-8.6h-0.2c-4.2,6.2-10.8,10.5-18.7,10.5c-16.8,0-26.3-14-26.3-29.8
	c0-15.1,10-28.9,26-28.9c8.1,0,14.7,4.2,19.1,10.8h0.2v-9.2h10.6V103H529.8z M478.6,58.6c-1.9-1.6-4-2.2-6.5-2.2
	c-11.4,0-12.8,10.6-12.8,19.5V103h-10.6V47.9h10.6v9h0.4c2.6-6.5,8-10.6,15.1-10.6c3.1,0,6.1,1.1,8.7,2.7L478.6,58.6z M431.7,103
	h-10.6V47.9h10.6V103z M426.4,29.9c-4,0-7.3-3.2-7.3-7.2c0-4.1,3.3-7.4,7.3-7.4c4,0,7.3,3.3,7.3,7.4
	C433.7,26.7,430.4,29.9,426.4,29.9 M394.7,103V71.8c0-7.1-0.9-16.1-10.2-16.1c-11.3,0-12.1,11.8-12.1,20.3V103h-10.6V73.8
	c0-7.2-0.4-18.1-10.1-18.1c-11.3,0-12.2,11.7-12.2,20.3V103h-10.6V47.9h10.6v6.9h0.2c3.1-4.8,8.6-8.6,14.6-8.6
	c7.2,0,12.3,3.7,15.9,9.8c3.4-5.9,10-9.8,16.9-9.8c14.5,0,18.2,11.3,18.2,23.8v33H394.7z"/>
</svg>
