<?xml version="1.0" encoding="utf-8"?>
<!-- Generator: Adobe Illustrator 21.0.0, SVG Export Plug-In . SVG Version: 6.00 Build 0)  -->
<svg version="1.1" id="Режим_изоляции"
	 xmlns="http://www.w3.org/2000/svg" xmlns:xlink="http://www.w3.org/1999/xlink" x="0px" y="0px" viewBox="0 0 298 145"
	 enable-background="new 0 0 298 145" xml:space="preserve">
<path fill="#344E9D" d="M71.2,141.1c-10.9,0-22-2.9-33.3-9.7c-38.3-23.1-39.6-63-24.7-90.3c8.6-15.7,22.3-27.7,38.4-33.6
	c18.3-6.7,38.1-5.2,57.4,4.3c14,6.9,30.1,23.8,48.7,43.4c2.4,2.5,4.8,5.1,7.3,7.7c4.1-3.9,8-7.5,11.9-10.7c1.1-1,2.3-1.9,3.5-2.9
	c17.4-14.8,37.1-31.6,64-27.5c17.2,2.6,32.8,13.7,41.7,29.6c8.2,14.7,10.2,37.7-3.7,56.1c-11.7,15.4-28.5,23.5-47.2,22.8
	c-23-0.9-47.5-21.6-70.5-44.7C139.2,110.1,106.7,141.1,71.2,141.1z M74.8,19.4c-21.5,0-38.8,13.2-47.6,29.3
	c-11.8,21.5-10.5,51.2,18.9,68.9c38,22.9,74.8-12.1,107.4-43.7c-2.5-2.6-5-5.2-7.4-7.8c-16.8-17.7-32.7-34.4-44.1-40
	C92.4,21.5,83.3,19.4,74.8,19.4z M176.2,74.3c20.7,20.8,42.1,39.2,59.6,39.8c9.4,0.4,23-2.2,33.8-16.5c9.5-12.6,8-28.8,2.5-38.6
	c-6.4-11.5-18-19.8-30.1-21.6c-19.7-3-35.1,10.1-51.3,23.9c-1.2,1-2.3,2-3.5,3C183.7,67.3,180,70.7,176.2,74.3z"/>
</svg>
