<?xml version="1.0" encoding="utf-8"?>
<!-- Generator: Adobe Illustrator 21.0.0, SVG Export Plug-In . SVG Version: 6.00 Build 0)  -->
<svg version="1.1" id="Слой_1" xmlns="http://www.w3.org/2000/svg" xmlns:xlink="http://www.w3.org/1999/xlink" x="0px" y="0px"
	 viewBox="0 0 227 257" enable-background="new 0 0 227 257" xml:space="preserve">
<g>
	<g>
		<path fill="#334D9C" d="M186,10.2H51.3c-18.1,0-33.4,15.3-33.4,33.4v22.3h-7c-4.2,0-7,2.8-7,7c0,4.2,2.8,7,7,7h7v23.7h-7
			c-4.2,0-7,2.8-7,7s2.8,7,7,7h7v22.3h-7c-4.2,0-7,2.8-7,7c0,4.2,2.8,7,7,7h7v23.7h-7c-4.2,0-7,2.8-7,7c0,4.2,2.8,7,7,7h7v22.3
			c0,18.1,15.3,33.4,33.4,33.4H186c18.1,0,33.4-15.3,33.4-33.4V43.6C219.4,25.5,204.1,10.2,186,10.2L186,10.2z M31.8,213.5v-22.3h7
			c4.2,0,7-2.8,7-7c0-4.2-2.8-7-7-7h-7v-23.7h7c4.2,0,7-2.8,7-7c0-4.2-2.8-7-7-7h-7v-22.3h7c4.2,0,7-2.8,7-7s-2.8-7-7-7h-7V79.8h7
			c4.2,0,7-2.8,7-7c0-4.2-2.8-7-7-7h-7V43.6c0-11.1,8.4-19.5,19.5-19.5V233C40.2,233,31.8,224.6,31.8,213.5L31.8,213.5z
			 M205.5,213.5c0,11.1-8.4,19.5-19.5,19.5H65.3V24.1H186c11.1,0,19.5,8.4,19.5,19.5V213.5z M205.5,213.5"/>
	</g>
	<path fill="#334D9C" d="M135,67.8c-17.3,0-31.5,14.1-31.5,31.5c0,17.3,14.1,31.5,31.5,31.5s31.5-14.1,31.5-31.5
		C166.5,82,152.3,67.8,135,67.8z M135,115.9c-9.2,0-16.6-7.5-16.6-16.6c0-9.2,7.5-16.6,16.6-16.6s16.6,7.5,16.6,16.6
		C151.6,108.5,144.2,115.9,135,115.9z"/>
	<path fill="#334D9C" d="M135,133.6c-28.1,0-51,22.9-51,51c0,4.1,3.3,7.4,7.4,7.4h87.2c4.1,0,7.4-3.3,7.4-7.4
		C186,156.5,163.1,133.6,135,133.6z M135,148.4c17.3,0,32,12.1,35.4,28.7H99.6C103,160.6,117.7,148.4,135,148.4z"/>
</g>
</svg>
