<?xml version="1.0" encoding="utf-8"?>
<!-- Generator: Adobe Illustrator 21.0.0, SVG Export Plug-In . SVG Version: 6.00 Build 0)  -->
<svg version="1.1" id="Слой_1" xmlns="http://www.w3.org/2000/svg" xmlns:xlink="http://www.w3.org/1999/xlink" x="0px" y="0px"
	 viewBox="0 0 202 206" enable-background="new 0 0 202 206" xml:space="preserve">
<g>
	<g>
		<path fill="#344E9D" d="M197.4,80.5c-0.7-2.2-2.6-3.8-4.8-4.1l-60-8.7l-26.8-54.4c-1-2-3.1-3.3-5.4-3.3s-4.4,1.3-5.4,3.3
			L68.1,67.7l-60,8.7c-2.3,0.3-4.1,1.9-4.8,4.1c-0.7,2.2-0.1,4.6,1.5,6.2L48.2,129L38,188.7c-0.4,2.3,0.5,4.5,2.4,5.9
			c1.8,1.3,4.3,1.5,6.3,0.5l53.7-28.2L154,195c0.9,0.5,1.8,0.7,2.8,0.7h0c3.3,0,6-2.7,6-6c0-0.5-0.1-1-0.2-1.5L152.4,129l43.4-42.3
			C197.5,85.1,198.1,82.7,197.4,80.5L197.4,80.5z M141.8,122.6c-1.4,1.4-2.1,3.4-1.7,5.3l8.7,50.9l-45.7-24c-1.8-0.9-3.8-0.9-5.6,0
			l-45.7,24l8.7-50.9c0.3-1.9-0.3-3.9-1.7-5.3l-37-36L73,79.1c2-0.3,3.6-1.5,4.5-3.3l22.8-46.3l22.8,46.3c0.9,1.8,2.6,3,4.5,3.3
			l51.1,7.4L141.8,122.6z M141.8,122.6"/>
	</g>
</g>
</svg>
