<?xml version="1.0" encoding="utf-8"?>
<!-- Generator: Adobe Illustrator 21.0.0, SVG Export Plug-In . SVG Version: 6.00 Build 0)  -->
<svg version="1.1" id="Режим_изоляции"
	 xmlns="http://www.w3.org/2000/svg" xmlns:xlink="http://www.w3.org/1999/xlink" x="0px" y="0px" viewBox="0 0 500 500"
	 enable-background="new 0 0 500 500" xml:space="preserve">
<g>
	<path fill="#344E9D" d="M249.3,132C183.9,132,131,184.9,131,250.3s52.9,118.3,118.3,118.3s118.3-52.9,118.3-118.3
		S314.8,132,249.3,132L249.3,132z M249.3,354.7c-57.1,0-104.4-47.3-104.4-104.4s47.3-104.4,104.4-104.4s104.4,47.3,104.4,104.4
		S306.4,354.7,249.3,354.7L249.3,354.7z M249.3,354.7"/>
	<path fill="#344E9D" d="M223,310.1h7.2v18.1c0,3.1,2.1,5.2,5.2,5.2c3.1,0,5.2-2.1,5.2-5.2v-18.1h14c1,0,1.6,0,2.6,0l0,0v18.1
		c0,3.1,2.1,5.2,5.2,5.2s5.2-2.1,5.2-5.2v-18.1c0-0.5,0-0.5,0-1c3.6-0.5,6.7-1.6,9.3-3.1c3.1-1.6,5.7-3.1,8.3-4.7
		c2.6-2.1,4.7-4.1,6.2-6.7c1.6-2.6,3.1-5.7,4.1-8.8c1-3.1,1.6-6.7,1.6-10.3c0-4.1-0.5-7.8-2.1-11.4c-1-3.6-3.1-6.2-5.2-8.8
		c-2.1-2.6-4.7-4.7-7.8-6.2c-3.1-1.6-6.2-2.6-9.3-3.6c2.6-1,5.2-2.6,6.7-4.1c2.1-1.6,3.6-3.6,5.2-6.2c1.6-2.6,2.6-4.7,3.1-7.2
		s1-5.2,1-8.3c0-4.7-1-9.3-2.6-12.9c-1.6-3.6-4.1-7.2-6.7-9.8c-3.1-2.6-6.7-4.7-11.4-6.2c-0.5,0-0.5,0-1,0v-0.5v-18.1
		c0-3.1-2.1-5.2-5.2-5.2c-3.1,0-5.2,2.1-5.2,5.2v17.1c-2.1,0-4.1,0-6.7,0h-9.8v-17.1c0-3.1-2.1-5.2-5.2-5.2c-3.1,0-5.2,2.1-5.2,5.2
		v16.5h-7.2c-1.6,0-2.6,0.5-4.1,1.6c-1,1-2.1,2.6-2.1,5.2v108c0,2.6,0.5,4.1,2.1,5.2C220.4,309.6,222,310.1,223,310.1z M273.1,260
		c2.1,2.1,4.1,4.1,5.2,6.7c1,2.6,1.6,5.7,1.6,9.3c0,3.6-0.5,6.2-1.6,8.8c-1,2.6-2.6,4.7-4.7,6.2c-2.1,1.6-4.7,3.1-7.2,4.1
		c-2.6,1-6.2,1.6-9.8,1.6h-23.3v-42.9h19.1c5.2,0,9.3,0.5,12.4,1.6C268.5,256.4,271.1,258,273.1,260z M260.7,203.2
		c2.6,1,5.2,2.1,6.7,3.6c1.6,1.6,3.1,3.6,3.6,6.2c1,2.6,1,5.2,1,7.8c0,2.6-0.5,5.2-1,7.8c-1,2.6-2.1,4.7-3.6,6.7
		c-1.6,2.1-3.6,3.1-6.2,4.7c-2.6,1-5.7,1.6-10.3,1.6h-18.1v-39.3h16.5C254.5,202.1,258.2,202.7,260.7,203.2z"/>
</g>
</svg>
