<?xml version="1.0" encoding="UTF-8" standalone="no"?>
<!-- Generator: Adobe Illustrator 21.0.0, SVG Export Plug-In . SVG Version: 6.00 Build 0)  -->

<svg
   xmlns:dc="http://purl.org/dc/elements/1.1/"
   xmlns:cc="http://creativecommons.org/ns#"
   xmlns:rdf="http://www.w3.org/1999/02/22-rdf-syntax-ns#"
   xmlns:svg="http://www.w3.org/2000/svg"
   xmlns="http://www.w3.org/2000/svg"
   xmlns:sodipodi="http://sodipodi.sourceforge.net/DTD/sodipodi-0.dtd"
   xmlns:inkscape="http://www.inkscape.org/namespaces/inkscape"
   version="1.1"
   id="Режим_изоляции"
   x="0px"
   y="0px"
   viewBox="0 0 236.60001 236.60001"
   enable-background="new 0 0 500 500"
   xml:space="preserve"
   inkscape:version="0.91 r13725"
   sodipodi:docname="bitcoin-cash-blue.svg"
   width="236.60001"
   height="236.60001"><metadata
     id="metadata3347"><rdf:RDF><cc:Work
         rdf:about=""><dc:format>image/svg+xml</dc:format><dc:type
           rdf:resource="http://purl.org/dc/dcmitype/StillImage" /><dc:title></dc:title></cc:Work></rdf:RDF></metadata><defs
     id="defs3345" /><sodipodi:namedview
     pagecolor="#ffffff"
     bordercolor="#666666"
     borderopacity="1"
     objecttolerance="10"
     gridtolerance="10"
     guidetolerance="10"
     inkscape:pageopacity="0"
     inkscape:pageshadow="2"
     inkscape:window-width="1393"
     inkscape:window-height="824"
     id="namedview3343"
     showgrid="false"
     fit-margin-top="0"
     fit-margin-left="0"
     fit-margin-right="0"
     fit-margin-bottom="0"
     inkscape:zoom="1.7"
     inkscape:cx="119"
     inkscape:cy="118.6"
     inkscape:window-x="303"
     inkscape:window-y="139"
     inkscape:window-maximized="0"
     inkscape:current-layer="Режим_изоляции" /><g
     id="g3337"
     transform="translate(-131,-132)"><path
       d="M 249.3,132 C 183.9,132 131,184.9 131,250.3 c 0,65.4 52.9,118.3 118.3,118.3 65.4,0 118.3,-52.9 118.3,-118.3 C 367.6,184.9 314.8,132 249.3,132 l 0,0 z m 0,222.7 c -57.1,0 -104.4,-47.3 -104.4,-104.4 0,-57.1 47.3,-104.4 104.4,-104.4 57.1,0 104.4,47.3 104.4,104.4 0,57.1 -47.3,104.4 -104.4,104.4 l 0,0 z m 0,0"
       id="path3339"
       inkscape:connector-curvature="0"
       style="fill:#344e9d" /><path
       d="m 223,310.1 7.2,0 0,18.1 c 0,3.1 2.1,5.2 5.2,5.2 3.1,0 5.2,-2.1 5.2,-5.2 l 0,-18.1 14,0 c 1,0 1.6,0 2.6,0 l 0,0 0,18.1 c 0,3.1 2.1,5.2 5.2,5.2 3.1,0 5.2,-2.1 5.2,-5.2 l 0,-18.1 c 0,-0.5 0,-0.5 0,-1 3.6,-0.5 6.7,-1.6 9.3,-3.1 3.1,-1.6 5.7,-3.1 8.3,-4.7 2.6,-2.1 4.7,-4.1 6.2,-6.7 1.6,-2.6 3.1,-5.7 4.1,-8.8 1,-3.1 1.6,-6.7 1.6,-10.3 0,-4.1 -0.5,-7.8 -2.1,-11.4 -1,-3.6 -3.1,-6.2 -5.2,-8.8 -2.1,-2.6 -4.7,-4.7 -7.8,-6.2 -3.1,-1.6 -6.2,-2.6 -9.3,-3.6 2.6,-1 5.2,-2.6 6.7,-4.1 2.1,-1.6 3.6,-3.6 5.2,-6.2 1.6,-2.6 2.6,-4.7 3.1,-7.2 0.5,-2.5 1,-5.2 1,-8.3 0,-4.7 -1,-9.3 -2.6,-12.9 -1.6,-3.6 -4.1,-7.2 -6.7,-9.8 -3.1,-2.6 -6.7,-4.7 -11.4,-6.2 -0.5,0 -0.5,0 -1,0 l 0,-0.5 0,-18.1 c 0,-3.1 -2.1,-5.2 -5.2,-5.2 -3.1,0 -5.2,2.1 -5.2,5.2 l 0,17.1 c -2.1,0 -4.1,0 -6.7,0 l -9.8,0 0,-17.1 c 0,-3.1 -2.1,-5.2 -5.2,-5.2 -3.1,0 -5.2,2.1 -5.2,5.2 l 0,16.5 -7.2,0 c -1.6,0 -2.6,0.5 -4.1,1.6 -1,1 -2.1,2.6 -2.1,5.2 l 0,108 c 0,2.6 0.5,4.1 2.1,5.2 2,0.9 3.6,1.4 4.6,1.4 z M 273.1,260 c 2.1,2.1 4.1,4.1 5.2,6.7 1,2.6 1.6,5.7 1.6,9.3 0,3.6 -0.5,6.2 -1.6,8.8 -1,2.6 -2.6,4.7 -4.7,6.2 -2.1,1.6 -4.7,3.1 -7.2,4.1 -2.6,1 -6.2,1.6 -9.8,1.6 l -23.3,0 0,-42.9 19.1,0 c 5.2,0 9.3,0.5 12.4,1.6 3.7,1 6.3,2.6 8.3,4.6 z m -12.4,-56.8 c 2.6,1 5.2,2.1 6.7,3.6 1.6,1.6 3.1,3.6 3.6,6.2 1,2.6 1,5.2 1,7.8 0,2.6 -0.5,5.2 -1,7.8 -1,2.6 -2.1,4.7 -3.6,6.7 -1.6,2.1 -3.6,3.1 -6.2,4.7 -2.6,1 -5.7,1.6 -10.3,1.6 l -18.1,0 0,-39.3 16.5,0 c 5.2,-0.2 8.9,0.4 11.4,0.9 z"
       id="path3341"
       inkscape:connector-curvature="0"
       style="fill:#344e9d" /></g></svg>