<svg id="svg" version="1.1" width="400" height="392" xmlns="http://www.w3.org/2000/svg" xmlns:xlink="http://www.w3.org/1999/xlink" style="display: block;"><g id="svgg"><path id="path0" d="M269.550 5.629 C 271.972 6.322,273.678 8.028,274.371 10.450 L 274.915 12.353 274.701 10.645 C 274.271 7.213,272.787 5.729,269.355 5.299 L 267.647 5.085 269.550 5.629 M288.759 13.452 C 289.370 13.713,290.114 14.367,290.411 14.904 C 290.709 15.442,290.959 15.654,290.966 15.374 C 290.987 14.622,289.164 12.938,288.351 12.959 C 287.880 12.971,288.015 13.134,288.759 13.452 M391.373 141.244 C 393.202 141.762,394.369 142.910,394.832 144.649 C 395.042 145.435,395.231 145.764,395.254 145.380 C 395.385 143.111,392.981 140.704,390.699 140.820 C 390.314 140.839,390.618 141.030,391.373 141.244 M396.961 181.850 C 397.554 181.939,398.525 181.939,399.118 181.850 C 399.711 181.760,399.225 181.686,398.039 181.686 C 396.853 181.686,396.368 181.760,396.961 181.850 M395.777 237.647 C 395.777 238.402,395.858 238.711,395.957 238.333 C 396.055 237.956,396.055 237.338,395.957 236.961 C 395.858 236.583,395.777 236.892,395.777 237.647 M0.000 242.353 C 0.000 242.569,0.882 242.745,1.961 242.745 C 3.039 242.745,3.922 242.569,3.922 242.353 C 3.922 242.137,3.039 241.961,1.961 241.961 C 0.882 241.961,0.000 242.137,0.000 242.353 M84.746 366.777 C 84.680 367.917,85.756 370.101,86.608 370.557 C 87.921 371.259,87.971 371.037,86.735 369.997 C 86.093 369.457,85.391 368.354,85.177 367.546 C 84.962 366.739,84.769 366.393,84.746 366.777 M274.357 381.582 C 274.002 383.801,272.060 385.813,269.594 386.517 L 267.647 387.072 269.355 386.858 C 272.733 386.435,274.202 385.005,274.745 381.610 C 274.886 380.724,274.914 380.000,274.806 380.000 C 274.698 380.000,274.496 380.712,274.357 381.582 " stroke="none" fill="#000000" fill-rule="evenodd"></path><path id="path1" d="M175.882 81.833 C 169.685 82.088,169.433 82.410,170.778 88.363 C 171.575 91.892,171.957 92.845,173.117 94.200 C 177.457 99.270,179.253 114.365,176.052 118.860 C 173.512 122.428,162.141 122.973,158.169 119.717 C 153.238 115.674,150.844 109.051,149.854 96.712 C 149.349 90.427,149.343 90.421,144.009 91.046 C 139.103 91.622,139.705 91.179,137.297 95.987 C 135.344 99.887,135.299 100.049,135.878 101.167 C 137.380 104.072,138.630 114.458,138.371 121.877 C 138.145 128.343,136.415 130.010,128.540 131.353 C 126.055 131.778,124.066 132.311,123.977 132.579 C 123.009 135.482,118.920 137.412,112.461 138.013 C 109.975 138.244,106.904 138.748,105.637 139.134 L 103.333 139.834 103.015 143.713 C 102.711 147.427,102.740 147.671,103.691 149.419 C 104.238 150.423,104.946 152.364,105.265 153.732 C 105.625 155.273,106.210 156.584,106.802 157.176 L 107.758 158.132 110.875 157.094 C 112.887 156.424,114.382 155.649,115.090 154.911 C 119.314 150.501,125.867 150.659,129.442 155.255 C 130.213 156.247,131.360 157.315,131.991 157.627 C 136.250 159.739,137.638 162.266,137.643 167.922 C 137.648 172.813,139.153 177.727,141.328 179.955 C 143.331 182.006,144.697 185.668,145.138 190.170 C 146.355 202.576,146.939 205.054,149.218 207.451 C 152.180 210.566,152.830 212.862,153.882 223.922 C 154.547 230.912,155.262 233.365,157.589 236.655 C 160.330 240.529,161.954 247.828,161.958 256.296 C 161.962 263.295,160.657 265.173,154.464 267.077 C 152.871 267.566,151.127 268.359,150.588 268.837 C 150.049 269.316,149.217 269.909,148.739 270.155 C 148.261 270.400,147.144 271.823,146.257 273.317 L 144.643 276.033 144.910 279.683 C 145.536 288.246,147.427 294.083,148.875 291.922 C 151.995 287.266,153.582 286.682,163.922 286.389 C 173.115 286.128,175.799 285.480,178.495 282.868 L 179.931 281.476 181.315 282.532 C 182.076 283.112,182.754 283.707,182.820 283.853 C 182.887 283.998,183.565 284.583,184.328 285.152 C 185.091 285.721,186.228 286.956,186.856 287.897 C 187.484 288.838,188.396 290.050,188.882 290.590 C 191.053 293.002,192.921 299.031,193.560 305.686 C 193.787 308.045,195.432 313.333,195.940 313.333 C 196.033 313.333,196.780 312.992,197.599 312.574 C 198.418 312.156,200.536 311.444,202.306 310.992 C 204.077 310.540,206.465 309.710,207.613 309.146 L 209.701 308.122 208.582 306.464 C 207.358 304.650,206.480 301.321,206.102 297.059 C 205.969 295.549,205.575 292.015,205.227 289.205 C 203.665 276.592,207.087 270.588,215.837 270.588 C 223.250 270.588,225.082 272.255,226.131 279.953 C 226.803 284.891,227.623 287.636,228.874 289.139 C 230.517 291.114,232.505 295.065,233.067 297.477 C 234.151 302.120,234.884 302.580,240.381 302.055 C 245.681 301.550,245.787 301.439,246.032 296.180 C 246.287 290.711,244.951 283.839,243.144 281.323 C 240.166 277.176,239.019 269.559,240.937 266.661 C 242.272 264.644,245.824 262.894,249.314 262.535 C 252.381 262.219,254.094 261.172,255.260 258.899 C 256.824 255.849,258.734 254.837,264.314 254.106 C 268.375 253.573,269.149 253.152,270.053 250.988 C 270.895 248.973,272.427 247.554,274.510 246.863 C 276.566 246.180,277.968 244.871,279.131 242.549 C 280.061 240.693,280.811 239.981,283.002 238.880 C 285.314 237.718,286.275 236.348,286.275 234.213 C 286.275 231.579,287.413 224.412,288.222 221.961 C 289.597 217.790,290.049 212.062,289.124 210.532 C 288.016 208.700,287.111 204.850,286.646 200.000 C 286.226 195.613,285.253 189.869,284.670 188.337 C 284.458 187.778,283.608 187.095,282.536 186.621 C 280.085 185.536,278.167 183.756,277.027 181.506 C 276.498 180.462,275.999 179.608,275.918 179.608 C 275.027 179.608,261.705 176.003,261.060 175.588 C 260.585 175.281,258.499 174.641,256.426 174.166 C 251.530 173.043,250.936 172.640,252.064 171.205 C 253.114 169.871,253.640 167.322,254.094 161.373 C 254.602 154.721,255.696 150.634,257.436 148.894 C 258.054 148.277,258.056 148.096,257.469 146.329 C 256.573 143.632,254.637 135.844,254.300 133.582 C 253.587 128.801,251.976 125.809,248.396 122.614 C 247.227 121.571,245.691 119.718,244.982 118.496 C 243.361 115.702,240.694 114.631,233.922 114.054 C 231.549 113.852,226.873 113.340,223.529 112.917 C 217.086 112.101,211.040 111.831,210.242 112.325 C 208.815 113.207,203.933 113.619,200.820 113.120 C 192.583 111.801,191.027 109.426,190.183 96.876 C 189.350 84.474,186.427 81.400,175.882 81.833 M213.922 135.176 C 215.833 136.174,216.477 136.879,217.789 139.412 C 219.081 141.906,219.433 142.309,221.505 143.656 C 227.429 147.509,227.329 164.461,221.360 168.423 C 218.903 170.054,218.693 170.301,217.257 173.266 C 215.747 176.382,214.157 177.306,208.317 178.458 L 203.888 179.332 202.238 181.486 C 199.679 184.825,198.251 185.384,190.980 185.886 C 187.637 186.117,183.755 186.452,182.353 186.630 C 176.977 187.314,175.434 185.530,173.296 176.162 C 172.621 173.204,171.667 170.078,171.176 169.216 C 170.685 168.353,170.064 166.956,169.795 166.110 C 169.527 165.265,168.992 164.030,168.606 163.365 C 166.683 160.054,165.177 149.370,166.201 146.300 C 167.083 143.652,169.163 141.793,172.335 140.816 C 173.836 140.354,175.336 139.737,175.669 139.446 C 176.407 138.801,182.488 135.745,184.118 135.201 C 188.003 133.903,211.445 133.884,213.922 135.176 M225.686 197.253 C 249.015 199.067,248.669 198.875,250.810 211.176 C 251.386 214.487,252.179 217.714,252.625 218.558 C 253.412 220.051,253.412 220.061,252.643 220.911 C 251.808 221.833,251.087 223.669,249.796 228.161 C 248.965 231.053,246.676 234.118,245.347 234.118 C 244.377 234.118,242.723 235.743,241.890 237.514 C 240.807 239.818,239.409 240.779,234.706 242.453 C 231.560 243.573,230.396 244.214,228.824 245.691 C 225.624 248.698,223.687 249.406,216.471 250.207 C 212.054 250.698,207.801 251.851,207.044 252.762 C 205.162 255.030,204.001 255.093,197.153 253.296 C 193.807 252.418,191.329 247.330,190.581 239.804 C 189.624 230.181,188.791 226.812,186.845 224.706 C 182.084 219.554,181.300 209.736,185.338 205.855 C 186.108 205.115,187.577 203.677,188.603 202.659 C 190.982 200.298,193.465 199.238,197.647 198.799 C 216.802 196.787,218.500 196.694,225.686 197.253 " stroke="none" fill="#ffffff" fill-rule="evenodd"></path><path id="path2" d="M144.412 4.192 C 144.789 4.291,145.407 4.291,145.784 4.192 C 146.162 4.093,145.853 4.013,145.098 4.013 C 144.343 4.013,144.034 4.093,144.412 4.192 M253.039 4.192 C 253.417 4.291,254.034 4.291,254.412 4.192 C 254.789 4.093,254.480 4.013,253.725 4.013 C 252.971 4.013,252.662 4.093,253.039 4.192 M127.616 6.230 C 126.431 6.952,125.144 9.196,125.633 9.686 C 125.770 9.823,125.882 9.664,125.882 9.334 C 125.882 8.403,127.450 6.631,128.790 6.048 C 129.456 5.758,129.735 5.515,129.412 5.507 C 129.088 5.499,128.280 5.825,127.616 6.230 M267.843 7.255 C 267.843 7.633,272.617 12.220,272.810 12.027 C 273.077 11.760,272.236 10.195,271.226 9.080 C 270.146 7.889,267.843 6.646,267.843 7.255 M110.290 13.202 C 110.018 13.312,109.611 13.783,109.386 14.250 C 109.037 14.973,109.052 15.007,109.488 14.481 C 109.770 14.142,110.353 13.662,110.784 13.415 C 111.565 12.967,111.231 12.823,110.290 13.202 M283.731 13.343 C 283.854 13.541,284.673 13.919,285.552 14.183 C 287.556 14.783,289.163 16.366,289.961 18.526 C 290.541 20.095,290.564 20.113,290.340 18.824 C 290.015 16.950,289.235 15.524,288.157 14.828 C 286.971 14.062,283.444 12.878,283.731 13.343 M301.781 22.663 C 303.399 23.434,305.490 25.555,305.490 26.426 C 305.490 26.691,305.754 27.251,306.076 27.670 C 306.436 28.139,306.336 27.629,305.815 26.343 C 304.903 24.092,303.291 22.574,301.373 22.161 C 300.379 21.947,300.442 22.025,301.781 22.663 M312.557 30.294 C 313.272 30.779,314.094 31.794,314.383 32.549 C 314.870 33.818,314.893 33.833,314.695 32.745 C 314.482 31.571,312.542 29.412,311.701 29.412 C 311.456 29.412,311.842 29.809,312.557 30.294 M70.590 39.018 C 70.084 39.556,69.744 40.063,69.835 40.143 C 69.926 40.223,70.410 39.783,70.912 39.164 C 72.035 37.780,71.837 37.690,70.590 39.018 M336.003 46.252 C 336.730 46.713,337.632 47.805,338.053 48.734 C 338.902 50.603,339.112 50.076,338.296 48.125 C 337.688 46.669,337.062 46.089,335.686 45.704 C 334.871 45.476,334.925 45.568,336.003 46.252 M54.667 54.667 C 53.933 55.400,53.334 56.326,53.334 56.725 C 53.334 57.198,53.574 56.984,54.020 56.112 C 54.397 55.375,55.321 54.449,56.072 54.053 C 56.951 53.590,57.182 53.333,56.719 53.333 C 56.324 53.333,55.400 53.933,54.667 54.667 M341.594 55.087 C 343.629 56.147,344.041 56.570,345.097 58.685 C 345.512 59.516,345.855 59.931,345.860 59.608 C 345.890 57.694,342.298 54.104,340.392 54.142 C 340.069 54.149,340.610 54.574,341.594 55.087 M46.453 62.531 C 45.923 63.061,45.490 63.718,45.490 63.991 C 45.490 64.264,45.761 64.102,46.092 63.630 C 46.422 63.158,47.079 62.501,47.551 62.170 C 48.023 61.839,48.186 61.569,47.913 61.569 C 47.639 61.569,46.982 62.002,46.453 62.531 M351.805 62.459 C 352.538 62.948,353.446 63.963,353.823 64.714 C 354.200 65.464,354.509 65.849,354.509 65.569 C 354.510 64.526,353.283 62.739,352.170 62.164 C 350.472 61.286,350.281 61.441,351.805 62.459 M377.182 102.659 C 377.761 103.259,378.310 103.700,378.400 103.638 C 378.626 103.485,376.799 101.569,376.427 101.569 C 376.263 101.569,376.602 102.059,377.182 102.659 M388.008 141.910 C 388.124 142.098,388.739 142.356,389.375 142.483 C 390.803 142.769,393.135 145.037,393.501 146.498 C 393.775 147.590,395.294 149.837,395.294 149.151 C 395.294 148.949,395.147 148.617,394.967 148.412 C 394.787 148.207,394.342 147.231,393.979 146.243 C 393.616 145.255,392.837 144.000,392.248 143.453 C 390.907 142.210,387.406 140.936,388.008 141.910 M4.013 150.588 C 4.013 151.343,4.093 151.652,4.192 151.275 C 4.291 150.897,4.291 150.279,4.192 149.902 C 4.093 149.525,4.013 149.833,4.013 150.588 M395.785 167.647 C 395.790 168.510,395.870 168.817,395.964 168.329 C 396.057 167.841,396.054 167.135,395.956 166.760 C 395.858 166.385,395.781 166.784,395.785 167.647 M0.882 172.438 C 1.475 172.528,2.446 172.528,3.039 172.438 C 3.632 172.348,3.147 172.274,1.961 172.274 C 0.775 172.274,0.289 172.348,0.882 172.438 M395.979 184.412 C 395.535 185.730,396.151 186.275,398.085 186.275 C 399.951 186.275,400.000 186.245,400.000 185.098 C 400.000 183.821,396.385 183.204,395.979 184.412 M396.078 193.137 C 396.078 194.052,396.209 194.118,398.039 194.118 C 399.869 194.118,400.000 194.052,400.000 193.137 C 400.000 192.222,399.869 192.157,398.039 192.157 C 396.209 192.157,396.078 192.222,396.078 193.137 M395.804 227.059 C 395.804 228.245,395.877 228.730,395.967 228.137 C 396.057 227.544,396.057 226.574,395.967 225.980 C 395.877 225.387,395.804 225.873,395.804 227.059 M2.059 237.936 C 0.175 238.068,-0.000 238.162,-0.000 239.040 C 0.000 240.687,3.762 240.484,4.005 238.824 C 4.100 238.176,4.164 237.680,4.148 237.720 C 4.131 237.759,3.191 237.857,2.059 237.936 M393.797 248.038 C 393.551 248.579,392.772 249.373,392.067 249.803 C 391.361 250.233,390.981 250.586,391.222 250.587 C 392.229 250.590,394.928 247.739,394.409 247.220 C 394.319 247.129,394.044 247.498,393.797 248.038 M4.405 252.941 C 4.405 253.696,4.485 254.005,4.584 253.627 C 4.683 253.250,4.683 252.632,4.584 252.255 C 4.485 251.877,4.405 252.186,4.405 252.941 M378.275 286.906 C 377.933 288.428,376.308 290.004,374.510 290.556 L 373.137 290.978 374.489 290.777 C 376.884 290.422,379.280 287.788,378.707 286.140 C 378.620 285.890,378.426 286.235,378.275 286.906 M345.304 332.941 C 344.758 334.675,343.508 336.074,341.633 337.050 C 340.627 337.574,340.069 338.008,340.392 338.015 C 342.361 338.054,346.303 333.981,345.779 332.447 C 345.688 332.180,345.474 332.402,345.304 332.941 M77.672 359.344 C 77.645 360.124,79.660 362.353,80.392 362.353 C 80.641 362.353,80.285 361.882,79.601 361.306 C 78.917 360.731,78.209 359.893,78.027 359.444 C 77.740 358.733,77.694 358.720,77.672 359.344 M85.659 364.942 C 86.462 368.159,87.671 369.436,90.812 370.381 C 93.134 371.080,93.002 370.825,90.402 369.595 C 88.177 368.543,86.910 367.186,86.453 365.365 C 86.307 364.783,86.005 364.193,85.782 364.055 C 85.515 363.890,85.473 364.193,85.659 364.942 M270.065 382.418 C 267.745 384.805,267.425 385.545,269.084 384.689 C 270.418 384.000,271.760 382.701,272.390 381.490 C 273.559 379.243,272.895 379.508,270.065 382.418 M266.779 386.549 C 266.301 387.045,266.053 387.451,266.228 387.451 C 266.610 387.451,268.037 385.926,267.808 385.762 C 267.720 385.699,267.256 386.053,266.779 386.549 M141.667 388.113 C 142.044 388.212,142.662 388.212,143.039 388.113 C 143.417 388.015,143.108 387.934,142.353 387.934 C 141.598 387.934,141.289 388.015,141.667 388.113 M250.314 390.196 C 250.314 391.382,250.387 391.868,250.477 391.275 C 250.567 390.681,250.567 389.711,250.477 389.118 C 250.387 388.525,250.314 389.010,250.314 390.196 " stroke="none" fill="#008080" fill-rule="evenodd"></path><path id="path3" d="M156.078 1.961 L 156.078 3.922 151.078 3.998 C 148.328 4.041,143.873 4.104,141.176 4.139 C 125.969 4.335,125.180 4.612,124.541 9.969 C 124.249 12.411,125.005 12.159,117.806 12.217 C 114.375 12.245,111.913 12.390,112.335 12.539 C 112.980 12.769,112.908 12.850,111.874 13.056 C 110.445 13.342,109.039 14.701,108.974 15.858 C 108.935 16.547,108.902 16.562,108.746 15.961 C 108.512 15.059,109.596 13.393,110.709 12.945 C 111.539 12.611,111.541 12.598,110.761 12.574 C 108.913 12.517,108.427 13.427,108.487 16.832 L 108.542 20.000 105.938 20.072 C 104.505 20.111,102.927 20.121,102.430 20.093 C 101.268 20.028,100.028 21.268,100.093 22.430 C 100.121 22.927,100.111 24.330,100.072 25.547 L 100.000 27.762 94.412 28.021 C 91.338 28.164,87.853 28.316,86.667 28.358 C 84.193 28.447,84.205 28.422,84.261 33.431 L 84.291 36.078 81.067 36.140 C 79.294 36.174,77.581 36.187,77.261 36.168 C 76.940 36.150,76.557 36.330,76.410 36.569 C 76.262 36.808,75.205 37.243,74.061 37.536 C 71.492 38.193,70.336 39.239,69.624 41.549 C 69.281 42.664,69.064 42.997,69.047 42.438 C 68.966 39.793,70.694 37.898,73.943 37.068 L 76.275 36.472 73.810 36.631 C 69.846 36.888,68.971 37.784,68.482 42.086 C 68.279 43.870,68.330 44.307,68.719 44.087 C 69.117 43.862,69.118 43.912,68.725 44.335 C 68.456 44.625,68.234 45.577,68.232 46.451 C 68.230 47.325,68.117 48.966,67.981 50.098 L 67.734 52.157 64.282 52.157 C 62.384 52.157,60.722 52.333,60.588 52.549 C 60.455 52.765,60.136 52.938,59.879 52.935 C 59.560 52.931,59.578 52.824,59.935 52.597 C 60.627 52.159,56.669 52.492,54.962 53.016 C 53.391 53.499,52.528 55.217,52.592 57.733 L 52.635 59.412 52.972 57.694 C 53.578 54.613,55.543 52.880,58.321 52.981 C 59.255 53.014,59.195 53.071,57.900 53.375 C 55.579 53.920,54.199 55.104,53.696 56.980 C 52.798 60.329,52.743 60.392,50.695 60.394 C 46.091 60.400,44.854 61.464,44.546 65.686 L 44.346 68.431 44.715 66.118 C 45.321 62.324,47.077 60.715,50.478 60.838 C 51.512 60.875,51.664 60.941,50.980 61.056 C 47.415 61.654,45.701 63.192,45.268 66.178 C 45.120 67.202,44.802 68.285,44.561 68.586 C 44.321 68.887,44.078 70.637,44.022 72.475 C 43.900 76.487,44.370 76.016,40.381 76.131 C 36.145 76.253,36.223 76.173,36.129 80.466 C 36.033 84.805,36.402 84.388,32.578 84.468 C 28.667 84.549,28.502 84.709,28.411 88.523 C 28.269 94.499,27.947 95.691,25.977 97.525 C 24.868 98.558,24.295 99.386,24.436 99.752 C 24.616 100.223,24.396 100.293,23.295 100.114 C 22.251 99.944,21.788 100.066,21.328 100.632 C 20.997 101.040,20.838 101.152,20.974 100.882 C 21.111 100.613,21.024 100.392,20.781 100.392 C 20.518 100.392,20.440 100.709,20.588 101.176 C 20.725 101.608,20.687 101.961,20.504 101.961 C 20.321 101.961,20.131 104.168,20.081 106.866 L 19.991 111.771 17.942 113.746 C 16.328 115.301,16.012 115.795,16.455 116.069 C 16.806 116.286,16.375 116.330,15.312 116.188 C 14.160 116.033,13.689 116.094,13.862 116.374 C 14.026 116.639,13.812 116.709,13.272 116.568 C 12.557 116.381,12.460 116.479,12.647 117.194 C 12.771 117.671,12.708 117.942,12.502 117.814 C 12.295 117.686,12.175 118.238,12.225 119.088 C 12.274 119.913,12.279 123.191,12.236 126.373 L 12.157 132.157 10.686 132.203 L 9.216 132.250 10.392 132.570 C 11.162 132.779,10.684 132.819,9.010 132.683 C 4.332 132.305,4.387 132.149,4.151 146.471 C 4.104 149.275,4.034 153.025,3.994 154.804 L 3.922 158.039 1.961 158.039 C 0.131 158.039,0.000 158.105,0.000 159.020 C 0.000 159.935,0.131 160.000,1.961 160.000 C 3.791 160.000,3.922 160.065,3.922 160.980 C 3.922 161.895,3.791 161.961,1.961 161.961 L 0.000 161.961 -0.000 167.038 L -0.000 172.116 2.059 172.260 L 4.118 172.404 2.059 172.476 L 0.000 172.549 0.000 205.330 L 0.000 238.112 2.075 237.977 C 4.142 237.844,4.150 237.847,3.992 238.922 C 3.843 239.929,3.707 240.000,1.916 240.000 C 0.134 240.000,0.000 240.068,0.000 240.980 C 0.000 241.895,0.131 241.961,1.961 241.961 C 3.818 241.961,3.926 242.018,4.006 243.039 C 4.146 244.836,4.303 250.777,4.411 258.431 L 4.514 265.686 5.955 268.675 C 7.477 271.832,8.603 273.006,10.809 273.734 C 12.302 274.227,12.259 274.070,12.316 279.103 C 12.365 283.421,12.689 283.744,16.878 283.670 L 20.000 283.615 20.065 286.415 C 20.101 287.956,20.193 290.010,20.269 290.980 C 20.346 291.951,20.459 293.804,20.521 295.098 C 20.584 296.392,20.668 297.659,20.710 297.913 C 20.849 298.778,22.014 299.608,23.067 299.592 C 24.117 299.577,24.117 299.577,22.874 299.036 C 21.557 298.463,20.768 297.380,20.809 296.202 C 20.828 295.670,20.932 295.736,21.222 296.463 C 21.863 298.069,22.792 298.822,24.464 299.089 C 25.766 299.297,25.912 299.401,25.280 299.669 C 24.753 299.892,25.099 299.964,26.373 299.896 L 28.235 299.798 28.293 302.938 C 28.382 307.735,28.367 307.652,29.118 307.593 C 29.495 307.563,29.804 307.695,29.804 307.887 C 29.804 308.078,30.234 308.235,30.759 308.235 C 31.397 308.235,32.453 308.974,33.942 310.464 L 36.171 312.693 36.199 317.132 C 36.215 319.573,36.334 321.398,36.463 321.188 C 36.593 320.978,36.907 321.375,37.161 322.070 C 37.580 323.214,37.569 323.261,37.047 322.572 C 36.585 321.963,36.471 321.934,36.471 322.426 C 36.471 323.391,37.540 324.041,38.734 323.802 C 39.677 323.614,39.933 323.784,40.692 325.103 C 41.172 325.938,42.096 326.934,42.744 327.316 C 43.520 327.775,43.922 328.326,43.922 328.931 C 43.922 329.437,44.060 329.765,44.229 329.660 C 44.398 329.556,44.530 329.942,44.523 330.519 C 44.511 331.464,44.636 331.559,45.784 331.469 C 46.536 331.410,47.059 331.553,47.059 331.817 C 47.059 332.133,47.796 332.190,49.553 332.010 L 52.046 331.754 52.277 333.698 C 52.403 334.767,52.408 336.250,52.288 336.993 C 51.978 338.899,53.258 340.179,55.164 339.869 C 55.907 339.749,57.401 339.755,58.485 339.883 L 60.456 340.117 60.192 342.390 C 60.047 343.641,60.076 344.894,60.258 345.175 C 60.440 345.456,60.588 346.127,60.588 346.667 C 60.588 347.471,60.776 347.645,61.637 347.634 C 62.214 347.627,62.601 347.759,62.497 347.928 C 62.392 348.097,62.714 348.237,63.212 348.240 C 63.814 348.243,64.418 348.708,65.013 349.627 C 65.505 350.387,66.344 351.207,66.876 351.450 C 67.408 351.692,67.846 352.083,67.849 352.318 C 67.852 352.553,68.024 352.480,68.230 352.157 C 68.488 351.753,68.531 352.029,68.369 353.036 C 68.103 354.698,68.675 355.686,69.905 355.686 C 70.617 355.686,70.593 355.607,69.661 354.873 C 69.092 354.426,68.627 353.905,68.627 353.715 C 68.627 353.525,69.061 353.802,69.590 354.332 C 70.119 354.861,70.958 355.297,71.453 355.300 C 72.190 355.305,72.247 355.379,71.765 355.710 C 71.340 356.002,71.884 356.082,73.725 355.999 L 76.275 355.882 76.525 357.939 C 76.918 361.155,77.196 361.904,78.252 362.596 C 79.203 363.219,84.425 364.027,84.100 363.501 C 84.012 363.358,83.121 363.149,82.121 363.036 C 79.035 362.688,77.495 361.039,77.075 357.631 L 76.859 355.882 77.490 357.907 C 78.276 360.430,79.808 361.934,82.219 362.546 C 84.335 363.083,84.459 363.254,85.048 366.438 C 85.756 370.273,87.644 371.464,93.039 371.480 C 94.495 371.484,95.686 371.620,95.686 371.782 C 95.686 371.943,98.438 372.081,101.802 372.088 C 109.020 372.103,108.141 371.594,108.371 375.889 C 108.591 380.013,108.512 379.608,109.098 379.608 C 109.464 379.608,109.464 379.503,109.098 379.137 C 108.328 378.367,108.565 377.979,109.350 378.725 C 109.747 379.103,109.998 379.549,109.908 379.716 C 109.818 379.884,110.420 379.981,111.245 379.932 C 112.070 379.883,113.892 379.879,115.294 379.923 L 117.843 380.003 118.567 381.763 C 119.396 383.779,121.154 385.427,122.834 385.763 C 123.469 385.890,124.078 386.225,124.186 386.507 C 124.497 387.319,126.695 387.862,129.641 387.855 C 132.348 387.849,141.146 388.015,145.784 388.159 L 148.235 388.235 148.235 390.196 L 148.235 392.157 199.216 392.157 L 250.196 392.157 250.196 390.196 C 250.196 387.595,250.900 387.673,251.083 390.294 L 251.227 392.353 251.300 390.294 L 251.373 388.235 253.627 388.172 C 265.757 387.828,267.436 387.715,267.759 387.213 C 267.913 386.975,268.736 386.651,269.588 386.495 C 271.749 386.097,274.004 383.793,274.350 381.629 L 274.610 380.000 277.991 379.933 C 283.030 379.833,283.042 379.832,283.397 379.447 C 283.590 379.237,283.484 379.208,283.137 379.378 C 282.616 379.633,282.616 379.607,283.138 379.147 C 283.545 378.788,283.767 377.657,283.857 375.490 C 283.929 373.765,284.023 372.318,284.066 372.275 C 284.108 372.232,287.270 372.148,291.091 372.089 C 294.913 372.030,298.039 371.837,298.039 371.660 C 298.039 371.483,298.348 371.390,298.725 371.453 C 299.193 371.532,299.375 371.350,299.297 370.882 C 299.233 370.505,299.388 370.196,299.641 370.196 C 299.959 370.196,300.021 369.702,299.843 368.590 C 299.702 367.706,299.695 366.402,299.829 365.692 L 300.071 364.401 303.467 364.108 C 305.335 363.947,308.584 363.786,310.687 363.750 C 315.356 363.670,315.418 363.617,315.511 359.600 C 315.601 355.780,315.222 356.147,319.227 356.002 C 323.467 355.849,323.686 355.640,323.857 351.574 C 324.022 347.645,323.828 347.859,327.173 347.912 C 331.714 347.984,331.549 348.124,331.695 344.081 C 331.849 339.822,331.562 340.095,336.078 339.919 C 338.165 339.838,339.776 339.608,339.741 339.397 C 339.707 339.189,340.535 339.002,341.582 338.981 C 344.845 338.915,346.701 337.059,346.883 333.680 C 346.941 332.593,347.121 331.585,347.283 331.440 C 347.445 331.295,347.433 331.424,347.257 331.727 C 347.056 332.073,347.088 332.185,347.343 332.027 C 347.570 331.887,347.777 330.093,347.813 327.963 C 347.890 323.408,347.310 324.011,351.765 323.856 C 356.008 323.707,355.703 324.038,355.853 319.412 C 355.981 315.455,355.797 315.714,358.296 315.972 C 360.025 316.150,360.447 316.092,360.208 315.705 C 359.974 315.327,360.195 315.275,361.143 315.483 C 362.895 315.868,363.607 315.175,363.312 313.377 C 363.127 312.258,363.174 312.084,363.532 312.549 C 363.884 313.007,363.936 312.658,363.766 310.980 C 363.411 307.494,363.801 306.005,365.137 305.737 C 366.718 305.421,368.954 303.230,369.589 301.373 C 369.945 300.331,370.360 299.803,370.824 299.803 C 371.403 299.801,371.546 299.395,371.652 297.450 C 371.723 296.156,371.834 294.220,371.898 293.147 L 372.014 291.197 374.043 290.598 C 376.647 289.831,377.879 288.557,378.543 285.949 C 378.836 284.799,379.282 283.731,379.535 283.575 C 379.787 283.418,379.960 282.683,379.918 281.939 C 379.876 281.196,379.877 277.824,379.921 274.446 L 380.000 268.304 381.471 268.067 C 382.279 267.937,383.878 267.794,385.024 267.750 C 387.314 267.663,387.844 267.296,387.757 265.859 C 387.725 265.333,387.732 261.967,387.771 258.379 L 387.843 251.856 390.461 251.576 C 394.937 251.096,395.667 249.636,395.658 241.176 C 395.657 239.990,395.715 235.931,395.786 232.157 C 395.857 228.382,395.952 221.456,395.997 216.765 L 396.078 208.235 398.039 208.235 L 400.000 208.235 400.000 201.176 L 400.000 194.118 398.039 194.118 C 396.209 194.118,396.078 194.052,396.078 193.137 C 396.078 192.222,396.209 192.157,398.039 192.157 L 400.000 192.157 400.000 189.216 L 400.000 186.275 398.085 186.275 C 396.590 186.275,396.131 186.124,395.992 185.588 C 395.652 184.277,396.095 183.922,398.072 183.922 C 399.867 183.922,400.000 183.854,400.000 182.941 C 400.000 182.026,399.869 181.961,398.039 181.961 L 396.078 181.961 395.999 175.392 C 395.955 171.779,395.895 164.941,395.865 160.196 C 395.761 143.922,395.197 142.002,390.241 141.061 L 387.843 140.605 387.768 133.146 C 387.727 129.043,387.720 124.363,387.753 122.745 C 387.796 120.662,387.715 120.090,387.475 120.784 C 387.156 121.709,387.135 121.715,387.098 120.901 C 387.029 119.376,386.130 117.941,384.911 117.410 C 384.256 117.125,384.018 116.887,384.380 116.878 C 385.598 116.850,386.360 117.368,386.891 118.588 L 387.420 119.804 387.436 118.735 C 387.459 117.092,386.058 116.368,383.510 116.706 C 382.002 116.906,381.525 116.859,381.729 116.529 C 381.911 116.235,381.659 116.078,381.004 116.078 C 379.912 116.078,379.698 114.966,379.928 110.490 C 379.980 109.466,379.871 108.627,379.685 108.627 C 379.499 108.627,379.420 107.701,379.509 106.569 C 379.864 102.054,378.058 100.161,373.682 100.463 L 371.873 100.588 371.767 97.647 C 371.614 93.418,371.591 93.180,371.301 92.731 C 371.157 92.508,369.491 92.282,367.599 92.230 C 363.424 92.113,363.966 93.165,363.863 84.979 C 363.815 81.159,363.674 78.198,363.550 78.399 C 363.425 78.600,363.116 78.323,362.862 77.785 C 362.447 76.906,362.464 76.859,363.028 77.324 C 363.559 77.762,363.625 77.751,363.452 77.255 C 363.329 76.901,362.832 76.697,362.203 76.742 C 361.535 76.790,361.254 76.663,361.423 76.389 C 361.608 76.089,361.088 76.041,359.683 76.228 C 355.985 76.718,355.692 76.477,355.764 72.999 C 355.891 66.792,355.254 62.674,354.005 61.638 C 353.454 61.181,347.485 59.940,347.059 60.194 C 346.951 60.258,346.845 59.457,346.824 58.412 C 346.758 55.155,344.845 53.242,341.588 53.176 C 340.543 53.155,339.738 53.049,339.798 52.941 C 340.070 52.450,339.105 47.162,338.602 46.386 C 337.800 45.148,337.004 44.826,334.118 44.569 L 331.569 44.342 334.096 44.920 C 336.610 45.495,338.214 46.542,338.642 47.888 C 339.106 49.352,339.473 52.512,339.155 52.315 C 338.973 52.203,338.820 51.724,338.815 51.251 C 338.774 47.128,332.159 43.414,325.980 44.046 L 323.922 44.257 323.852 42.030 C 323.813 40.806,323.804 39.451,323.832 39.020 C 323.913 37.729,323.543 36.471,323.082 36.471 C 322.813 36.471,322.779 36.663,322.991 36.979 C 323.179 37.259,323.038 37.168,322.678 36.778 C 322.294 36.361,321.563 36.099,320.913 36.145 C 320.303 36.187,318.900 36.190,317.796 36.150 L 315.788 36.078 315.519 33.349 C 315.171 29.823,314.517 28.989,311.945 28.796 L 310.000 28.649 311.618 29.044 C 314.051 29.637,315.347 31.713,315.251 34.862 L 315.208 36.275 314.892 34.706 C 314.142 30.992,313.215 30.017,309.680 29.224 L 307.647 28.768 307.150 26.247 C 306.350 22.192,304.716 20.904,300.098 20.691 C 299.181 20.648,298.431 20.453,298.431 20.256 C 298.431 20.059,297.770 20.005,296.961 20.136 C 296.152 20.268,294.584 20.269,293.475 20.139 L 291.461 19.902 291.199 17.929 C 290.699 14.161,289.719 13.269,285.458 12.704 C 282.908 12.366,282.989 12.760,285.583 13.317 C 288.947 14.038,290.181 15.276,290.794 18.543 C 291.114 20.248,290.426 20.581,290.012 18.922 C 289.612 17.317,288.381 15.498,287.366 15.011 C 286.874 14.774,285.632 14.196,284.607 13.725 C 283.582 13.255,282.842 12.710,282.963 12.514 C 283.084 12.318,282.426 12.196,281.493 12.242 C 280.564 12.288,278.635 12.288,277.207 12.242 L 274.610 12.157 274.350 10.528 C 274.004 8.364,271.749 6.060,269.588 5.662 C 268.736 5.505,267.915 5.185,267.763 4.950 C 267.469 4.494,264.990 4.307,257.451 4.172 C 254.863 4.125,252.083 4.050,251.275 4.004 L 249.804 3.922 249.804 1.961 C 249.804 0.131,249.739 0.000,248.824 0.000 C 247.900 0.000,247.843 0.121,247.843 2.102 C 247.843 4.134,247.810 4.199,246.863 4.018 C 245.976 3.848,245.882 3.646,245.882 1.915 L 245.882 0.000 200.980 0.000 L 156.078 0.000 156.078 1.961 M130.446 5.499 C 127.512 6.419,126.400 7.486,125.638 10.109 C 124.872 12.742,124.542 12.568,125.127 9.840 C 125.699 7.171,126.817 5.929,129.229 5.281 C 132.142 4.500,133.090 4.669,130.446 5.499 M267.627 5.468 C 268.006 5.887,268.838 6.345,269.476 6.485 C 271.860 7.008,275.328 12.157,273.297 12.157 C 272.523 12.157,267.843 7.767,267.843 7.041 C 267.843 6.816,267.410 6.198,266.881 5.668 C 266.323 5.111,266.133 4.706,266.428 4.706 C 266.708 4.706,267.248 5.049,267.627 5.468 M304.884 23.579 C 305.850 24.728,306.917 27.723,306.506 28.134 C 306.390 28.251,305.958 27.571,305.547 26.624 C 304.672 24.606,303.472 23.401,301.532 22.590 C 298.933 21.505,298.954 20.813,301.560 21.657 C 303.066 22.145,304.256 22.833,304.884 23.579 M342.541 55.014 C 344.055 55.872,345.879 58.396,345.860 59.608 C 345.855 59.931,345.512 59.516,345.097 58.685 C 344.041 56.570,343.629 56.147,341.594 55.087 C 340.610 54.574,340.069 54.149,340.392 54.142 C 340.716 54.136,341.683 54.528,342.541 55.014 M352.801 62.157 C 353.872 62.859,354.650 64.440,355.066 66.765 C 355.452 68.918,355.052 68.558,354.340 66.112 C 353.610 63.598,352.115 62.159,349.568 61.518 C 348.612 61.277,347.749 60.949,347.651 60.790 C 347.347 60.299,351.749 61.468,352.801 62.157 M183.978 77.275 C 191.326 78.020,193.136 80.890,194.510 93.972 C 195.265 101.158,194.990 100.522,199.094 104.573 C 203.573 108.994,204.002 109.154,206.278 107.252 C 211.429 102.949,220.108 102.973,225.791 107.308 C 226.925 108.173,227.920 108.410,233.062 109.043 C 246.040 110.639,247.347 111.115,249.690 115.102 C 250.379 116.276,251.635 117.596,252.891 118.466 C 256.028 120.642,257.051 122.441,258.221 127.843 C 259.301 132.825,259.566 133.566,260.836 135.141 C 263.110 137.963,264.727 143.119,264.767 147.678 C 264.786 149.892,263.496 152.540,261.411 154.567 C 258.843 157.062,257.189 163.056,258.409 165.446 C 259.317 167.225,259.675 167.516,262.048 168.392 C 263.096 168.779,264.638 169.825,265.599 170.800 C 267.192 172.415,267.624 172.610,272.483 173.904 C 279.481 175.767,280.488 176.374,282.391 179.877 C 282.735 180.511,283.627 181.319,284.373 181.673 C 287.858 183.327,288.612 184.766,290.413 193.199 C 291.365 197.662,292.119 200.249,292.736 201.176 C 297.650 208.564,298.075 220.972,293.641 227.617 C 291.584 230.700,291.099 231.780,290.374 234.902 C 289.243 239.768,288.214 241.418,285.382 242.908 C 284.253 243.502,283.495 244.270,283.001 245.321 C 281.795 247.888,278.656 250.553,276.780 250.601 C 275.929 250.623,274.754 251.894,273.744 253.884 C 272.411 256.513,270.790 257.439,265.062 258.845 C 260.300 260.014,260.128 260.093,259.401 261.444 C 258.342 263.410,256.720 264.497,253.367 265.487 C 251.768 265.960,249.819 266.750,249.036 267.245 L 247.613 268.143 247.909 271.817 C 248.071 273.837,248.475 276.774,248.805 278.342 C 249.135 279.911,249.685 283.970,250.027 287.362 C 250.369 290.754,250.964 295.080,251.350 296.975 L 252.050 300.421 250.860 302.065 C 248.352 305.527,245.510 306.627,238.824 306.727 C 232.331 306.823,230.495 305.784,229.173 301.268 C 228.737 299.779,228.094 298.759,226.868 297.610 C 224.278 295.183,223.497 292.853,221.164 280.612 C 220.136 275.219,220.638 275.686,215.873 275.686 C 211.135 275.686,211.530 275.351,210.180 280.521 C 209.280 283.970,209.279 284.001,209.940 288.424 C 210.305 290.866,210.717 294.581,210.855 296.680 L 211.106 300.497 213.195 302.477 C 219.051 308.028,216.872 312.599,207.255 314.932 C 204.189 315.676,203.528 315.992,202.226 317.338 C 196.427 323.328,191.645 320.965,190.023 311.307 C 189.231 306.590,188.392 304.012,187.238 302.745 C 185.850 301.222,184.814 298.927,183.873 295.294 C 182.679 290.682,181.032 288.838,178.431 289.199 C 177.461 289.333,171.995 289.970,166.284 290.614 C 160.574 291.257,155.800 291.912,155.675 292.068 C 155.549 292.225,154.948 293.034,154.338 293.866 C 149.564 300.378,142.306 297.542,140.744 288.555 C 140.320 286.115,139.556 283.235,139.047 282.157 C 138.537 281.078,137.848 279.273,137.515 278.146 L 136.910 276.095 138.266 274.224 C 139.538 272.469,140.214 271.432,142.813 267.247 C 144.320 264.820,146.593 263.645,151.633 262.688 C 157.487 261.576,157.647 261.405,157.647 256.268 C 157.647 251.590,156.796 248.567,154.855 246.357 C 152.299 243.446,150.838 238.610,150.210 230.980 C 149.625 223.873,148.563 219.156,147.141 217.349 C 144.633 214.162,143.503 210.940,142.364 203.725 C 140.875 194.290,140.421 192.531,138.670 189.412 C 135.855 184.396,135.243 182.249,133.560 171.489 C 132.348 163.745,132.529 164.166,129.780 162.701 C 128.519 162.029,126.759 160.856,125.870 160.095 L 124.254 158.711 120.264 159.936 C 109.303 163.301,103.625 162.275,101.076 156.468 C 100.516 155.193,99.578 153.889,98.787 153.286 C 95.639 150.885,93.934 141.706,96.011 138.345 C 97.596 135.780,102.536 134.232,111.809 133.392 C 116.013 133.012,117.484 132.505,117.864 131.305 C 118.644 128.849,122.033 127.298,128.039 126.650 C 131.514 126.275,132.088 126.101,133.075 125.129 L 134.189 124.031 133.775 118.976 C 133.547 116.196,133.245 112.432,133.103 110.610 C 132.849 107.340,132.824 107.277,131.081 105.512 C 128.596 102.997,127.704 100.873,128.053 98.302 C 129.123 90.416,133.521 86.995,143.529 86.265 C 151.660 85.673,153.778 87.591,154.297 96.014 C 154.602 100.968,155.405 103.758,157.015 105.454 C 158.142 106.641,160.867 111.988,161.600 114.451 C 162.412 117.176,163.179 117.462,168.056 116.861 C 170.311 116.582,172.165 116.337,172.176 116.315 C 172.186 116.293,172.416 114.386,172.687 112.078 C 173.239 107.371,173.143 106.983,170.727 104.147 C 168.047 101.002,167.020 97.486,166.283 88.920 C 165.485 79.657,166.177 79.036,179.664 76.903 C 179.803 76.881,181.744 77.048,183.978 77.275 M30.255 85.336 C 29.760 85.683,29.203 86.344,29.016 86.807 C 28.745 87.478,28.672 87.509,28.652 86.961 C 28.624 86.183,29.950 84.706,30.675 84.706 C 30.939 84.706,30.750 84.989,30.255 85.336 M376.432 101.403 C 378.099 102.070,379.242 104.052,379.189 106.184 C 379.170 106.981,379.035 106.778,378.662 105.392 C 377.903 102.572,376.743 101.628,373.333 101.056 C 372.522 100.919,372.571 100.882,373.620 100.838 C 374.316 100.808,375.582 101.063,376.432 101.403 M7.647 133.485 C 6.171 134.128,5.663 134.739,5.169 136.471 C 4.953 137.225,4.761 137.529,4.741 137.144 C 4.678 135.892,5.826 133.722,6.747 133.352 C 8.151 132.789,8.967 132.909,7.647 133.485 M187.556 139.381 C 186.859 139.697,185.729 140.594,185.044 141.374 C 183.121 143.565,176.771 145.882,172.692 145.882 C 170.830 145.882,170.164 147.715,170.609 151.618 C 171.181 156.637,171.234 156.783,173.144 158.521 C 176.227 161.327,176.547 162.409,177.858 174.462 C 178.753 182.693,179.363 183.003,191.457 181.359 C 196.209 180.714,195.866 180.899,198.410 177.601 C 199.740 175.877,202.640 174.674,207.255 173.932 C 212.687 173.059,212.713 173.043,213.725 170.003 C 214.551 167.518,215.112 166.746,219.338 162.273 C 220.074 161.494,221.569 157.311,221.569 156.032 C 221.569 154.548,220.092 151.498,218.211 149.098 C 214.481 144.337,214.156 143.850,213.488 142.030 C 212.331 138.873,213.102 139.055,200.291 138.923 C 190.865 138.827,188.598 138.908,187.556 139.381 M390.717 142.104 C 392.474 142.837,394.069 144.849,394.365 146.706 C 394.502 147.557,394.766 148.347,394.953 148.463 C 395.141 148.579,395.294 148.864,395.294 149.096 C 395.294 149.822,393.788 147.640,393.501 146.498 C 393.135 145.037,390.803 142.769,389.375 142.483 C 388.739 142.356,388.124 142.098,388.008 141.910 C 387.686 141.389,389.280 141.503,390.717 142.104 M211.961 201.992 C 200.581 202.483,197.291 203.272,194.798 206.104 C 193.930 207.089,191.923 208.771,190.336 209.842 C 187.056 212.055,186.946 212.377,188.773 214.411 C 191.608 217.567,192.507 220.354,193.929 230.392 C 195.436 241.032,196.804 243.855,201.642 246.307 L 203.873 247.438 207.721 246.897 C 209.837 246.600,213.422 246.140,215.686 245.874 C 220.398 245.321,221.566 244.849,222.682 243.043 C 224.313 240.405,226.921 239.213,232.745 238.448 C 236.601 237.941,237.410 237.484,238.334 235.294 C 239.349 232.889,240.403 231.770,242.795 230.563 C 245.515 229.190,245.654 228.928,246.426 223.725 C 247.604 215.792,246.061 207.748,242.807 204.857 C 239.630 202.033,230.546 201.189,211.961 201.992 M394.909 246.046 C 394.249 249.223,391.640 251.629,389.702 250.847 C 389.435 250.739,389.569 250.636,390.000 250.618 C 392.336 250.521,394.224 248.238,394.730 244.897 C 394.893 243.821,395.100 243.158,395.190 243.422 C 395.280 243.687,395.153 244.867,394.909 246.046 M6.152 265.393 C 6.598 266.334,7.314 266.997,8.404 267.479 C 10.587 268.445,12.264 270.251,12.071 271.428 C 11.930 272.289,11.766 272.199,9.696 270.118 C 8.473 268.888,7.121 267.694,6.691 267.464 C 5.747 266.959,4.687 263.643,4.752 261.399 C 4.796 259.849,4.807 259.863,5.147 261.909 C 5.340 263.066,5.792 264.634,6.152 265.393 M14.003 282.443 C 14.349 282.825,14.449 283.137,14.226 283.137 C 13.609 283.137,13.030 282.280,12.768 280.978 C 12.542 279.861,12.551 279.851,12.953 280.776 C 13.185 281.311,13.657 282.061,14.003 282.443 M379.133 285.763 C 378.633 289.573,377.995 290.267,374.118 291.220 L 371.961 291.750 374.249 291.554 C 378.368 291.201,380.042 289.063,379.531 284.810 C 379.440 284.053,379.319 284.342,379.133 285.763 M367.843 300.438 C 367.843 300.679,367.158 301.562,366.321 302.399 C 363.943 304.777,362.649 303.528,364.975 301.100 C 366.018 300.012,367.843 299.591,367.843 300.438 M362.753 314.696 C 362.480 315.025,362.071 315.294,361.844 315.294 C 361.617 315.294,361.771 314.964,362.186 314.560 C 363.061 313.711,363.486 313.813,362.753 314.696 M345.030 334.592 C 344.139 336.208,341.656 338.040,340.392 338.015 C 340.069 338.008,340.627 337.574,341.633 337.050 C 343.508 336.074,344.758 334.675,345.304 332.941 C 345.474 332.402,345.688 332.180,345.779 332.447 C 345.870 332.715,345.534 333.680,345.030 334.592 M54.032 339.191 C 54.403 339.407,54.498 339.589,54.244 339.596 C 53.646 339.611,52.546 338.511,52.561 337.913 C 52.568 337.659,52.750 337.754,52.966 338.125 C 53.182 338.495,53.662 338.975,54.032 339.191 M314.348 362.619 C 313.766 363.120,312.991 363.523,312.625 363.514 C 312.259 363.506,312.516 363.257,313.198 362.960 C 313.878 362.664,314.568 362.010,314.730 361.505 C 314.932 360.876,315.085 360.764,315.216 361.149 C 315.320 361.457,314.930 362.118,314.348 362.619 M86.404 365.319 C 87.090 367.428,88.206 368.534,91.076 369.951 C 94.258 371.522,94.211 371.713,90.913 370.609 C 87.043 369.314,86.494 368.776,85.558 365.368 C 85.059 363.548,85.814 363.505,86.404 365.319 M122.834 381.078 C 123.395 381.672,124.050 382.897,124.289 383.803 C 124.755 385.562,126.227 387.029,127.602 387.104 C 128.224 387.138,128.267 387.193,127.771 387.324 C 126.738 387.597,124.686 386.333,124.276 385.171 C 124.072 384.592,123.335 383.743,122.639 383.286 C 121.942 382.828,121.054 381.902,120.664 381.227 L 119.956 380.000 120.885 380.000 C 121.396 380.000,122.273 380.485,122.834 381.078 M273.600 381.449 C 273.047 383.250,271.011 385.335,269.476 385.672 C 268.838 385.812,268.006 386.270,267.627 386.689 C 267.248 387.108,266.708 387.451,266.428 387.451 C 266.133 387.451,266.323 387.046,266.881 386.488 C 267.410 385.959,267.843 385.341,267.843 385.116 C 267.843 384.337,272.343 380.066,273.199 380.033 C 273.994 380.002,274.018 380.086,273.600 381.449 " stroke="none" fill="#00cf68" fill-rule="evenodd"></path><path id="path4" d="M245.882 1.915 C 245.882 3.646,245.976 3.848,246.863 4.018 C 247.810 4.199,247.843 4.134,247.843 2.102 C 247.843 0.121,247.787 0.000,246.863 0.000 C 245.951 0.000,245.882 0.134,245.882 1.915 M266.972 5.316 C 267.451 5.652,267.843 6.160,267.843 6.445 C 267.843 6.730,268.373 7.183,269.021 7.452 C 270.333 7.995,272.341 10.100,272.737 11.347 C 272.878 11.792,273.230 12.157,273.519 12.157 C 275.356 12.157,271.654 6.963,269.476 6.485 C 268.838 6.345,268.006 5.887,267.627 5.468 C 267.248 5.049,266.749 4.706,266.519 4.706 C 266.288 4.706,266.492 4.981,266.972 5.316 M126.637 6.637 C 126.006 7.267,125.497 8.017,125.506 8.303 C 125.515 8.589,125.783 8.342,126.102 7.753 C 126.422 7.165,127.165 6.422,127.753 6.102 C 128.342 5.783,128.589 5.515,128.303 5.506 C 128.017 5.497,127.267 6.006,126.637 6.637 M286.124 13.773 C 288.190 14.496,289.421 15.778,290.224 18.041 C 290.913 19.984,290.966 20.043,290.755 18.641 C 290.289 15.539,288.858 13.918,286.254 13.541 L 284.902 13.345 286.124 13.773 M300.000 21.538 C 300.000 21.717,300.544 21.972,301.209 22.105 C 303.128 22.488,304.730 23.884,305.729 26.042 C 306.357 27.397,306.575 27.661,306.409 26.863 C 306.080 25.278,305.343 23.873,304.391 23.011 C 303.508 22.212,300.000 21.035,300.000 21.538 M311.765 29.426 C 312.304 29.660,313.142 30.224,313.627 30.680 C 314.113 31.136,314.510 31.329,314.510 31.110 C 314.510 30.443,313.208 29.487,311.961 29.237 C 310.833 29.011,310.825 29.019,311.765 29.426 M70.559 38.725 L 69.608 39.804 70.784 38.824 C 71.431 38.284,72.034 37.799,72.124 37.745 C 72.214 37.691,72.112 37.647,71.898 37.647 C 71.684 37.647,71.081 38.132,70.559 38.725 M335.490 45.541 C 337.110 46.156,337.683 46.669,338.280 48.039 C 338.589 48.749,338.799 48.946,338.808 48.536 C 338.831 47.505,336.818 45.546,335.490 45.306 L 334.314 45.093 335.490 45.541 M47.599 61.348 C 46.288 61.918,45.098 63.325,45.099 64.303 C 45.099 64.632,45.408 64.284,45.785 63.529 C 46.323 62.453,46.893 62.013,48.431 61.488 C 49.510 61.120,50.039 60.818,49.608 60.817 C 49.176 60.816,48.273 61.055,47.599 61.348 M351.637 61.937 C 352.542 62.348,353.544 63.177,353.876 63.791 C 354.207 64.402,354.485 64.721,354.494 64.499 C 354.539 63.351,351.906 61.161,350.510 61.185 C 350.229 61.190,350.737 61.528,351.637 61.937 M175.096 77.627 C 166.841 78.937,165.564 80.574,166.283 88.920 C 167.020 97.486,168.047 101.002,170.727 104.147 C 173.143 106.983,173.239 107.371,172.687 112.078 C 172.416 114.386,172.186 116.293,172.176 116.315 C 172.165 116.337,170.311 116.582,168.056 116.861 C 163.179 117.462,162.412 117.176,161.600 114.451 C 160.867 111.988,158.142 106.641,157.015 105.454 C 155.405 103.758,154.602 100.968,154.297 96.014 C 153.778 87.591,151.660 85.673,143.529 86.265 C 133.521 86.995,129.123 90.416,128.053 98.302 C 127.704 100.873,128.596 102.997,131.081 105.512 C 132.824 107.277,132.849 107.340,133.103 110.610 C 133.245 112.432,133.547 116.196,133.775 118.976 L 134.189 124.031 133.075 125.129 C 132.088 126.101,131.514 126.275,128.039 126.650 C 122.033 127.298,118.644 128.849,117.864 131.305 C 117.484 132.505,116.013 133.012,111.809 133.392 C 102.536 134.232,97.596 135.780,96.011 138.345 C 93.934 141.706,95.639 150.885,98.787 153.286 C 99.578 153.889,100.516 155.193,101.076 156.468 C 103.625 162.275,109.303 163.301,120.264 159.936 L 124.254 158.711 125.870 160.095 C 126.759 160.856,128.519 162.029,129.780 162.701 C 132.529 164.166,132.348 163.745,133.560 171.489 C 135.243 182.249,135.855 184.396,138.670 189.412 C 140.421 192.531,140.875 194.290,142.364 203.725 C 143.503 210.940,144.633 214.162,147.141 217.349 C 148.563 219.156,149.625 223.873,150.210 230.980 C 150.838 238.610,152.299 243.446,154.855 246.357 C 156.796 248.567,157.647 251.590,157.647 256.268 C 157.647 261.405,157.487 261.576,151.633 262.688 C 146.593 263.645,144.320 264.820,142.813 267.247 C 140.214 271.432,139.538 272.469,138.266 274.224 L 136.910 276.095 137.515 278.146 C 137.848 279.273,138.537 281.078,139.047 282.157 C 139.556 283.235,140.320 286.115,140.744 288.555 C 142.306 297.542,149.564 300.378,154.338 293.866 C 154.948 293.034,155.549 292.225,155.675 292.068 C 155.800 291.912,160.574 291.257,166.284 290.614 C 171.995 289.970,177.461 289.333,178.431 289.199 C 181.032 288.838,182.679 290.682,183.873 295.294 C 184.814 298.927,185.850 301.222,187.238 302.745 C 188.392 304.012,189.231 306.590,190.023 311.307 C 191.645 320.965,196.427 323.328,202.226 317.338 C 203.528 315.992,204.189 315.676,207.255 314.932 C 216.872 312.599,219.051 308.028,213.195 302.477 L 211.106 300.497 210.855 296.680 C 210.717 294.581,210.305 290.866,209.940 288.424 C 209.279 284.001,209.280 283.970,210.180 280.521 C 211.530 275.351,211.135 275.686,215.873 275.686 C 220.638 275.686,220.136 275.219,221.164 280.612 C 223.497 292.853,224.278 295.183,226.868 297.610 C 228.094 298.759,228.737 299.779,229.173 301.268 C 230.495 305.784,232.331 306.823,238.824 306.727 C 245.510 306.627,248.352 305.527,250.860 302.065 L 252.050 300.421 251.350 296.975 C 250.964 295.080,250.369 290.754,250.027 287.362 C 249.685 283.970,249.135 279.911,248.805 278.342 C 248.475 276.774,248.071 273.837,247.909 271.817 L 247.613 268.143 249.036 267.245 C 249.819 266.750,251.768 265.960,253.367 265.487 C 256.720 264.497,258.342 263.410,259.401 261.444 C 260.128 260.093,260.300 260.014,265.062 258.845 C 270.790 257.439,272.411 256.513,273.744 253.884 C 274.754 251.894,275.929 250.623,276.780 250.601 C 278.656 250.553,281.795 247.888,283.001 245.321 C 283.495 244.270,284.253 243.502,285.382 242.908 C 288.214 241.418,289.243 239.768,290.374 234.902 C 291.099 231.780,291.584 230.700,293.641 227.617 C 298.075 220.972,297.650 208.564,292.736 201.176 C 292.119 200.249,291.365 197.662,290.413 193.199 C 288.612 184.766,287.858 183.327,284.373 181.673 C 283.627 181.319,282.735 180.511,282.391 179.877 C 280.488 176.374,279.481 175.767,272.483 173.904 C 267.624 172.610,267.192 172.415,265.599 170.800 C 264.638 169.825,263.096 168.779,262.048 168.392 C 259.675 167.516,259.317 167.225,258.409 165.446 C 257.189 163.056,258.843 157.062,261.411 154.567 C 263.496 152.540,264.786 149.892,264.767 147.678 C 264.727 143.119,263.110 137.963,260.836 135.141 C 259.566 133.566,259.301 132.825,258.221 127.843 C 257.051 122.441,256.028 120.642,252.891 118.466 C 251.635 117.596,250.379 116.276,249.690 115.102 C 247.347 111.115,246.040 110.639,233.062 109.043 C 227.920 108.410,226.925 108.173,225.791 107.308 C 220.108 102.973,211.429 102.949,206.278 107.252 C 204.002 109.154,203.573 108.994,199.094 104.573 C 194.990 100.522,195.265 101.158,194.510 93.972 C 193.608 85.385,191.910 80.229,189.451 78.614 C 188.252 77.826,181.400 76.628,179.664 76.903 C 179.525 76.925,177.470 77.251,175.096 77.627 M184.132 82.990 C 188.189 84.615,189.572 87.789,190.183 96.876 C 191.027 109.426,192.583 111.801,200.820 113.120 C 203.933 113.619,208.815 113.207,210.242 112.325 C 211.040 111.831,217.086 112.101,223.529 112.917 C 226.873 113.340,231.549 113.852,233.922 114.054 C 240.694 114.631,243.361 115.702,244.982 118.496 C 245.691 119.718,247.227 121.571,248.396 122.614 C 251.976 125.809,253.587 128.801,254.300 133.582 C 254.637 135.844,256.573 143.632,257.469 146.329 C 258.056 148.096,258.054 148.277,257.436 148.894 C 255.696 150.634,254.602 154.721,254.094 161.373 C 253.640 167.322,253.114 169.871,252.064 171.205 C 250.936 172.640,251.530 173.043,256.426 174.166 C 258.499 174.641,260.585 175.281,261.060 175.588 C 261.705 176.003,275.027 179.608,275.918 179.608 C 275.999 179.608,276.498 180.462,277.027 181.506 C 278.167 183.756,280.085 185.536,282.536 186.621 C 283.608 187.095,284.458 187.778,284.670 188.337 C 285.253 189.869,286.226 195.613,286.646 200.000 C 287.111 204.850,288.016 208.700,289.124 210.532 C 290.049 212.062,289.597 217.790,288.222 221.961 C 287.413 224.412,286.275 231.579,286.275 234.213 C 286.275 236.348,285.314 237.718,283.002 238.880 C 280.811 239.981,280.061 240.693,279.131 242.549 C 277.968 244.871,276.566 246.180,274.510 246.863 C 272.427 247.554,270.895 248.973,270.053 250.988 C 269.149 253.152,268.375 253.573,264.314 254.106 C 258.734 254.837,256.824 255.849,255.260 258.899 C 254.094 261.172,252.381 262.219,249.314 262.535 C 245.824 262.894,242.272 264.644,240.937 266.661 C 239.019 269.559,240.166 277.176,243.144 281.323 C 244.951 283.839,246.287 290.711,246.032 296.180 C 245.787 301.439,245.681 301.550,240.381 302.055 C 234.884 302.580,234.151 302.120,233.067 297.477 C 232.505 295.065,230.517 291.114,228.874 289.139 C 227.623 287.636,226.803 284.891,226.131 279.953 C 225.082 272.255,223.250 270.588,215.837 270.588 C 207.087 270.588,203.665 276.592,205.227 289.205 C 205.575 292.015,205.969 295.549,206.102 297.059 C 206.480 301.321,207.358 304.650,208.582 306.464 L 209.701 308.122 207.613 309.146 C 206.465 309.710,204.077 310.540,202.306 310.992 C 200.536 311.444,198.418 312.156,197.599 312.574 C 196.780 312.992,196.033 313.333,195.940 313.333 C 195.432 313.333,193.787 308.045,193.560 305.686 C 192.921 299.031,191.053 293.002,188.882 290.590 C 188.396 290.050,187.484 288.838,186.856 287.897 C 186.228 286.956,185.091 285.721,184.328 285.152 C 183.565 284.583,182.887 283.998,182.820 283.853 C 182.754 283.707,182.076 283.112,181.315 282.532 L 179.931 281.476 178.495 282.868 C 175.799 285.480,173.115 286.128,163.922 286.389 C 153.582 286.682,151.995 287.266,148.875 291.922 C 147.427 294.083,145.536 288.246,144.910 279.683 L 144.643 276.033 146.257 273.317 C 147.144 271.823,148.261 270.400,148.739 270.155 C 149.217 269.909,150.049 269.316,150.588 268.837 C 151.127 268.359,152.871 267.566,154.464 267.077 C 160.657 265.173,161.962 263.295,161.958 256.296 C 161.954 247.828,160.330 240.529,157.589 236.655 C 155.262 233.365,154.547 230.912,153.882 223.922 C 152.830 212.862,152.180 210.566,149.218 207.451 C 146.939 205.054,146.355 202.576,145.138 190.170 C 144.697 185.668,143.331 182.006,141.328 179.955 C 139.153 177.727,137.648 172.813,137.643 167.922 C 137.638 162.266,136.250 159.739,131.991 157.627 C 131.360 157.315,130.213 156.247,129.442 155.255 C 125.867 150.659,119.314 150.501,115.090 154.911 C 114.382 155.649,112.887 156.424,110.875 157.094 L 107.758 158.132 106.802 157.176 C 106.210 156.584,105.625 155.273,105.265 153.732 C 104.946 152.364,104.238 150.423,103.691 149.419 C 102.740 147.671,102.711 147.427,103.015 143.713 L 103.333 139.834 105.637 139.134 C 106.904 138.748,109.975 138.244,112.461 138.013 C 118.920 137.412,123.009 135.482,123.977 132.579 C 124.066 132.311,126.055 131.778,128.540 131.353 C 136.415 130.010,138.145 128.343,138.371 121.877 C 138.630 114.458,137.380 104.072,135.878 101.167 C 135.299 100.049,135.344 99.887,137.297 95.987 C 139.705 91.179,139.103 91.622,144.009 91.046 C 149.343 90.421,149.349 90.427,149.854 96.712 C 150.844 109.051,153.238 115.674,158.169 119.717 C 162.141 122.973,173.512 122.428,176.052 118.860 C 179.253 114.365,177.457 99.270,173.117 94.200 C 171.251 92.020,169.445 84.725,170.407 83.255 C 171.693 81.293,179.515 81.142,184.132 82.990 M189.804 134.505 C 187.324 134.672,184.765 134.985,184.118 135.201 C 182.488 135.745,176.407 138.801,175.669 139.446 C 175.336 139.737,173.836 140.354,172.335 140.816 C 169.163 141.793,167.083 143.652,166.201 146.300 C 165.177 149.370,166.683 160.054,168.606 163.365 C 168.992 164.030,169.527 165.265,169.795 166.110 C 170.064 166.956,170.685 168.353,171.176 169.216 C 171.667 170.078,172.621 173.204,173.296 176.162 C 175.434 185.530,176.977 187.314,182.353 186.630 C 183.755 186.452,187.637 186.117,190.980 185.886 C 198.251 185.384,199.679 184.825,202.238 181.486 L 203.888 179.332 208.317 178.458 C 214.157 177.306,215.747 176.382,217.257 173.266 C 218.693 170.301,218.903 170.054,221.360 168.423 C 227.329 164.461,227.429 147.509,221.505 143.656 C 219.433 142.309,219.081 141.906,217.789 139.412 C 215.314 134.634,214.591 134.377,203.333 134.280 C 198.373 134.238,192.284 134.339,189.804 134.505 M212.287 139.619 C 212.578 139.936,213.118 141.021,213.488 142.030 C 214.156 143.850,214.481 144.337,218.211 149.098 C 220.092 151.498,221.569 154.548,221.569 156.032 C 221.569 157.311,220.074 161.494,219.338 162.273 C 215.112 166.746,214.551 167.518,213.725 170.003 C 212.713 173.043,212.687 173.059,207.255 173.932 C 202.640 174.674,199.740 175.877,198.410 177.601 C 195.866 180.899,196.209 180.714,191.457 181.359 C 179.363 183.003,178.753 182.693,177.858 174.462 C 176.547 162.409,176.227 161.327,173.144 158.521 C 171.234 156.783,171.181 156.637,170.609 151.618 C 170.164 147.715,170.830 145.882,172.692 145.882 C 176.771 145.882,183.121 143.565,185.044 141.374 C 187.278 138.830,187.515 138.792,200.291 138.923 C 209.781 139.021,211.849 139.141,212.287 139.619 M392.398 143.511 C 392.855 144.060,393.423 144.863,393.661 145.294 C 393.899 145.725,394.099 145.855,394.106 145.582 C 394.112 145.310,393.544 144.507,392.843 143.800 C 392.142 143.092,391.942 142.962,392.398 143.511 M0.000 160.980 C 0.000 161.895,0.131 161.961,1.961 161.961 C 3.791 161.961,3.922 161.895,3.922 160.980 C 3.922 160.065,3.791 160.000,1.961 160.000 C 0.131 160.000,0.000 160.065,0.000 160.980 M395.798 164.510 C 395.801 165.588,395.878 165.983,395.968 165.387 C 396.058 164.791,396.055 163.908,395.962 163.426 C 395.869 162.944,395.795 163.431,395.798 164.510 M214.706 197.119 C 212.967 197.256,202.831 198.254,197.647 198.799 C 193.465 199.238,190.982 200.298,188.603 202.659 C 187.577 203.677,186.108 205.115,185.338 205.855 C 181.300 209.736,182.084 219.554,186.845 224.706 C 188.791 226.812,189.624 230.181,190.581 239.804 C 191.329 247.330,193.807 252.418,197.153 253.296 C 204.001 255.093,205.162 255.030,207.044 252.762 C 207.801 251.851,212.054 250.698,216.471 250.207 C 223.687 249.406,225.624 248.698,228.824 245.691 C 230.396 244.214,231.560 243.573,234.706 242.453 C 239.409 240.779,240.807 239.818,241.890 237.514 C 242.723 235.743,244.377 234.118,245.347 234.118 C 246.676 234.118,248.965 231.053,249.796 228.161 C 251.087 223.669,251.808 221.833,252.643 220.911 C 253.412 220.061,253.412 220.051,252.625 218.558 C 252.179 217.714,251.386 214.487,250.810 211.176 C 248.887 200.127,247.976 199.282,236.863 198.231 C 223.231 196.941,219.387 196.749,214.706 197.119 M231.634 201.964 C 237.313 202.398,241.162 203.394,242.807 204.857 C 246.061 207.748,247.604 215.792,246.426 223.725 C 245.654 228.928,245.515 229.190,242.795 230.563 C 240.403 231.770,239.349 232.889,238.334 235.294 C 237.410 237.484,236.601 237.941,232.745 238.448 C 226.921 239.213,224.313 240.405,222.682 243.043 C 221.566 244.849,220.398 245.321,215.686 245.874 C 213.422 246.140,209.837 246.600,207.721 246.897 L 203.873 247.438 201.642 246.307 C 196.804 243.855,195.436 241.032,193.929 230.392 C 192.507 220.354,191.608 217.567,188.773 214.411 C 186.946 212.377,187.056 212.055,190.336 209.842 C 191.923 208.771,193.930 207.089,194.798 206.104 C 197.291 203.272,200.581 202.483,211.961 201.992 C 222.516 201.536,225.954 201.531,231.634 201.964 M395.777 230.196 C 395.777 230.951,395.858 231.260,395.957 230.882 C 396.055 230.505,396.055 229.887,395.957 229.510 C 395.858 229.132,395.777 229.441,395.777 230.196 M4.431 256.078 C 4.431 257.265,4.505 257.750,4.595 257.157 C 4.684 256.564,4.684 255.593,4.595 255.000 C 4.505 254.407,4.431 254.892,4.431 256.078 M5.098 264.228 C 5.098 265.085,6.214 267.451,6.618 267.451 C 6.829 267.451,8.110 268.554,9.465 269.902 C 11.743 272.169,11.939 272.283,12.076 271.425 C 12.232 270.443,10.114 267.843,9.157 267.843 C 7.960 267.843,6.631 266.821,5.895 265.335 C 5.457 264.450,5.099 263.952,5.098 264.228 M378.039 288.372 C 377.716 289.052,376.833 289.916,376.078 290.294 C 375.324 290.671,374.935 290.979,375.216 290.980 C 376.312 290.981,377.953 289.783,378.429 288.633 C 379.098 287.019,378.783 286.809,378.039 288.372 M364.975 301.100 C 362.649 303.528,363.943 304.777,366.321 302.399 C 367.158 301.562,367.843 300.679,367.843 300.438 C 367.843 299.591,366.018 300.012,364.975 301.100 M77.647 360.271 C 77.647 361.284,80.731 363.174,82.280 363.110 C 82.644 363.095,82.114 362.828,81.103 362.517 C 80.075 362.201,78.909 361.498,78.456 360.923 C 78.011 360.357,77.647 360.064,77.647 360.271 M86.654 368.128 C 86.887 368.609,87.470 369.192,87.950 369.424 C 88.762 369.818,88.773 369.807,88.106 369.269 C 87.711 368.951,87.127 368.368,86.809 367.973 C 86.272 367.305,86.261 367.316,86.654 368.128 M120.664 381.227 C 121.054 381.902,121.950 382.828,122.655 383.286 C 123.360 383.743,124.039 384.507,124.164 384.984 C 124.289 385.460,124.682 386.078,125.038 386.356 C 125.593 386.790,125.621 386.778,125.234 386.275 C 124.986 385.951,124.574 384.892,124.318 383.922 C 123.764 381.817,122.173 380.000,120.885 380.000 L 119.956 380.000 120.664 381.227 M272.737 380.810 C 272.341 382.056,270.333 384.162,269.021 384.705 C 268.373 384.974,267.843 385.378,267.843 385.605 C 267.843 385.831,267.536 386.384,267.160 386.832 C 266.526 387.588,266.548 387.585,267.454 386.794 C 267.991 386.324,268.934 385.816,269.549 385.663 C 271.719 385.124,275.312 380.000,273.519 380.000 C 273.230 380.000,272.878 380.365,272.737 380.810 M250.706 390.196 C 250.706 391.382,250.779 391.868,250.869 391.275 C 250.959 390.681,250.959 389.711,250.869 389.118 C 250.779 388.525,250.706 389.010,250.706 390.196 " stroke="none" fill="#5ff6b6" fill-rule="evenodd"></path></g></svg>