<?xml version="1.0" encoding="utf-8"?>
<!-- Generator: Adobe Illustrator 21.0.0, SVG Export Plug-In . SVG Version: 6.00 Build 0)  -->
<svg version="1.1" id="Слой_1" xmlns="http://www.w3.org/2000/svg" xmlns:xlink="http://www.w3.org/1999/xlink" x="0px" y="0px"
	 viewBox="0 0 500 500" enable-background="new 0 0 500 500" xml:space="preserve">
<g>
	<path fill="#344E9D" d="M249.3,132C183.9,132,131,184.9,131,250.3s52.9,118.3,118.3,118.3s118.3-52.9,118.3-118.3
		S314.8,132,249.3,132L249.3,132z M249.3,354.7c-57.1,0-104.4-47.3-104.4-104.4s47.3-104.4,104.4-104.4s104.4,47.3,104.4,104.4
		S306.4,354.7,249.3,354.7L249.3,354.7z M249.3,354.7"/>
	<path fill="#344E9D" d="M278.6,225.3c0,4.2,2.8,7,7,7c4.2,0,7-2.8,7-7c0-16.3-15.8-29.1-36.2-31.5v-6.1c0-4.2-2.8-7-7-7s-7,2.8-7,7
		v6.1c-20.4,2.4-36.2,15.2-36.2,31.5c0,16.3,15.8,29.1,36.2,31.5v36.1c-12.3-2-22.3-9.2-22.3-17.5c0-4.2-2.8-7-7-7c-4.2,0-7,2.8-7,7
		c0,16.3,15.8,29.1,36.2,31.5v6.1c0,4.2,2.8,7,7,7s7-2.8,7-7v-6.1c20.4-2.4,36.2-15.2,36.2-31.5c0-16.3-15.8-29.1-36.2-31.5v-36.1
		C268.6,209.9,278.6,217,278.6,225.3L278.6,225.3z M220.1,225.3c0-8.2,10-15.4,22.3-17.5v34.9C230.1,240.7,220.1,233.5,220.1,225.3
		L220.1,225.3z M278.6,275.4c0,8.2-10,15.4-22.3,17.5v-34.9C268.6,260,278.6,267.2,278.6,275.4L278.6,275.4z M278.6,275.4"/>
</g>
</svg>
