<?xml version="1.0" encoding="utf-8"?>
<!-- Generator: Adobe Illustrator 21.0.0, SVG Export Plug-In . SVG Version: 6.00 Build 0)  -->
<svg version="1.1" id="Слой_1" xmlns="http://www.w3.org/2000/svg" xmlns:xlink="http://www.w3.org/1999/xlink" x="0px" y="0px"
	 viewBox="0 0 348 354" enable-background="new 0 0 348 354" xml:space="preserve">
<g>
	<g>
		<path fill="#344E9D" d="M329.1,122l-23.6-23.6c0,0,0,0,0,0c0,0,0,0,0,0l-23.6-23.6c-1.9-1.9-4.4-2.9-7.1-2.9
			c-2.7,0-5.2,1.1-7.1,2.9L256,86.5V27c0-5.5-4.5-10-10-10H26c-5.5,0-10,4.5-10,10v299.7c0,5.5,4.5,10,10,10h220c5.5,0,10-4.5,10-10
			V209.2l73-73C333,132.3,333,125.9,329.1,122L329.1,122z M236,316.7H36V37h200v69.5l-82.6,82.6c-1.4,1.4-2.3,3.1-2.7,5.1
			l-12.3,59.5c-0.7,3.3,0.3,6.7,2.7,9.1c1.9,1.9,4.4,2.9,7.1,2.9c0.7,0,1.4-0.1,2-0.2l59.5-12.3c1.9-0.4,3.7-1.3,5.1-2.7l21.3-21.3
			V316.7z M166.5,216.4l21,21l-26.5,5.5L166.5,216.4z M207.7,229.3l-33.1-33.1L274.8,96l9.5,9.5l-61.1,61.1
			c-3.9,3.9-3.9,10.2,0,14.1c2,1.9,4.5,2.9,7.1,2.9c2.6,0,5.1-1,7.1-2.9l61.1-61.1l9.5,9.5L207.7,229.3z M207.7,229.3"/>
	</g>
</g>
</svg>
