<?xml version="1.0" encoding="utf-8"?>
<!-- Generator: Adobe Illustrator 21.0.0, SVG Export Plug-In . SVG Version: 6.00 Build 0)  -->
<svg version="1.1" id="Слой_1" xmlns="http://www.w3.org/2000/svg" xmlns:xlink="http://www.w3.org/1999/xlink" x="0px" y="0px"
	 viewBox="0 0 500 500" enable-background="new 0 0 500 500" xml:space="preserve">
<g>
	<path fill="#344E9D" d="M494.6,274.9c0-24.1-15.1-44-36.2-51.9v-73.6c0-12.7-10.3-23.5-23.5-23.5H404V91.4
		c0-16.3-13.3-25.4-25.9-25.4H45.5C25.6,66,9.3,80.5,5.6,99.2C5,101.6,5,104,5,107c0,2.4,0,4.3,0.6,6V133C5,134.2,5,135.4,5,136.6
		v257.2c0,22.4,18.1,41,41,41h389.4c12.7,0,23.5-10.3,23.5-23.5v-84.5C479.5,319,494.6,299,494.6,274.9L494.6,274.9z M45.5,88.4
		h332.6c3.6,0,3.6,1.2,3.6,3v34.4H45.5c-1.2,0-2.4,0-3.6-0.6c-0.6,0-0.6,0-1.2-0.6c-0.6,0-1.2-0.6-1.8-0.6c-0.6,0-0.6-0.6-1.2-0.6
		c-0.6,0-1.2-0.6-1.8-0.6c-0.6,0-0.6-0.6-1.2-1.2l-2.5-2.5c-0.6-0.6-0.6-0.6-0.6-1.2c-0.6-0.6-0.6-1.2-1.2-1.8l-0.6-0.6
		c-0.6-0.6-0.6-1.2-1.2-2.4c-0.6-1.2-0.6-1.8-0.6-3c0-1.2-0.6-1.8-0.6-3c0-1.2,0-1.8,0.6-3v-0.6C29.1,95,36.4,88.4,45.5,88.4
		L45.5,88.4z M436,411.9c0,0.6-0.6,1.2-1.2,1.2H45.5c-10.3,0-18.7-8.4-18.7-18.7V143.3c0.6,0,0.6,0,1.2,0.6c0.6,0.6,1.8,0.6,2.4,1.2
		c0.6,0,1.2,0.6,1.8,0.6c0.6,0.6,1.8,0.6,3,0.6c0.6,0,1.2,0,1.8,0.6c1.2,0,1.8,0.6,3,0.6h394.9c0.6,0,1.2,0.6,1.2,1.2v70h-54.3
		c-30.8,0-55.6,24.8-55.6,55.6c0,30.8,24.8,55.6,55.6,55.6h54.3L436,411.9L436,411.9z M445.1,307.5L445.1,307.5
		c-2.4,0.6-4.2,0.6-6,0.6h-57.4c-18.1,0-33.2-15.1-33.2-33.2c0-18.1,15.1-33.2,33.2-33.2H439c1.8,0,4.2,0,6,0.6
		c15.7,3,27.2,16.3,27.2,32.6C472.2,291.2,460.8,304.5,445.1,307.5L445.1,307.5z M402.3,274.9c0,6.7-5.4,12.1-12.1,12.1
		c-6.7,0-12.1-5.4-12.1-12.1c0-6.7,5.4-12.1,12.1-12.1C396.8,262.8,402.3,268.2,402.3,274.9L402.3,274.9z M402.3,274.9"/>
</g>
<path fill="#344E9D" d="M203.9,181c-27.5,0-49.9,22.4-49.9,49.9s22.4,49.9,49.9,49.9s49.9-22.4,49.9-49.9S231.5,181,203.9,181z
	 M203.9,260.2c-16.2,0-29.3-13.2-29.3-29.3c0-16.2,13.2-29.3,29.3-29.3s29.3,13.2,29.3,29.3C233.3,247,220.1,260.2,203.9,260.2z"/>
<path fill="#344E9D" d="M203.9,289.3c-45.2,0-82.1,36.8-82.1,82.1c0,5.7,4.6,10.3,10.3,10.3h143.5c5.7,0,10.3-4.6,10.3-10.3
	C286,326.1,249.2,289.3,203.9,289.3z M203.9,309.9c30.2,0,55.7,21.8,60.6,51.2H143.3C148.2,331.7,173.7,309.9,203.9,309.9z"/>
</svg>
