<?xml version="1.0" encoding="utf-8"?>
<!-- Generator: Adobe Illustrator 21.0.0, SVG Export Plug-In . SVG Version: 6.00 Build 0)  -->
<svg version="1.1" id="Слой_1" xmlns="http://www.w3.org/2000/svg" xmlns:xlink="http://www.w3.org/1999/xlink" x="0px" y="0px"
	 viewBox="0 0 260 256" enable-background="new 0 0 260 256" xml:space="preserve">
<g>
	<path fill="#344E9D" d="M137.9,65.7c-8.4-2.8-18.1,0-25.1,5.6c-7,5.6-11.1,13.9-11.1,23.7c0,4.2,2.8,7,7,7c4.2,0,7-2.8,7-7
		c0-4.2,1.4-9.7,5.6-12.5c4.2-2.8,8.4-4.2,13.9-2.8c7,1.4,11.1,7,12.5,12.5c1.4,7,0,12.5-5.6,16.7c-11.1,8.4-16.7,20.9-16.7,33.4
		c0,4.2,2.8,7,7,7s7-2.8,5.6-7c0-8.4,5.6-16.7,12.5-22.3c9.7-8.4,13.9-19.5,11.1-30.6C158.8,76.8,149,68.5,137.9,65.7L137.9,65.7z
		 M137.9,65.7"/>
	<path fill="#344E9D" d="M126.8,178.4c-1.4,1.4-1.4,4.2-1.4,5.6c0,1.4,0,2.8,1.4,4.2c1.4,1.4,4.2,2.8,5.6,2.8c1.4,0,4.2-1.4,4.2-2.8
		c1.4,0,2.8-2.8,2.8-4.2c0-2.8-1.4-4.2-2.8-5.6C133.7,175.7,129.5,175.7,126.8,178.4L126.8,178.4z M126.8,178.4"/>
	<path fill="#344E9D" d="M132.3,10C66.9,10,14,62.9,14,128.3s52.9,118.3,118.3,118.3s118.3-52.9,118.3-118.3S197.8,10,132.3,10
		L132.3,10z M132.3,232.7c-57.1,0-104.4-47.3-104.4-104.4S75.3,23.9,132.3,23.9s104.4,47.3,104.4,104.4S189.4,232.7,132.3,232.7
		L132.3,232.7z M132.3,232.7"/>
</g>
</svg>
