<?xml version="1.0" encoding="utf-8"?>
<!-- Generator: Adobe Illustrator 21.0.0, SVG Export Plug-In . SVG Version: 6.00 Build 0)  -->
<svg version="1.1" id="Слой_1" xmlns="http://www.w3.org/2000/svg" xmlns:xlink="http://www.w3.org/1999/xlink" x="0px" y="0px"
	 viewBox="0 0 500 500" enable-background="new 0 0 500 500" xml:space="preserve">
<g>
	<path fill="#B0B0BD" d="M489.1,215.9L261.7,16.6c-6.3-5.5-15.7-5.5-22,0L12.3,215.9c-6.9,6.1-7.6,16.6-1.6,23.6
		c6.1,6.9,16.6,7.6,23.6,1.5l17.6-15.4v248.7c0,9.2,7.5,16.7,16.7,16.7h364.1c9.2,0,16.7-7.5,16.7-16.7V225.6l17.6,15.4
		c3.2,2.8,7.1,4.1,11,4.1c4.6,0,9.3-1.9,12.6-5.7C496.7,232.5,496,222,489.1,215.9L489.1,215.9z M212.1,457.6V319.8h77.2v137.7
		H212.1z M416,196.4v261.1h-93.3V303.1c0-9.2-7.5-16.7-16.7-16.7H195.4c-9.2,0-16.7,7.5-16.7,16.7v154.4H85.4V196.4c0,0,0-0.1,0-0.1
		L250.7,51.4L416,196.3C416,196.4,416,196.4,416,196.4L416,196.4z M416,196.4"/>
</g>
</svg>
