<?xml version="1.0" encoding="utf-8"?>
<!-- Generator: Adobe Illustrator 21.0.0, SVG Export Plug-In . SVG Version: 6.00 Build 0)  -->
<svg version="1.1" id="Режим_изоляции"
	 xmlns="http://www.w3.org/2000/svg" xmlns:xlink="http://www.w3.org/1999/xlink" x="0px" y="0px" viewBox="1196.9 2026 318 330"
	 enable-background="new 1196.9 2026 318 330" xml:space="preserve">
<g>
	<path fill="#344E9D" d="M1419.2,2130.9c-2.6,0-5.1,1-7.1,2.9l-46.9,46.9V2046c0-5.5-4.5-10-10-10c-5.5,0-10,4.5-10,10v134.8
		l-46.9-46.9c-3.9-3.9-10.2-3.9-14.1,0c-3.9,3.9-3.9,10.2,0,14.1l64,64c3.9,3.9,10.2,3.9,14.1,0l64-64c3.9-3.9,3.9-10.2,0-14.1
		C1424.3,2131.9,1421.7,2130.9,1419.2,2130.9L1419.2,2130.9z M1419.2,2130.9"/>
</g>
<path fill="#344E9D" d="M1490.3,2220.9h-90.7c-5.5,0-10,4.5-10,10v18.8c0,5.5,4.5,10,10,10c5.5,0,10-4.5,10-10v-8.8h70.7v68.9
	h-250.2v-68.9h70.7v8.8c0,5.5,4.5,10,10,10c5.5,0,10-4.5,10-10v-18.8c0-5.5-4.5-10-10-10h-90.7c-5.5,0-10,4.5-10,10v88.9
	c0,5.5,4.5,10,10,10h270.2c5.5,0,10-4.5,10-10v-88.9C1500.3,2225.4,1495.8,2220.9,1490.3,2220.9L1490.3,2220.9z M1490.3,2220.9"/>
</svg>
