<?xml version="1.0" encoding="utf-8"?>
<!-- Generator: Adobe Illustrator 21.0.0, SVG Export Plug-In . SVG Version: 6.00 Build 0)  -->
<svg version="1.1" id="Режим_изоляции"
	 xmlns="http://www.w3.org/2000/svg" xmlns:xlink="http://www.w3.org/1999/xlink" x="0px" y="0px" viewBox="0 0 270 175"
	 enable-background="new 0 0 270 175" xml:space="preserve">
<path fill="#344E9D" d="M55.8,135.8H18.2c2.9-17.8,18.4-31.5,37-31.5c6.2,0,12.3,1.5,17.7,4.4c2.9,1.6,6.6,0.5,8.1-2.5
	c1.6-2.9,0.5-6.6-2.5-8.1c-7.1-3.8-15.2-5.8-23.4-5.8c-27.3,0-49.5,22.2-49.5,49.5c0,3.3,2.7,6,6,6h44.1c3.3,0,6-2.7,6-6
	C61.8,138.5,59.1,135.8,55.8,135.8L55.8,135.8z M55.8,135.8"/>
<path fill="#344E9D" d="M55.2,80.3c16.6,0,30-13.5,30-30s-13.5-30-30-30c-16.6,0-30,13.5-30,30S38.7,80.3,55.2,80.3L55.2,80.3z
	 M55.2,32.3c9.9,0,18,8.1,18,18c0,9.9-8.1,18-18,18c-9.9,0-18-8.1-18-18C37.2,40.4,45.3,32.3,55.2,32.3L55.2,32.3z M55.2,32.3"/>
<path fill="#344E9D" d="M137,82.5c21.3,0,38.6-17.3,38.6-38.6c0-21.3-17.3-38.6-38.6-38.6c-21.3,0-38.6,17.3-38.6,38.6
	C98.4,65.1,115.7,82.5,137,82.5L137,82.5z M137,17.2c14.7,0,26.6,12,26.6,26.6c0,14.7-12,26.6-26.6,26.6
	c-14.7,0-26.6-11.9-26.6-26.6C110.4,29.1,122.3,17.2,137,17.2L137,17.2z M137,17.2"/>
<path fill="#344E9D" d="M137,94.5c-35.9,0-65.2,29.2-65.2,65.2c0,3.3,2.7,6,6,6h118.3c3.3,0,6-2.7,6-6
	C202.2,123.7,172.9,94.5,137,94.5L137,94.5z M84.2,153.6c3-26.5,25.5-47.2,52.8-47.2s49.8,20.7,52.8,47.2H84.2z M84.2,153.6"/>
<g>
	<path fill="#344E9D" d="M262.9,83.1c0,0.9-0.5,1.4-1.4,1.4h-22.1v24.1c0,0.9-0.5,1.4-1.4,1.4h-10c-0.9,0-1.4-0.5-1.4-1.4V84.5
		h-22.1c-0.9,0-1.4-0.5-1.4-1.4v-9.6c0-0.9,0.5-1.4,1.4-1.4h22.1v-24c0-0.9,0.5-1.4,1.4-1.4h10c0.9,0,1.4,0.5,1.4,1.4v24h22.1
		c0.9,0,1.4,0.5,1.4,1.4V83.1z"/>
</g>
</svg>
