<?xml version="1.0" encoding="utf-8"?>
<!-- Generator: Adobe Illustrator 21.0.0, SVG Export Plug-In . SVG Version: 6.00 Build 0)  -->
<svg version="1.1" id="Capa_1" xmlns="http://www.w3.org/2000/svg" xmlns:xlink="http://www.w3.org/1999/xlink" x="0px" y="0px"
	 viewBox="-49 141 512 512" enable-background="new -49 141 512 512" xml:space="preserve">
<path fill="#2A45C2" d="M225.6,462.6l-54.2-53.5l0.6-0.6c37.1-41.4,63.6-89,79.1-139.3h62.5v-42.8H164.3v-42.7h-42.7v42.7H-27.7
	v42.5h238.3C196.2,310,173.7,349,143,383.1c-19.8-22.1-36.3-46.1-49.3-71.5H51.1c15.6,34.8,36.9,67.6,63.6,97.3L6.1,516.1l30.2,30.2
	L143,439.7l66.3,66.3L225.6,462.6L225.6,462.6z M345.7,354.3H303l-96,256h42.7l24-64H375l24,64h42.7L345.7,354.3z M289.7,503.7
	l34.7-92.5l34.7,92.5H289.7z"/>
</svg>
