<?xml version="1.0" encoding="utf-8"?>
<!-- Generator: Adobe Illustrator 21.0.0, SVG Export Plug-In . SVG Version: 6.00 Build 0)  -->
<svg version="1.1" id="Слой_1" xmlns="http://www.w3.org/2000/svg" xmlns:xlink="http://www.w3.org/1999/xlink" x="0px" y="0px"
	 viewBox="0 0 500 500" enable-background="new 0 0 500 500" xml:space="preserve">
<g>
	<g>
		<path fill="#344E9D" d="M331.5,231.8H200.7v-39c0-26.4,22.3-48.7,48.7-48.7s48.7,22.3,48.7,48.7c0,4.2,2.8,7,7,7c4.2,0,7-2.8,7-7
			c0-34.8-27.8-62.6-62.6-62.6c-34.8,0-62.6,27.8-62.6,62.6v39h-19.5c-12.5,0-22.3,9.7-22.3,22.3v94.7c0,12.5,9.7,22.3,22.3,22.3
			h164.3c12.5,0,22.3-9.7,22.3-22.3V254C353.8,241.5,344.1,231.8,331.5,231.8L331.5,231.8z M339.9,348.7c0,4.2-4.2,8.4-8.4,8.4
			H167.3c-4.2,0-8.4-4.2-8.4-8.4V254c0-4.2,4.2-8.4,8.4-8.4h164.3c4.2,0,8.4,4.2,8.4,8.4V348.7z M339.9,348.7"/>
	</g>
	<path fill="#344E9D" d="M256.4,305v-20.4c0-4.2-2.8-7-7-7c-4.2,0-7,2.8-7,7V305c-0.9,0.6-1.9,1.1-2.8,1.9c-2.8,2.8-4.2,5.6-4.2,9.7
		c0,4.2,1.4,7,4.2,9.7c2.8,2.8,5.6,4.2,9.7,4.2s7-1.4,9.7-4.2c2.8-2.8,4.2-5.6,4.2-9.7c0-4.2-1.4-7-4.2-9.7
		C258.3,306.1,257.3,305.6,256.4,305L256.4,305z M256.4,305"/>
</g>
</svg>
