<?xml version="1.0" encoding="utf-8"?>
<!-- Generator: Adobe Illustrator 21.0.0, SVG Export Plug-In . SVG Version: 6.00 Build 0)  -->
<svg version="1.1" id="Capa_1" xmlns="http://www.w3.org/2000/svg" xmlns:xlink="http://www.w3.org/1999/xlink" x="0px" y="0px"
	 viewBox="-49 141 512 512" enable-background="new -49 141 512 512" xml:space="preserve">
<path fill="#2A45C2" d="M355.3,341.5H57.7c-4.7,0-8.5-3.8-8.5-8.5v-93.9c0-4.7,3.8-8.5,8.5-8.5h297.7c4.7,0,8.5,3.8,8.5,8.5V333
	C363.9,337.7,360,341.5,355.3,341.5z M66.2,324.5h280.6v-76.8H66.2V324.5z"/>
<path fill="#2A45C2" d="M207,478.1c-4.7,0-8.5-3.8-8.5-8.5V300.3c0-4.7,3.8-8.5,8.5-8.5s8.5,3.8,8.5,8.5v169.2
	C215.5,474.2,211.7,478.1,207,478.1z"/>
<path fill="#2A45C2" d="M249.7,563.4h-85.3c-4.7,0-8.5-3.8-8.5-8.5v-85.3c0-4.7,3.8-8.5,8.5-8.5h85.3c4.7,0,8.5,3.8,8.5,8.5v85.3
	C258.2,559.6,254.4,563.4,249.7,563.4z M172.9,546.3h68.3v-68.3h-68.3V546.3z"/>
<path fill="#2A45C2" d="M99.7,563.4H14.3c-4.7,0-8.5-3.8-8.5-8.5v-85.3c0-4.7,3.8-8.5,8.5-8.5h85.3c4.7,0,8.5,3.8,8.5,8.5v85.3
	C108.2,559.6,104.4,563.4,99.7,563.4z M22.9,546.3h68.3v-68.3H22.9V546.3z"/>
<path fill="#2A45C2" d="M397.7,563.4h-85.3c-4.7,0-8.5-3.8-8.5-8.5v-85.3c0-4.7,3.8-8.5,8.5-8.5h85.3c4.7,0,8.5,3.8,8.5,8.5v85.3
	C406.2,559.6,402.4,563.4,397.7,563.4z M320.9,546.3h68.3v-68.3h-68.3V546.3z"/>
<path fill="#2A45C2" d="M355,469.5c-4.7,0-8.5-3.8-8.5-8.5c0-37.6-30.6-68.3-68.3-68.3H133.8c-37.6,0-68.3,30.6-68.3,68.3
	c0,4.7-3.8,8.5-8.5,8.5s-8.5-3.8-8.5-8.5c0-47.1,38.3-85.3,85.3-85.3h144.4c47.1,0,85.3,38.3,85.3,85.3
	C363.5,465.7,359.7,469.5,355,469.5z"/>
</svg>
