<?xml version="1.0" encoding="utf-8"?>
<!-- Generator: Adobe Illustrator 21.0.0, SVG Export Plug-In . SVG Version: 6.00 Build 0)  -->
<svg version="1.1" id="Слой_8" xmlns="http://www.w3.org/2000/svg" xmlns:xlink="http://www.w3.org/1999/xlink" x="0px" y="0px"
	 viewBox="0 0 134 137" enable-background="new 0 0 134 137" xml:space="preserve">
<path fill="#FFFFFF" d="M104.6,16c1.6,0,3.2,0.6,4.3,1.8l11.7,11.7c1.2,1.2,1.8,2.7,1.8,4.3v90.6H13.2V16H104.6 M104.6,15H12.2
	v110.3h111.2V33.8c0-1.9-0.7-3.7-2.1-5l-11.7-11.7C108.2,15.7,106.4,15,104.6,15L104.6,15z"/>
<path fill="#FFFFFF" d="M90,60.8H45.5c-3.6,0-6.5-2.9-6.5-6.5v-39c0-0.3,0.2-0.5,0.5-0.5h56.7c0.3,0,0.5,0.2,0.5,0.5v39
	C96.6,57.9,93.6,60.8,90,60.8z M39.9,15.8v38.5c0,3.1,2.5,5.5,5.5,5.5H90c3.1,0,5.5-2.5,5.5-5.5V15.8H39.9z"/>
<rect x="26.8" y="76.3" opacity="0.15" fill="#FFFFFF" width="82" height="40.7"/>
<path fill="#FFFFFF" d="M100,96.8H35.3c-0.3,0-0.5-0.2-0.5-0.5s0.2-0.5,0.5-0.5H100c0.3,0,0.5,0.2,0.5,0.5S100.3,96.8,100,96.8z"/>
<path fill="#FFFFFF" d="M100,86.2H35.3c-0.3,0-0.5-0.2-0.5-0.5s0.2-0.5,0.5-0.5H100c0.3,0,0.5,0.2,0.5,0.5S100.3,86.2,100,86.2z"/>
<path fill="#FFFFFF" d="M99,107.8H36.3c-0.3,0-0.5-0.2-0.5-0.5s0.2-0.5,0.5-0.5H99c0.3,0,0.5,0.2,0.5,0.5S99.3,107.8,99,107.8z"/>
<path opacity="0.15" fill="#FFFFFF" d="M89.7,15.3v34H73.3v-34H39.4v39c0,3.3,2.7,6,6,6H90c3.3,0,6-2.7,6-6v-39H89.7z"/>
<path fill="#FFFFFF" d="M89.7,49.8H73.3c-0.3,0-0.5-0.2-0.5-0.5v-34c0-0.3,0.2-0.5,0.5-0.5h16.3c0.3,0,0.5,0.2,0.5,0.5v34
	C90.2,49.6,89.9,49.8,89.7,49.8z M73.8,48.8h15.3v-33H73.8V48.8z"/>
</svg>
