<?xml version="1.0" encoding="utf-8"?>
<!-- Generator: Adobe Illustrator 21.0.0, SVG Export Plug-In . SVG Version: 6.00 Build 0)  -->
<svg version="1.1" id="Слой_1" xmlns="http://www.w3.org/2000/svg" xmlns:xlink="http://www.w3.org/1999/xlink" x="0px" y="0px"
	 viewBox="0 0 500 500" enable-background="new 0 0 500 500" xml:space="preserve">
<g>
	<path fill="#344E9D" d="M334.2,296.3c-16.5-14.3-31.7-34.4-31.7-84.6c0-29.1-23.7-52.7-52.7-52.7c-29.1,0-52.8,23.7-52.8,52.7
		c0,50.3-15.2,70.4-31.7,84.6c-4.6,4-7.2,9.7-7.2,15.7c0,3.3,2.7,6,6,6h56.9c2.8,13.3,14.6,23.4,28.8,23.4c14.1,0,26-10,28.8-23.4
		h56.9c3.3,0,6-2.7,6-6C341.4,306,338.8,300.3,334.2,296.3L334.2,296.3z M249.7,329.5c-7.5,0-13.9-4.7-16.3-11.4H266
		C263.6,324.7,257.2,329.5,249.7,329.5L249.7,329.5z M172.4,306.1c0.2-0.2,0.4-0.5,0.7-0.7c25.2-21.7,35.9-49.7,35.9-93.7
		c0-22.5,18.3-40.7,40.8-40.7c22.5,0,40.7,18.3,40.7,40.7c0,43.9,10.7,71.9,35.9,93.7c0.2,0.2,0.5,0.4,0.7,0.7H172.4z M172.4,306.1"
		/>
</g>
</svg>
