<?xml version="1.0" encoding="utf-8"?>
<!-- Generator: Adobe Illustrator 21.0.0, SVG Export Plug-In . SVG Version: 6.00 Build 0)  -->
<svg version="1.1" id="Слой_1" xmlns="http://www.w3.org/2000/svg" xmlns:xlink="http://www.w3.org/1999/xlink" x="0px" y="0px"
	 viewBox="0 0 500 500" enable-background="new 0 0 500 500" xml:space="preserve">
<g>
	<path d="M359.5,43v101.8c0,4.6-3.7,8.3-8.3,8.3h-34.4c-4.6,0-8.3-3.7-8.3-8.3v-34.2c0-4.6-3.7-8.3-8.3-8.3h-34.4
		c-4.6,0-8.3,3.7-8.3,8.3V145c0,4.6,3.7,8.3,8.3,8.3h34.4c4.6,0,8.3,3.7,8.3,8.3v34.2c0,4.6,3.7,8.3,8.3,8.3h86.9
		c4.6,0,8.3-3.7,8.3-8.3v-34.4c0-4.6,3.7-8.3,8.3-8.3h49.4c4.6,0,8.3-3.7,8.3-8.3V43c0-4.6-3.7-8.3-8.3-8.3H367.9
		C363.3,34.7,359.5,38.4,359.5,43L359.5,43z M359.5,43"/>
</g>
<path d="M116.8,256h81.3c4.6,0,8.3-3.7,8.3-8.3v-34.4c0-4.6-3.7-8.3-8.3-8.3h-81.3c-4.6,0-8.3,3.7-8.3,8.3v34.4
	C108.5,252.3,112.2,256,116.8,256L116.8,256z M116.8,256"/>
<path d="M249.1,35.4h-64.3c-4.6,0-8.3,3.7-8.3,8.3v34.4c0,4.6,3.7,8.3,8.3,8.3h64.3c4.6,0,8.3-3.7,8.3-8.3V43.8
	C257.5,39.2,253.7,35.4,249.1,35.4L249.1,35.4z M249.1,35.4"/>
<path d="M310.2,349.7v-34.4c0-4.6-3.7-8.3-8.3-8.3h-34.4c-4.6,0-8.3,3.7-8.3,8.3v34.4c0,4.6,3.7,8.3,8.3,8.3h34.4
	C306.5,358,310.2,354.3,310.2,349.7L310.2,349.7z M310.2,349.7"/>
<path d="M412,307v-42.7c0-4.6-3.7-8.3-8.3-8.3h-85.1c-4.6,0-8.3,3.7-8.3,8.3v34.4c0,4.6,3.7,8.3,8.3,8.3h29.9c4.6,0,8.3,3.7,8.3,8.3
	v141.9c0,4.6,3.7,8.3,8.3,8.3h101.8c4.6,0,8.3-3.7,8.3-8.3V355.4c0-4.6-3.7-8.3-8.3-8.3h-46.6c-4.6,0-8.3-3.7-8.3-8.3V307z M412,307
	"/>
<path d="M412,214v34.4c0,4.6,3.7,8.3,8.3,8.3h34.4c4.6,0,8.3-3.7,8.3-8.3V214c0-4.6-3.7-8.3-8.3-8.3h-34.4
	C415.7,205.7,412,209.4,412,214L412,214z M412,214"/>
<path d="M81.3,307h18.8c4.6,0,8.3-3.7,8.3-8.3v-34.4c0-4.6-3.7-8.3-8.3-8.3H65.7c-4.6,0-8.3,3.7-8.3,8.3v23.4c0,4.6-3.7,8.3-8.3,8.3
	H30.3c-4.6,0-8.3,3.7-8.3,8.3v152.9c0,4.6,3.7,8.3,8.3,8.3h101.8c4.6,0,8.3-3.7,8.3-8.3V355.4c0-4.6-3.7-8.3-8.3-8.3H81.3
	c-4.6,0-8.3-3.7-8.3-8.3v-23.4C73,310.7,76.7,307,81.3,307L81.3,307z M81.3,307"/>
<path d="M242.5,358v-42.7c0-4.6,3.7-8.3,8.3-8.3c4.6,0,8.3-3.7,8.3-8.3V265c0-4.6,3.7-8.3,8.3-8.3h32.7c4.6,0,8.3-3.7,8.3-8.3V214
	c0-4.6-3.7-8.3-8.3-8.3h-34.4c-4.6,0-8.3,3.7-8.3,8.3v33.7c0,4.6-3.7,8.3-8.3,8.3h-32.7c-4.6,0-8.3,3.7-8.3,8.3v34.4
	c0,4.6-3.7,8.3-8.3,8.3h-36.1c-4.6,0-8.3,3.7-8.3,8.3v34.4c0,4.6,3.7,8.3,8.3,8.3h19.5c4.6,0,8.3,3.7,8.3,8.3v34.4
	c0,4.6,3.7,8.3,8.3,8.3h34.1c4.6,0,8.3,3.7,8.3,8.3v34.4c0,4.6,3.7,8.3,8.3,8.3h86.4c4.6,0,8.3-3.7,8.3-8.3v-34.4
	c0-4.6-3.7-8.3-8.3-8.3h-86c-4.6,0-8.3-3.7-8.3-8.3L242.5,358L242.5,358z M242.5,358"/>
<path d="M257.5,196.6v-34.4c0-4.6-3.7-8.3-8.3-8.3h-34.4c-4.6,0-8.3,3.7-8.3,8.3v34.4c0,4.6,3.7,8.3,8.3,8.3h34.4
	C253.7,204.9,257.5,201.2,257.5,196.6L257.5,196.6z M257.5,196.6"/>
<path d="M65.7,204.9h34.4c4.6,0,8.3-3.7,8.3-8.3v-34.4c0-4.6,3.7-8.3,8.3-8.3h66.4c4.6,0,8.3-3.7,8.3-8.3v-34.4
	c0-4.6-3.7-8.3-8.3-8.3h-34.4c-4.6,0-8.3-3.7-8.3-8.3V43.8c0-4.6-3.7-8.3-8.3-8.3H30.3c-4.6,0-8.3,3.7-8.3,8.3v101.8
	c0,4.6,3.7,8.3,8.3,8.3h18.8c4.6,0,8.3,3.7,8.3,8.3v34.4C57.4,201.2,61.1,204.9,65.7,204.9L65.7,204.9z M65.7,204.9"/>
</svg>
