<?xml version="1.0" encoding="utf-8"?>
<!-- Generator: Adobe Illustrator 21.0.0, SVG Export Plug-In . SVG Version: 6.00 Build 0)  -->
<svg version="1.1" id="Режим_изоляции"
	 xmlns="http://www.w3.org/2000/svg" xmlns:xlink="http://www.w3.org/1999/xlink" x="0px" y="0px" viewBox="992 1110 768 736"
	 enable-background="new 992 1110 768 736" xml:space="preserve">
<path fill="#B0B0BE" d="M1226.9,1158.9h-123h-36c-8.3,0-15,6.7-15,15v36v123c0,8.3,6.7,15,15,15h36c8.3,0,15-6.7,15-15v-108h108
	c8.3,0,15-6.7,15-15v-36C1241.9,1165.6,1235.2,1158.9,1226.9,1158.9z"/>
<path fill="#B0B0BE" d="M1019.5,1496.5v-36c0-8.3,6.7-15,15-15h677.2c8.3,0,15,6.7,15,15v36c0,8.3-6.7,15-15,15h-677.2
	C1026.2,1511.5,1019.5,1504.8,1019.5,1496.5z"/>
<path fill="#B0B0BE" d="M1226.9,1727.2h-108v-108c0-8.3-6.7-15-15-15h-36c-8.3,0-15,6.7-15,15v123v36c0,8.3,6.7,15,15,15h36h123
	c8.3,0,15-6.7,15-15v-36C1241.9,1733.9,1235.2,1727.2,1226.9,1727.2z"/>
<path fill="#B0B0BE" d="M1679.5,1604.2h-36c-8.3,0-15,6.7-15,15v108h-108c-8.3,0-15,6.7-15,15v36c0,8.3,6.7,15,15,15h123h36
	c8.3,0,15-6.7,15-15v-36v-123C1694.5,1610.9,1687.8,1604.2,1679.5,1604.2z"/>
<path fill="#B0B0BE" d="M1679.5,1158.9h-36h-123c-8.3,0-15,6.7-15,15v36c0,8.3,6.7,15,15,15h108v108c0,8.3,6.7,15,15,15h36
	c8.3,0,15-6.7,15-15v-123v-36C1694.5,1165.6,1687.8,1158.9,1679.5,1158.9z"/>
</svg>
