<?xml version="1.0" encoding="utf-8"?>
<!-- Generator: Adobe Illustrator 21.0.0, SVG Export Plug-In . SVG Version: 6.00 Build 0)  -->
<svg version="1.1" id="Режим_изоляции"
	 xmlns="http://www.w3.org/2000/svg" xmlns:xlink="http://www.w3.org/1999/xlink" x="0px" y="0px"
	 viewBox="1200.2 2008 335.9 359.9" enable-background="new 1200.2 2008 335.9 359.9" xml:space="preserve">
<g>
	<path fill="#010202" d="M1301.2,2112.9c2.6,0,5.1-1,7.1-2.9l46.9-46.9v170.9c0,5.5,4.5,10,10,10c5.5,0,10-4.5,10-10V2063l46.9,46.9
		c3.9,3.9,10.2,3.9,14.1,0c3.9-3.9,3.9-10.2,0-14.1l-64-64c-3.9-3.9-10.2-3.9-14.1,0l-64,64c-3.9,3.9-3.9,10.2,0,14.1
		C1296.1,2111.9,1298.6,2112.9,1301.2,2112.9L1301.2,2112.9z M1301.2,2112.9"/>
</g>
<path fill="#010202" d="M1500.3,2223.9h-90.7c-5.5,0-10,4.5-10,10v18.8c0,5.5,4.5,10,10,10c5.5,0,10-4.5,10-10v-8.8h70.7v68.9
	h-250.2v-68.9h70.7v8.8c0,5.5,4.5,10,10,10c5.5,0,10-4.5,10-10v-18.8c0-5.5-4.5-10-10-10h-90.7c-5.5,0-10,4.5-10,10v88.9
	c0,5.5,4.5,10,10,10h270.2c5.5,0,10-4.5,10-10v-88.9C1510.3,2228.4,1505.8,2223.9,1500.3,2223.9L1500.3,2223.9z M1500.3,2223.9"/>
</svg>
