<?xml version="1.0" encoding="utf-8"?>
<!-- Generator: Adobe Illustrator 21.0.0, SVG Export Plug-In . SVG Version: 6.00 Build 0)  -->
<svg version="1.1" id="Режим_изоляции"
	 xmlns="http://www.w3.org/2000/svg" xmlns:xlink="http://www.w3.org/1999/xlink" x="0px" y="0px" viewBox="2043 1909 540.1 528.1"
	 enable-background="new 2043 1909 540.1 528.1" xml:space="preserve">
<g>
	<path fill="#B0B0BE" d="M2533.2,2041c-2.2-4.9-6.6-8.4-11.9-9.4c-5.3-1-10.7,0.7-14.5,4.5l-60,59.8c-9.1,9.1-21.2,14.1-34,14.1
		c-12.9,0-24.9-5-34-14.1c-9.1-9.1-14.1-21.2-14.1-34c0-12.9,5-24.9,14.1-34l60-59.8c3.8-3.8,5.5-9.2,4.5-14.5
		c-1-5.3-4.5-9.7-9.4-11.9c-15.8-7-33.3-10.7-50.7-10.7c-32.3,0-62.3,12.2-84.4,34.3l-19.8,19.8c-34.3,34.3-44.4,84.8-27,129
		l-162.5,162.5c-14.5,14.5-22.5,33.8-22.5,54.3c0,20.5,8,39.8,22.5,54.3c14.5,14.5,33.8,22.5,54.3,22.5c20.5,0,39.8-8,54.3-22.5
		l162.5-162.5c13.9,5.4,28.9,8.3,44,8.3c32.1,0,62.3-12.5,85.1-35.2l19.8-19.8C2544,2141.3,2553.6,2087.1,2533.2,2041L2533.2,2041z
		 M2404.6,2198.4c-14,0-27.9-3.3-40.3-9.7c-6.9-3.6-14.8-1.4-20.2,4.3l-169,169.2c-8.4,8.4-19.5,12.9-31.3,12.9
		c-11.8,0-22.9-4.6-31.3-12.9c-8.4-8.4-12.9-19.5-12.9-31.3c0-11.8,4.6-22.9,12.9-31.3l169.2-169c5.8-5.5,7.9-13.3,4.3-20.2
		c-17.7-34.1-11.2-75.2,16-102.4l19.8-19.8c16-16,37.8-24.8,61.4-24.8c4.4,0,8.8,0.3,13.1,0.9l-40.5,40.4
		c-15.2,15.2-23.6,35.5-23.6,57c0,21.5,8.4,41.8,23.6,57c15.2,15.2,35.5,23.6,57,23.6c21.5,0,41.8-8.4,57-23.6l40.6-40.4
		c3.9,27.2-4.7,55.1-24,74.4l-19.8,19.8C2450,2189.2,2428,2198.4,2404.6,2198.4L2404.6,2198.4z M2404.6,2198.4"/>
</g>
<path fill="#B0B0BE" d="M2147.6,2301.7c-6.8,0-13.1,2.6-17.9,7.4c-4.8,4.8-7.4,11.2-7.4,17.9s2.6,13.1,7.4,17.9
	c4.8,4.8,11.2,7.4,17.9,7.4c6.8,0,13.1-2.6,17.9-7.4c4.8-4.8,7.4-11.2,7.4-17.9c0-6.8-2.6-13.1-7.4-17.9
	C2160.7,2304.4,2154.4,2301.7,2147.6,2301.7L2147.6,2301.7z M2147.6,2301.7"/>
</svg>
