<?xml version="1.0" encoding="utf-8"?>
<!-- Generator: Adobe Illustrator 21.0.0, SVG Export Plug-In . SVG Version: 6.00 Build 0)  -->
<svg version="1.1" id="Capa_1" xmlns="http://www.w3.org/2000/svg" xmlns:xlink="http://www.w3.org/1999/xlink" x="0px" y="0px"
	 viewBox="-49 141 512 512" enable-background="new -49 141 512 512" xml:space="preserve">
<path fill="#2A45C2" d="M72,306c-49.7,0-90,41.3-90,91c0,49.7,40.3,91,90,91c25.6,0,49.9-10.9,67.5-31.1l118.9,72.7
	c-4.2,10.4-6.5,21.6-6.5,33.5c0,49.6,40.4,90,90,90s90-40.4,90-90s-40.4-90-90-90c-27.1,0-51.4,12-67.9,30.9l-118.8-72.6
	c4.4-10.8,6.7-22.4,6.7-34.3c0-11.7-2.2-23-6.4-33.6l118.6-73.3C290.7,309,315,321,342,321c49.6,0,90-40.4,90-90s-40.4-90-90-90
	s-90,40.4-90,90c0,11.8,2.3,23.2,6.5,33.5L140,337.8C122.4,317.1,97.8,306,72,306z M342,503c33.1,0,60,26.9,60,60s-26.9,60-60,60
	s-60-26.9-60-60S308.9,503,342,503z M342,171c33.1,0,60,26.9,60,60s-26.9,60-60,60c-21.7,0-40.7-11.5-51.2-28.8c0,0,0,0,0,0
	c0,0,0,0,0,0c-5.6-9.1-8.8-19.8-8.8-31.2C282,197.9,308.9,171,342,171z M72,458c-32.5,0-60-27.9-60-61s27.5-61,60-61
	c32.5,0,60,28,60,61C132,430.1,104.5,458,72,458z"/>
</svg>
